G04 DipTrace 3.3.0.1*
G04 Bottom.gbr*
%MOIN*%
G04 #@! TF.FileFunction,Copper,L2,Bot*
G04 #@! TF.Part,Single*
G04 #@! TA.AperFunction,CopperBalancing*
%ADD13C,0.011811*%
G04 #@! TA.AperFunction,Conductor*
%ADD14C,0.03937*%
G04 #@! TA.AperFunction,ViaPad*
%ADD15C,0.023622*%
G04 #@! TA.AperFunction,CopperBalancing*
%ADD16C,0.015748*%
G04 #@! TA.AperFunction,ComponentPad*
%ADD20C,0.062992*%
%ADD21R,0.062992X0.062992*%
%ADD22R,0.110236X0.110236*%
%ADD23C,0.110236*%
%ADD24R,0.059055X0.059055*%
%ADD25C,0.059055*%
%ADD26R,0.11811X0.11811*%
%ADD27C,0.11811*%
%ADD28R,0.055118X0.070866*%
%ADD29O,0.055118X0.070866*%
%ADD30C,0.19685*%
%FSLAX26Y26*%
G04*
G70*
G90*
G75*
G01*
G04 Bottom*
%LPD*%
X2604228Y2101421D2*
D13*
X2556983Y2148667D1*
Y2684101D1*
X2533361D1*
X2450227D1*
X2426605Y2660479D1*
Y2149243D1*
Y1379045D1*
X2604228Y1201421D1*
X805295Y2754509D2*
Y2974306D1*
X828919Y2997929D1*
X1067571D1*
X1475383Y1801997D2*
X1404514Y1731129D1*
Y1672866D1*
X1475383Y1601997D1*
X2662512Y2997843D2*
X2533361Y2868692D1*
Y2684101D1*
X1404514Y2149243D2*
X2426605D1*
X1428555Y3209573D2*
X973491Y2754509D1*
X872618D1*
X1475383Y1901997D2*
X1522629Y1854752D1*
Y1749243D1*
X1475383Y1701997D1*
X1522629Y1654752D1*
Y1349243D1*
X1475383Y1301997D1*
X1428555Y3209573D2*
Y3306894D1*
X1378824Y3356625D1*
X701352D1*
X609269Y3264542D1*
X3640765Y587377D2*
X3520404Y707738D1*
Y1146100D1*
X3173199Y1601445D2*
X3105509D1*
X2903638Y1399573D1*
X2698719D1*
Y1906930D1*
X2604228Y2001421D1*
X2698719Y1399573D2*
Y1395912D1*
X2604228Y1301421D1*
X3520404Y1146100D2*
X3173199Y1493304D1*
Y1601445D1*
X618134Y1830593D2*
Y596241D1*
X609269Y587377D1*
X603327Y2754509D2*
D14*
Y2677738D1*
X626951Y2654113D1*
X1003786D1*
X1314089D1*
X1428555Y2768579D1*
Y3009573D1*
X1003786Y2654113D2*
Y2036629D1*
X2871331Y1092280D2*
X1391738D1*
X1003786Y1480231D1*
Y2036629D1*
X2527455Y2648668D2*
D13*
Y1678194D1*
X2604228Y1601421D1*
X1067571Y3197929D2*
X994416Y3124774D1*
X694274D1*
X670650Y3101150D1*
Y2754509D1*
X3173199Y1901445D2*
D14*
X3355610D1*
X3520404Y1736651D1*
X3173199Y1801445D2*
X3258760D1*
X3520404Y1539801D1*
X3173199Y1701445D2*
X3531694Y1342950D1*
X3520404D1*
X2604228Y2301421D2*
D13*
X2673223D1*
X2873199Y2101445D1*
X2604228Y2201421D2*
X2673223D1*
X2873199Y2001445D1*
Y1901445D2*
X2783958D1*
X2770703Y1888190D1*
Y1570471D1*
X2873199Y1801445D2*
X2975395Y1699249D1*
Y1540059D1*
D15*
X1404514Y2149243D3*
X2871331Y1092280D3*
X2770703Y1570471D3*
X2975395Y1540059D3*
X2527455Y2648668D3*
X403165Y3441077D2*
D16*
X3848803D1*
X403165Y3425461D2*
X3848803D1*
X403165Y3409844D2*
X3848803D1*
X403165Y3394227D2*
X3848803D1*
X403165Y3378610D2*
X562539D1*
X655995D2*
X3594035D1*
X3687491D2*
X3848803D1*
X403165Y3362993D2*
X534488D1*
X684046D2*
X1604555D1*
X1766446D2*
X2378854D1*
X2475600D2*
X3565984D1*
X3715542D2*
X3848803D1*
X403165Y3347377D2*
X517203D1*
X701332D2*
X1604555D1*
X1766446D2*
X2362829D1*
X2491625D2*
X3548699D1*
X3732828D2*
X3848803D1*
X403165Y3331760D2*
X505084D1*
X713482D2*
X1604555D1*
X1766446D2*
X2353417D1*
X2501037D2*
X3536580D1*
X3744978D2*
X3848803D1*
X403165Y3316143D2*
X496411D1*
X722155D2*
X1604555D1*
X1766446D2*
X2348189D1*
X2506265D2*
X3527907D1*
X3753651D2*
X3848803D1*
X403165Y3300526D2*
X490413D1*
X728122D2*
X1604555D1*
X1766446D2*
X2346281D1*
X2508142D2*
X3521909D1*
X3759618D2*
X3848803D1*
X403165Y3284909D2*
X486722D1*
X731812D2*
X1604555D1*
X1766446D2*
X2347512D1*
X2506942D2*
X3518218D1*
X3763308D2*
X3848803D1*
X403165Y3269293D2*
X485122D1*
X733444D2*
X1604555D1*
X1766446D2*
X2352003D1*
X2502451D2*
X3516618D1*
X3764940D2*
X3848803D1*
X403165Y3253676D2*
X485492D1*
X733043D2*
X1010252D1*
X1124899D2*
X1392879D1*
X1464219D2*
X1604555D1*
X1766446D2*
X2360399D1*
X2494024D2*
X3516988D1*
X3764539D2*
X3848803D1*
X403165Y3238059D2*
X487921D1*
X730613D2*
X1010252D1*
X1124899D2*
X1379070D1*
X1478060D2*
X1604555D1*
X1766446D2*
X2374640D1*
X2479783D2*
X2622333D1*
X2702685D2*
X3519417D1*
X3762109D2*
X3848803D1*
X403165Y3222442D2*
X492474D1*
X726062D2*
X1010252D1*
X1124899D2*
X1372734D1*
X1484366D2*
X1604555D1*
X1766446D2*
X2404291D1*
X2450163D2*
X2610923D1*
X2714127D2*
X3523970D1*
X3757558D2*
X3848803D1*
X403165Y3206825D2*
X499455D1*
X719110D2*
X1010252D1*
X1124899D2*
X1371287D1*
X1485811D2*
X2605908D1*
X2719110D2*
X3530951D1*
X3750606D2*
X3848803D1*
X403165Y3191209D2*
X509360D1*
X709175D2*
X1010252D1*
X1124899D2*
X1374332D1*
X1482766D2*
X2605571D1*
X2719449D2*
X3540856D1*
X3740671D2*
X3848803D1*
X403165Y3175592D2*
X523201D1*
X695335D2*
X1001024D1*
X1124899D2*
X1382791D1*
X1474339D2*
X2609815D1*
X2715203D2*
X3554697D1*
X3726831D2*
X3848803D1*
X403165Y3159975D2*
X543531D1*
X675003D2*
X985399D1*
X1124899D2*
X1401522D1*
X1455576D2*
X2620026D1*
X2704992D2*
X3575028D1*
X3706499D2*
X3848803D1*
X403165Y3144358D2*
X583087D1*
X635449D2*
X669639D1*
X1124899D2*
X2645217D1*
X2679802D2*
X3614583D1*
X3666945D2*
X3848803D1*
X403165Y3128741D2*
X654014D1*
X1042621D2*
X3848803D1*
X403165Y3113125D2*
X641403D1*
X1026996D2*
X3848803D1*
X403165Y3097508D2*
X638912D1*
X1008879D2*
X3848803D1*
X403165Y3081891D2*
X638912D1*
X702378D2*
X3848803D1*
X403165Y3066274D2*
X638912D1*
X702378D2*
X3848803D1*
X403165Y3050657D2*
X638912D1*
X702378D2*
X1047899D1*
X1087251D2*
X1371226D1*
X1485873D2*
X2605201D1*
X2719848D2*
X3848803D1*
X403165Y3035041D2*
X638912D1*
X702378D2*
X1024400D1*
X1110749D2*
X1371226D1*
X1485873D2*
X2605201D1*
X2719848D2*
X3848803D1*
X403165Y3019424D2*
X638912D1*
X702378D2*
X806203D1*
X1120592D2*
X1371226D1*
X1485873D2*
X2605201D1*
X2719848D2*
X3848803D1*
X403165Y3003807D2*
X638912D1*
X702378D2*
X790579D1*
X1124591D2*
X1371226D1*
X1485873D2*
X2605201D1*
X2719848D2*
X3848803D1*
X403165Y2988190D2*
X638912D1*
X702378D2*
X776953D1*
X1124037D2*
X1371226D1*
X1485873D2*
X2605201D1*
X2719848D2*
X3848803D1*
X403165Y2972573D2*
X638912D1*
X702378D2*
X773570D1*
X1118808D2*
X1371226D1*
X1485873D2*
X2593021D1*
X2719848D2*
X3848803D1*
X403165Y2956957D2*
X638912D1*
X702378D2*
X773570D1*
X837035D2*
X1028184D1*
X1106936D2*
X1371226D1*
X1485873D2*
X2577396D1*
X2719848D2*
X3848803D1*
X403165Y2941340D2*
X638912D1*
X702378D2*
X773570D1*
X837035D2*
X1383037D1*
X1474062D2*
X2561772D1*
X2650243D2*
X3848803D1*
X403165Y2925723D2*
X638912D1*
X702378D2*
X773570D1*
X837035D2*
X1383037D1*
X1474062D2*
X2546177D1*
X2634618D2*
X3848803D1*
X403165Y2910106D2*
X638912D1*
X702378D2*
X773570D1*
X837035D2*
X1383037D1*
X1474062D2*
X2530551D1*
X2618993D2*
X3848803D1*
X403165Y2894490D2*
X638912D1*
X702378D2*
X773570D1*
X837035D2*
X1383037D1*
X1474062D2*
X2514927D1*
X2603367D2*
X3848803D1*
X403165Y2878873D2*
X638912D1*
X702378D2*
X773570D1*
X837035D2*
X1383037D1*
X1474062D2*
X2503392D1*
X2587774D2*
X3848803D1*
X403165Y2863256D2*
X638912D1*
X702378D2*
X773570D1*
X837035D2*
X1383037D1*
X1474062D2*
X2501639D1*
X2572148D2*
X3848803D1*
X403165Y2847639D2*
X638912D1*
X702378D2*
X773570D1*
X837035D2*
X1383037D1*
X1474062D2*
X2501639D1*
X2565105D2*
X3848803D1*
X403165Y2832022D2*
X638912D1*
X702378D2*
X773570D1*
X837035D2*
X1383037D1*
X1474062D2*
X2501639D1*
X2565105D2*
X3848803D1*
X403165Y2816406D2*
X638912D1*
X702378D2*
X773570D1*
X837035D2*
X1383037D1*
X1474062D2*
X2501639D1*
X2565105D2*
X3848803D1*
X403165Y2800789D2*
X549929D1*
X908978D2*
X1383037D1*
X1474062D2*
X2501639D1*
X2565105D2*
X3435510D1*
X3605276D2*
X3848803D1*
X403165Y2785172D2*
X549929D1*
X920728D2*
X1381437D1*
X1474062D2*
X2501639D1*
X2565105D2*
X3435510D1*
X3605276D2*
X3848803D1*
X403165Y2769555D2*
X549929D1*
X925495D2*
X1365812D1*
X1474062D2*
X2501639D1*
X2565105D2*
X3435510D1*
X3605276D2*
X3848803D1*
X403165Y2753938D2*
X549929D1*
X926018D2*
X1350218D1*
X1471571D2*
X2501639D1*
X2565105D2*
X3435510D1*
X3605276D2*
X3848803D1*
X403165Y2738322D2*
X549929D1*
X925341D2*
X1334593D1*
X1461974D2*
X2501639D1*
X2565105D2*
X3435510D1*
X3605276D2*
X3848803D1*
X403165Y2722705D2*
X549929D1*
X920143D2*
X1318969D1*
X1446379D2*
X2501639D1*
X2565105D2*
X3435510D1*
X3605276D2*
X3848803D1*
X403165Y2707088D2*
X549929D1*
X907656D2*
X1303344D1*
X1430786D2*
X2429143D1*
X2578085D2*
X3435510D1*
X3605276D2*
X3848803D1*
X403165Y2691471D2*
X557803D1*
X1415160D2*
X2413365D1*
X2587804D2*
X3435510D1*
X3605276D2*
X3848803D1*
X403165Y2675854D2*
X557865D1*
X1399535D2*
X2399093D1*
X2588727D2*
X3435510D1*
X3605276D2*
X3848803D1*
X403165Y2660238D2*
X561463D1*
X1383911D2*
X2394879D1*
X2588727D2*
X3435510D1*
X3605276D2*
X3848803D1*
X403165Y2644621D2*
X572720D1*
X1368316D2*
X1420039D1*
X1530748D2*
X2394879D1*
X2458345D2*
X2490043D1*
X2637848D2*
X3435510D1*
X3605276D2*
X3848803D1*
X403165Y2629004D2*
X588346D1*
X1352692D2*
X1420039D1*
X1530748D2*
X2394879D1*
X2458345D2*
X2495642D1*
X2651966D2*
X3848803D1*
X403165Y2613387D2*
X608892D1*
X1332146D2*
X1420039D1*
X1530748D2*
X2394879D1*
X2458345D2*
X2495734D1*
X2658240D2*
X3848803D1*
X403165Y2597770D2*
X958270D1*
X1049295D2*
X1420039D1*
X1530748D2*
X2394879D1*
X2458345D2*
X2495734D1*
X2659470D2*
X3480017D1*
X3560768D2*
X3848803D1*
X403165Y2582154D2*
X958270D1*
X1049295D2*
X1420039D1*
X1530748D2*
X2394879D1*
X2458345D2*
X2495734D1*
X2656025D2*
X3459133D1*
X3581684D2*
X3848803D1*
X403165Y2566537D2*
X958270D1*
X1049295D2*
X1420039D1*
X1530748D2*
X2394879D1*
X2458345D2*
X2495734D1*
X2646736D2*
X3447167D1*
X3593648D2*
X3848803D1*
X403165Y2550920D2*
X958270D1*
X1049295D2*
X1420039D1*
X1530748D2*
X2394879D1*
X2458345D2*
X2495734D1*
X2626836D2*
X3439970D1*
X3600846D2*
X3848803D1*
X403165Y2535303D2*
X958270D1*
X1049295D2*
X1431573D1*
X1519184D2*
X2394879D1*
X2458345D2*
X2495734D1*
X2647567D2*
X3436280D1*
X3604537D2*
X3848803D1*
X403165Y2519686D2*
X958270D1*
X1049295D2*
X1423022D1*
X1527735D2*
X2394879D1*
X2458345D2*
X2495734D1*
X2656395D2*
X3435633D1*
X3605182D2*
X3848803D1*
X403165Y2504070D2*
X958270D1*
X1049295D2*
X1420070D1*
X1530688D2*
X2394879D1*
X2458345D2*
X2495734D1*
X2659531D2*
X3437940D1*
X3602845D2*
X3848803D1*
X403165Y2488453D2*
X958270D1*
X1049295D2*
X1421761D1*
X1528996D2*
X2394879D1*
X2458345D2*
X2495734D1*
X2657993D2*
X3443507D1*
X3597308D2*
X3848803D1*
X403165Y2472836D2*
X958270D1*
X1049295D2*
X1428621D1*
X1522136D2*
X2394879D1*
X2458345D2*
X2495734D1*
X2651350D2*
X3453134D1*
X3587681D2*
X3848803D1*
X403165Y2457219D2*
X958270D1*
X1049295D2*
X1444030D1*
X1506757D2*
X2394879D1*
X2458345D2*
X2495734D1*
X2636433D2*
X3469097D1*
X3571718D2*
X3848803D1*
X403165Y2441602D2*
X958270D1*
X1049295D2*
X1437417D1*
X1513340D2*
X2394879D1*
X2458345D2*
X2495734D1*
X2641538D2*
X2817831D1*
X2928541D2*
X3135866D1*
X3210559D2*
X3506899D1*
X3533886D2*
X3848803D1*
X403165Y2425986D2*
X958270D1*
X1049295D2*
X1425668D1*
X1525089D2*
X2394879D1*
X2458345D2*
X2495734D1*
X2653657D2*
X2817831D1*
X2928541D2*
X3123780D1*
X3222617D2*
X3848803D1*
X403165Y2410369D2*
X958270D1*
X1049295D2*
X1420685D1*
X1530072D2*
X2394879D1*
X2458345D2*
X2495734D1*
X2658824D2*
X2817831D1*
X2928541D2*
X3118581D1*
X3227815D2*
X3514004D1*
X3526818D2*
X3848803D1*
X403165Y2394752D2*
X958270D1*
X1049295D2*
X1420531D1*
X1530256D2*
X2394879D1*
X2458345D2*
X2495734D1*
X2659163D2*
X2817831D1*
X2928541D2*
X3118273D1*
X3228122D2*
X3470081D1*
X3570734D2*
X3848803D1*
X403165Y2379135D2*
X958270D1*
X1049295D2*
X1425144D1*
X1525643D2*
X2394879D1*
X2458345D2*
X2495734D1*
X2654734D2*
X2817831D1*
X2928541D2*
X3122702D1*
X3223693D2*
X3453688D1*
X3587127D2*
X3848803D1*
X403165Y2363518D2*
X958270D1*
X1049295D2*
X1436248D1*
X1514539D2*
X2394879D1*
X2458345D2*
X2495734D1*
X2643969D2*
X2817831D1*
X2928541D2*
X3133499D1*
X3212896D2*
X3443845D1*
X3596940D2*
X3848803D1*
X403165Y2347902D2*
X958270D1*
X1049295D2*
X1445783D1*
X1504974D2*
X2394879D1*
X2458345D2*
X2495734D1*
X2632865D2*
X2817831D1*
X2928541D2*
X3144541D1*
X3201854D2*
X3438125D1*
X3602660D2*
X3848803D1*
X403165Y2332285D2*
X958270D1*
X1049295D2*
X1429358D1*
X1521398D2*
X2394879D1*
X2458345D2*
X2495734D1*
X2649843D2*
X2827580D1*
X2918820D2*
X3127562D1*
X3218833D2*
X3435664D1*
X3605121D2*
X3848803D1*
X403165Y2316668D2*
X958270D1*
X1049295D2*
X1422068D1*
X1528688D2*
X2394879D1*
X2458345D2*
X2495734D1*
X2702193D2*
X2820045D1*
X2926357D2*
X3120058D1*
X3226369D2*
X3436186D1*
X3604629D2*
X3848803D1*
X403165Y2301051D2*
X958270D1*
X1049295D2*
X1420039D1*
X1530718D2*
X2394879D1*
X2458345D2*
X2495734D1*
X2717818D2*
X2817861D1*
X2928541D2*
X3117843D1*
X3228552D2*
X3439724D1*
X3601062D2*
X3848803D1*
X403165Y2285434D2*
X958270D1*
X1049295D2*
X1422654D1*
X1528134D2*
X2394879D1*
X2458345D2*
X2495734D1*
X2733444D2*
X2820291D1*
X2926110D2*
X3120273D1*
X3226122D2*
X3446736D1*
X3594049D2*
X3848803D1*
X403165Y2269818D2*
X958270D1*
X1049295D2*
X1430711D1*
X1520045D2*
X2394879D1*
X2458345D2*
X2495734D1*
X2749037D2*
X2828134D1*
X2918268D2*
X3128115D1*
X3218280D2*
X3458425D1*
X3582361D2*
X3848803D1*
X403165Y2254201D2*
X958270D1*
X1049295D2*
X1449167D1*
X1501621D2*
X2394879D1*
X2458345D2*
X2495734D1*
X2764663D2*
X2845944D1*
X2900458D2*
X3145925D1*
X3200471D2*
X3478694D1*
X3562122D2*
X3848803D1*
X403165Y2238584D2*
X958270D1*
X1049295D2*
X1434403D1*
X1516385D2*
X2394879D1*
X2458345D2*
X2495734D1*
X2780287D2*
X2832717D1*
X2913684D2*
X3132730D1*
X3213665D2*
X3848803D1*
X403165Y2222967D2*
X958270D1*
X1049295D2*
X1424283D1*
X1526474D2*
X2394879D1*
X2458345D2*
X2495734D1*
X2795912D2*
X2822352D1*
X2924050D2*
X3122333D1*
X3224062D2*
X3848803D1*
X403165Y2207350D2*
X958270D1*
X1049295D2*
X1420285D1*
X1530472D2*
X2394879D1*
X2458345D2*
X2495734D1*
X2928232D2*
X3118181D1*
X3228214D2*
X3487029D1*
X3553786D2*
X3848803D1*
X403165Y2191734D2*
X958270D1*
X1049295D2*
X1421024D1*
X1529764D2*
X2394879D1*
X2458345D2*
X2495734D1*
X2927678D2*
X3118735D1*
X3227660D2*
X3462516D1*
X3578301D2*
X3848803D1*
X403165Y2176117D2*
X958270D1*
X1049295D2*
X1378885D1*
X2458345D2*
X2495734D1*
X2922205D2*
X3124178D1*
X3222217D2*
X3449228D1*
X3591588D2*
X3848803D1*
X403165Y2160500D2*
X958270D1*
X1049295D2*
X1368673D1*
X2458345D2*
X2495734D1*
X2640709D2*
X2669916D1*
X2909655D2*
X3136759D1*
X3209636D2*
X3441169D1*
X3599646D2*
X3848803D1*
X403165Y2144883D2*
X958270D1*
X1049295D2*
X1367135D1*
X2458345D2*
X2495734D1*
X2637479D2*
X2685541D1*
X2906487D2*
X3139927D1*
X3206469D2*
X3436802D1*
X3604014D2*
X3848803D1*
X403165Y2129266D2*
X958270D1*
X1049295D2*
X1372917D1*
X2458345D2*
X2495734D1*
X2651811D2*
X2701165D1*
X2920789D2*
X3125593D1*
X3220802D2*
X3435541D1*
X3605276D2*
X3848803D1*
X403165Y2113650D2*
X922837D1*
X1084728D2*
X1397125D1*
X1411900D2*
X1421328D1*
X1529457D2*
X2394879D1*
X2458345D2*
X2495734D1*
X2658178D2*
X2716760D1*
X2927156D2*
X3119257D1*
X3227138D2*
X3437202D1*
X3603583D2*
X3848803D1*
X403165Y2098033D2*
X533259D1*
X703024D2*
X922837D1*
X1084728D2*
X1420161D1*
X1530594D2*
X2394879D1*
X2458345D2*
X2495734D1*
X2659470D2*
X2732385D1*
X2928448D2*
X3117966D1*
X3228461D2*
X3442062D1*
X3598755D2*
X3848803D1*
X403165Y2082416D2*
X533259D1*
X703024D2*
X922837D1*
X1084728D2*
X1423730D1*
X1527058D2*
X2394879D1*
X2458345D2*
X2495734D1*
X2656118D2*
X2748010D1*
X2925064D2*
X3121319D1*
X3225077D2*
X3450705D1*
X3590112D2*
X3848803D1*
X403165Y2066799D2*
X533259D1*
X703024D2*
X922837D1*
X1084728D2*
X1433142D1*
X1517615D2*
X2394879D1*
X2458345D2*
X2495734D1*
X2646951D2*
X2763635D1*
X2915899D2*
X3130484D1*
X3215911D2*
X3464976D1*
X3575840D2*
X3848803D1*
X403165Y2051182D2*
X533259D1*
X703024D2*
X922837D1*
X1084728D2*
X1452058D1*
X1498699D2*
X2394879D1*
X2458345D2*
X2495734D1*
X2626190D2*
X2779230D1*
X2895230D2*
X3151184D1*
X3195241D2*
X3492904D1*
X3547912D2*
X3848803D1*
X403165Y2035566D2*
X533259D1*
X703024D2*
X922837D1*
X1084728D2*
X1431789D1*
X1518969D2*
X2394879D1*
X2458345D2*
X2495734D1*
X2647352D2*
X2794854D1*
X2916329D2*
X3130054D1*
X3216341D2*
X3848803D1*
X403165Y2019949D2*
X533259D1*
X703024D2*
X922837D1*
X1084728D2*
X1423114D1*
X1527642D2*
X2394879D1*
X2458345D2*
X2495734D1*
X2656302D2*
X2810479D1*
X2925280D2*
X3121134D1*
X3225261D2*
X3848803D1*
X403165Y2004332D2*
X533259D1*
X703024D2*
X922837D1*
X1084728D2*
X1420070D1*
X1530688D2*
X2394879D1*
X2458345D2*
X2495734D1*
X2659501D2*
X2817923D1*
X2928479D2*
X3117934D1*
X3228491D2*
X3474972D1*
X3565844D2*
X3848803D1*
X403165Y1988715D2*
X533259D1*
X703024D2*
X922837D1*
X1084728D2*
X1421699D1*
X1529056D2*
X2394879D1*
X2458345D2*
X2495734D1*
X2658055D2*
X2819369D1*
X2927033D2*
X3119381D1*
X3227014D2*
X3456457D1*
X3584360D2*
X3848803D1*
X403165Y1973098D2*
X533259D1*
X703024D2*
X922837D1*
X1084728D2*
X1428466D1*
X1522322D2*
X2394879D1*
X2458345D2*
X2495734D1*
X2651535D2*
X2825920D1*
X2920482D2*
X3125932D1*
X3220463D2*
X3445537D1*
X3595278D2*
X3848803D1*
X403165Y1957482D2*
X533259D1*
X703024D2*
X922837D1*
X1084728D2*
X1443630D1*
X1507126D2*
X2394879D1*
X2458345D2*
X2495734D1*
X2636802D2*
X2840652D1*
X2905748D2*
X3140634D1*
X3205761D2*
X3439047D1*
X3601769D2*
X3848803D1*
X403165Y1941865D2*
X958270D1*
X1049295D2*
X1437724D1*
X1513063D2*
X2394879D1*
X2458345D2*
X2495734D1*
X2641261D2*
X2836161D1*
X2910239D2*
X3136143D1*
X3374407D2*
X3435941D1*
X3604875D2*
X3848803D1*
X403165Y1926248D2*
X958270D1*
X1049295D2*
X1425822D1*
X1524966D2*
X2394879D1*
X2458345D2*
X2495734D1*
X2653504D2*
X2765235D1*
X2922480D2*
X3123902D1*
X3394522D2*
X3435848D1*
X3604967D2*
X3848803D1*
X403165Y1910631D2*
X593451D1*
X642831D2*
X958270D1*
X1049295D2*
X1420715D1*
X1530041D2*
X2394879D1*
X2458345D2*
X2495734D1*
X2658794D2*
X2748933D1*
X2927772D2*
X3118642D1*
X3410147D2*
X3438709D1*
X3602076D2*
X3848803D1*
X403165Y1895014D2*
X563740D1*
X672542D2*
X958270D1*
X1049295D2*
X1420470D1*
X1530287D2*
X2394879D1*
X2458345D2*
X2495734D1*
X2659193D2*
X2739766D1*
X2928171D2*
X3118243D1*
X3425741D2*
X3444953D1*
X3595864D2*
X3848803D1*
X403165Y1879398D2*
X549037D1*
X687214D2*
X958270D1*
X1049295D2*
X1425021D1*
X1525766D2*
X2394879D1*
X2458345D2*
X2495734D1*
X2654857D2*
X2738967D1*
X2923835D2*
X3122579D1*
X3441366D2*
X3455472D1*
X3585314D2*
X3848803D1*
X403165Y1863781D2*
X540148D1*
X696134D2*
X958270D1*
X1049295D2*
X1435971D1*
X1514785D2*
X2394879D1*
X2458345D2*
X2495734D1*
X2644214D2*
X2738967D1*
X2802433D2*
X2833240D1*
X2913161D2*
X3133222D1*
X3456991D2*
X3473219D1*
X3567566D2*
X3848803D1*
X403165Y1848164D2*
X535135D1*
X701147D2*
X958270D1*
X1049295D2*
X1446214D1*
X1504543D2*
X2394879D1*
X2458345D2*
X2495734D1*
X2632403D2*
X2738967D1*
X2802433D2*
X2844990D1*
X2901412D2*
X3145001D1*
X3201424D2*
X3345175D1*
X3472617D2*
X3848803D1*
X403165Y1832547D2*
X533289D1*
X702992D2*
X958270D1*
X1049295D2*
X1429543D1*
X1521214D2*
X2394879D1*
X2458345D2*
X2495734D1*
X2649659D2*
X2738967D1*
X2802433D2*
X2827765D1*
X2918636D2*
X3127747D1*
X3291360D2*
X3360799D1*
X3488210D2*
X3848803D1*
X403165Y1816930D2*
X534366D1*
X701886D2*
X958270D1*
X1049295D2*
X1422130D1*
X1528626D2*
X2394879D1*
X2458345D2*
X2495734D1*
X2657286D2*
X2738967D1*
X2802433D2*
X2820138D1*
X2926264D2*
X3120118D1*
X3306986D2*
X3376424D1*
X3544220D2*
X3848803D1*
X403165Y1801314D2*
X538580D1*
X697702D2*
X958270D1*
X1049295D2*
X1420039D1*
X1530718D2*
X2394879D1*
X2458345D2*
X2495734D1*
X2659593D2*
X2738967D1*
X2802433D2*
X2817831D1*
X2928541D2*
X3117843D1*
X3322610D2*
X3392018D1*
X3574517D2*
X3848803D1*
X403165Y1785697D2*
X546392D1*
X689890D2*
X958270D1*
X1049295D2*
X1414871D1*
X1528196D2*
X2394879D1*
X2458345D2*
X2495734D1*
X2657224D2*
X2738967D1*
X2802433D2*
X2820198D1*
X2933185D2*
X3120211D1*
X3338205D2*
X3407643D1*
X3589311D2*
X3848803D1*
X403165Y1770080D2*
X559311D1*
X676971D2*
X958270D1*
X1049295D2*
X1399247D1*
X1520230D2*
X2394879D1*
X2458345D2*
X2495734D1*
X2649505D2*
X2738967D1*
X2802433D2*
X2827950D1*
X2948780D2*
X3127932D1*
X3353829D2*
X3423268D1*
X3598293D2*
X3848803D1*
X403165Y1754463D2*
X582717D1*
X653534D2*
X958270D1*
X1049295D2*
X1383622D1*
X1502113D2*
X2394879D1*
X2458345D2*
X2495734D1*
X2632004D2*
X2738967D1*
X2802433D2*
X2845451D1*
X2964404D2*
X3145463D1*
X3200932D2*
X3242043D1*
X3369454D2*
X3437448D1*
X3603367D2*
X3848803D1*
X403165Y1738846D2*
X958270D1*
X1049295D2*
X1373780D1*
X1516139D2*
X2394879D1*
X2458345D2*
X2495734D1*
X2644429D2*
X2738967D1*
X2802433D2*
X2832993D1*
X2980029D2*
X3132975D1*
X3213420D2*
X3257638D1*
X3385079D2*
X3435541D1*
X3605244D2*
X3848803D1*
X403165Y1723230D2*
X958270D1*
X1049295D2*
X1372795D1*
X1526381D2*
X2394879D1*
X2458345D2*
X2495734D1*
X2654949D2*
X2738967D1*
X2802433D2*
X2822444D1*
X2995654D2*
X3122457D1*
X3223938D2*
X3273262D1*
X3400673D2*
X3436617D1*
X3604198D2*
X3848803D1*
X403165Y1707613D2*
X958270D1*
X1049295D2*
X1372795D1*
X1530441D2*
X2394879D1*
X2458345D2*
X2495734D1*
X2659224D2*
X2738967D1*
X2802433D2*
X2818199D1*
X3005958D2*
X3118211D1*
X3230736D2*
X3288887D1*
X3416299D2*
X3440739D1*
X3600046D2*
X3848803D1*
X403165Y1691996D2*
X958270D1*
X1049295D2*
X1372795D1*
X1529795D2*
X2394879D1*
X2458345D2*
X2495734D1*
X2658762D2*
X2738967D1*
X2802433D2*
X2818692D1*
X2927710D2*
X2938432D1*
X3007126D2*
X3118673D1*
X3246361D2*
X3304512D1*
X3431924D2*
X3448490D1*
X3592295D2*
X3848803D1*
X403165Y1676379D2*
X958270D1*
X1049295D2*
X1372795D1*
X1524259D2*
X2394879D1*
X2458345D2*
X2495765D1*
X2653411D2*
X2738967D1*
X2802433D2*
X2824043D1*
X2922358D2*
X2943661D1*
X3007126D2*
X3124055D1*
X3261987D2*
X3320106D1*
X3447549D2*
X3461316D1*
X3579500D2*
X3848803D1*
X403165Y1660762D2*
X958270D1*
X1049295D2*
X1375316D1*
X1511495D2*
X2394879D1*
X2458345D2*
X2501270D1*
X2641016D2*
X2738967D1*
X2802433D2*
X2836438D1*
X2909962D2*
X2943661D1*
X3007126D2*
X3136451D1*
X3277580D2*
X3335731D1*
X3463143D2*
X3484476D1*
X3556339D2*
X3848803D1*
X403165Y1645146D2*
X958270D1*
X1049295D2*
X1388020D1*
X1509064D2*
X2394879D1*
X2458345D2*
X2516280D1*
X2637109D2*
X2738967D1*
X2802433D2*
X2840283D1*
X2906118D2*
X2943661D1*
X3007126D2*
X3140265D1*
X3293206D2*
X3351357D1*
X3478768D2*
X3848803D1*
X403165Y1629529D2*
X958270D1*
X1049295D2*
X1403614D1*
X1523151D2*
X2394879D1*
X2458345D2*
X2531906D1*
X2651657D2*
X2738967D1*
X2802433D2*
X2825766D1*
X2920635D2*
X2943661D1*
X3007126D2*
X3125748D1*
X3308831D2*
X3366950D1*
X3494392D2*
X3848803D1*
X403165Y1613912D2*
X958270D1*
X1049295D2*
X1419239D1*
X1529395D2*
X2394879D1*
X2458345D2*
X2547500D1*
X2658117D2*
X2738967D1*
X2802433D2*
X2819307D1*
X2927094D2*
X2943661D1*
X3007126D2*
X3119319D1*
X3324455D2*
X3382576D1*
X3560030D2*
X3848803D1*
X403165Y1598295D2*
X958270D1*
X1049295D2*
X1420161D1*
X1530594D2*
X2394879D1*
X2458345D2*
X2548976D1*
X2659501D2*
X2738967D1*
X2802433D2*
X2817923D1*
X2928448D2*
X2943661D1*
X3007126D2*
X3117934D1*
X3340050D2*
X3398201D1*
X3581283D2*
X3848803D1*
X403165Y1582678D2*
X958270D1*
X1049295D2*
X1423606D1*
X1527150D2*
X2394879D1*
X2458345D2*
X2552236D1*
X2656210D2*
X2735184D1*
X2806217D2*
X2821214D1*
X2925188D2*
X2943661D1*
X3007126D2*
X3121226D1*
X3355675D2*
X3413825D1*
X3593403D2*
X3848803D1*
X403165Y1567062D2*
X958270D1*
X1049295D2*
X1432927D1*
X1517831D2*
X2394879D1*
X2458345D2*
X2561280D1*
X2647167D2*
X2733215D1*
X2808185D2*
X2830287D1*
X2916114D2*
X2943661D1*
X3007126D2*
X3130269D1*
X3216126D2*
X3243858D1*
X3371299D2*
X3429420D1*
X3600692D2*
X3848803D1*
X403165Y1551445D2*
X958270D1*
X1049295D2*
X1452673D1*
X1498114D2*
X2394879D1*
X2458345D2*
X2582778D1*
X2625668D2*
X2738505D1*
X2802925D2*
X2851818D1*
X2894584D2*
X2939601D1*
X3011186D2*
X3151831D1*
X3194566D2*
X3259483D1*
X3386925D2*
X3436340D1*
X3604475D2*
X3848803D1*
X403165Y1535828D2*
X958270D1*
X1049295D2*
X1432004D1*
X1518753D2*
X2394879D1*
X2458345D2*
X2561310D1*
X2647136D2*
X2759114D1*
X2782286D2*
X2938001D1*
X3012786D2*
X3275108D1*
X3402520D2*
X3435602D1*
X3605182D2*
X3848803D1*
X403165Y1520211D2*
X958270D1*
X1049295D2*
X1423207D1*
X1527550D2*
X2394879D1*
X2458345D2*
X2552266D1*
X2656180D2*
X2943722D1*
X3007066D2*
X3290732D1*
X3418144D2*
X3437848D1*
X3602937D2*
X3848803D1*
X403165Y1504594D2*
X958270D1*
X1049295D2*
X1420100D1*
X1530688D2*
X2394879D1*
X2458345D2*
X2548976D1*
X2659501D2*
X2967283D1*
X2983512D2*
X3306327D1*
X3433769D2*
X3443323D1*
X3597493D2*
X3848803D1*
X403165Y1488978D2*
X958270D1*
X1058739D2*
X1421638D1*
X1529150D2*
X2394879D1*
X2458345D2*
X2550329D1*
X2658117D2*
X3321951D1*
X3587990D2*
X3848803D1*
X403165Y1473361D2*
X958824D1*
X1074364D2*
X1428282D1*
X1522475D2*
X2394879D1*
X2458345D2*
X2556789D1*
X2651689D2*
X3337577D1*
X3572241D2*
X3848803D1*
X403165Y1457744D2*
X964453D1*
X1089988D2*
X1443261D1*
X1507526D2*
X2394879D1*
X2458345D2*
X2571276D1*
X2637171D2*
X3353202D1*
X3480613D2*
X3504438D1*
X3536346D2*
X3848803D1*
X403165Y1442127D2*
X978171D1*
X1105613D2*
X1438001D1*
X1512756D2*
X2394879D1*
X2458345D2*
X2567492D1*
X2640954D2*
X3368797D1*
X3496239D2*
X3848803D1*
X403165Y1426510D2*
X993797D1*
X1121207D2*
X1425945D1*
X1524812D2*
X2394879D1*
X2458345D2*
X2555097D1*
X2653381D2*
X3384421D1*
X3511832D2*
X3848803D1*
X403165Y1410894D2*
X1009421D1*
X1136832D2*
X1420777D1*
X1530010D2*
X2394879D1*
X2458345D2*
X2549714D1*
X2658732D2*
X3400046D1*
X3570180D2*
X3848803D1*
X403165Y1395277D2*
X1025016D1*
X1152458D2*
X1420438D1*
X1530318D2*
X2394879D1*
X2458345D2*
X2549222D1*
X2659224D2*
X3415671D1*
X3586790D2*
X3848803D1*
X403165Y1379660D2*
X1040640D1*
X1168083D2*
X1424899D1*
X1525888D2*
X2394879D1*
X2470217D2*
X2553466D1*
X2654980D2*
X3431265D1*
X3596755D2*
X3848803D1*
X403165Y1364043D2*
X963253D1*
X1044312D2*
X1056265D1*
X1183677D2*
X1435694D1*
X1515062D2*
X2398878D1*
X2485843D2*
X2563986D1*
X2644461D2*
X3438248D1*
X3602568D2*
X3848803D1*
X403165Y1348427D2*
X943600D1*
X1063967D2*
X1071890D1*
X1199302D2*
X1446675D1*
X1504113D2*
X2412995D1*
X2501437D2*
X2576535D1*
X2631942D2*
X3435694D1*
X3605121D2*
X3848803D1*
X403165Y1332810D2*
X932496D1*
X1075101D2*
X1087484D1*
X1214927D2*
X1429727D1*
X1521029D2*
X2428621D1*
X2517062D2*
X2558972D1*
X2649474D2*
X3436156D1*
X3604660D2*
X3848803D1*
X403165Y1317193D2*
X926037D1*
X1081530D2*
X1103110D1*
X1230521D2*
X1422223D1*
X1528534D2*
X2444245D1*
X2532686D2*
X2551252D1*
X2657224D2*
X3439601D1*
X3601215D2*
X3848803D1*
X403165Y1301576D2*
X923114D1*
X1084451D2*
X1118735D1*
X1246146D2*
X1420039D1*
X1530748D2*
X2459840D1*
X2659593D2*
X3446521D1*
X3594294D2*
X3848803D1*
X403165Y1285959D2*
X923361D1*
X1084236D2*
X1134360D1*
X1261772D2*
X1422469D1*
X1528287D2*
X2475465D1*
X2657318D2*
X3458055D1*
X3582730D2*
X3848803D1*
X403165Y1270343D2*
X926744D1*
X1080823D2*
X1149954D1*
X1277396D2*
X1430343D1*
X1520445D2*
X2491089D1*
X2649689D2*
X3477987D1*
X3562829D2*
X3848803D1*
X403165Y1254726D2*
X933757D1*
X1073810D2*
X1165579D1*
X1292991D2*
X1448151D1*
X1502605D2*
X2506714D1*
X2659593D2*
X3848803D1*
X403165Y1239109D2*
X945752D1*
X1061814D2*
X1181203D1*
X1308615D2*
X1434895D1*
X1515892D2*
X2522308D1*
X2659593D2*
X3848803D1*
X403165Y1223492D2*
X967559D1*
X1040007D2*
X1196829D1*
X1324240D2*
X1424499D1*
X1526259D2*
X2537933D1*
X2659593D2*
X3488013D1*
X3552802D2*
X3848803D1*
X403165Y1207875D2*
X1212423D1*
X1339865D2*
X1420346D1*
X1530411D2*
X2548883D1*
X2659593D2*
X3462946D1*
X3577870D2*
X3848803D1*
X403165Y1192259D2*
X1228049D1*
X1355459D2*
X1420930D1*
X1529857D2*
X2548883D1*
X2659593D2*
X3449474D1*
X3591341D2*
X3848803D1*
X403165Y1176642D2*
X1243673D1*
X1371084D2*
X1426375D1*
X1524382D2*
X2548883D1*
X2659593D2*
X3441323D1*
X3599492D2*
X3848803D1*
X403165Y1161025D2*
X1259268D1*
X1386710D2*
X1438986D1*
X1511802D2*
X2548883D1*
X2659593D2*
X3436864D1*
X3603953D2*
X3848803D1*
X403165Y1145408D2*
X1274892D1*
X1402335D2*
X3435510D1*
X3605276D2*
X3848803D1*
X403165Y1129791D2*
X1290517D1*
X2895783D2*
X3437140D1*
X3603676D2*
X3848803D1*
X403165Y1114175D2*
X1306142D1*
X2911008D2*
X3441877D1*
X3598938D2*
X3848803D1*
X403165Y1098558D2*
X1321736D1*
X2916391D2*
X3450428D1*
X3590388D2*
X3848803D1*
X403165Y1082941D2*
X1337362D1*
X2915837D2*
X3464514D1*
X3576301D2*
X3848803D1*
X403165Y1067324D2*
X1352987D1*
X2909071D2*
X3491735D1*
X3549080D2*
X3848803D1*
X403165Y1051707D2*
X1373287D1*
X2889755D2*
X3848803D1*
X403165Y1036091D2*
X3848803D1*
X403165Y1020474D2*
X3848803D1*
X403165Y1004857D2*
X3848803D1*
X403165Y989240D2*
X3848803D1*
X403165Y973623D2*
X3848803D1*
X403165Y958007D2*
X3848803D1*
X403165Y942390D2*
X3848803D1*
X403165Y926773D2*
X3848803D1*
X403165Y911156D2*
X3848803D1*
X403165Y895539D2*
X3848803D1*
X403165Y879923D2*
X3848803D1*
X403165Y864306D2*
X3848803D1*
X403165Y848689D2*
X3848803D1*
X403165Y833072D2*
X3848803D1*
X403165Y817455D2*
X3848803D1*
X403165Y801839D2*
X3848803D1*
X403165Y786222D2*
X3848803D1*
X403165Y770605D2*
X3848803D1*
X403165Y754988D2*
X3848803D1*
X403165Y739371D2*
X3848803D1*
X403165Y723755D2*
X3848803D1*
X403165Y708138D2*
X586101D1*
X632434D2*
X3617597D1*
X3663930D2*
X3848803D1*
X403165Y692521D2*
X544486D1*
X674050D2*
X3575982D1*
X3705546D2*
X3848803D1*
X403165Y676904D2*
X523816D1*
X694719D2*
X3555312D1*
X3726215D2*
X3848803D1*
X403165Y661287D2*
X509790D1*
X708744D2*
X3541286D1*
X3740240D2*
X3848803D1*
X403165Y645671D2*
X499764D1*
X718772D2*
X3531260D1*
X3750268D2*
X3848803D1*
X403165Y630054D2*
X492689D1*
X725846D2*
X3524185D1*
X3757343D2*
X3848803D1*
X403165Y614437D2*
X488045D1*
X730491D2*
X3519541D1*
X3761987D2*
X3848803D1*
X403165Y598820D2*
X485552D1*
X732982D2*
X3517049D1*
X3764478D2*
X3848803D1*
X403165Y583203D2*
X485092D1*
X733444D2*
X3516588D1*
X3764940D2*
X3848803D1*
X403165Y567587D2*
X486630D1*
X731906D2*
X3518126D1*
X3763402D2*
X3848803D1*
X403165Y551970D2*
X490228D1*
X728307D2*
X3521724D1*
X3759803D2*
X3848803D1*
X403165Y536353D2*
X496134D1*
X722402D2*
X3527630D1*
X3753898D2*
X3848803D1*
X403165Y520736D2*
X504685D1*
X713850D2*
X3536181D1*
X3745346D2*
X3848803D1*
X403165Y505119D2*
X516680D1*
X701854D2*
X3548176D1*
X3733350D2*
X3848803D1*
X403165Y489503D2*
X533720D1*
X684815D2*
X3565217D1*
X3716311D2*
X3848803D1*
X403165Y473886D2*
X561125D1*
X657409D2*
X3592621D1*
X3688906D2*
X3848803D1*
X403165Y458269D2*
X3848803D1*
X403165Y442652D2*
X3848803D1*
X403165Y427035D2*
X3848803D1*
X403165Y411419D2*
X3848803D1*
X1484281Y3207999D2*
X1483748Y3201726D1*
X1482510Y3195552D1*
X1480587Y3189558D1*
X1477997Y3183819D1*
X1474778Y3178408D1*
X1470970Y3173395D1*
X1466619Y3168844D1*
X1461785Y3164811D1*
X1456526Y3161350D1*
X1450909Y3158504D1*
X1445009Y3156308D1*
X1438898Y3154794D1*
X1432656Y3153976D1*
X1426361Y3153869D1*
X1420093Y3154471D1*
X1413934Y3155777D1*
X1407962Y3157768D1*
X1402252Y3160421D1*
X1396878Y3163699D1*
X1391907Y3167564D1*
X1387404Y3171965D1*
X1383427Y3176844D1*
X1380024Y3182142D1*
X1377240Y3187789D1*
X1375110Y3193713D1*
X1373663Y3199840D1*
X1372916Y3206092D1*
X1372878Y3212387D1*
X1373550Y3218647D1*
X1374924Y3224791D1*
X1376982Y3230741D1*
X1379698Y3236421D1*
X1383037Y3241759D1*
X1386957Y3246686D1*
X1391406Y3251140D1*
X1396329Y3255064D1*
X1401664Y3258407D1*
X1407343Y3261127D1*
X1413290Y3263190D1*
X1419433Y3264570D1*
X1425693Y3265248D1*
X1431988Y3265215D1*
X1438240Y3264474D1*
X1444369Y3263031D1*
X1450295Y3260908D1*
X1455945Y3258129D1*
X1461245Y3254731D1*
X1466129Y3250757D1*
X1470533Y3246259D1*
X1474402Y3241291D1*
X1477685Y3235920D1*
X1480343Y3230211D1*
X1482339Y3224241D1*
X1483650Y3218083D1*
X1484259Y3211816D1*
X1484281Y3207999D1*
X1380681Y3065322D2*
X1484303D1*
Y2953825D1*
X1472522D1*
X1472492Y2768579D1*
X1471951Y2761706D1*
X1470341Y2755001D1*
X1467703Y2748631D1*
X1464101Y2742753D1*
X1459613Y2737501D1*
X1342625Y2620703D1*
X1337046Y2616651D1*
X1330903Y2613520D1*
X1324346Y2611390D1*
X1317537Y2610311D1*
X1290467Y2610176D1*
X1047696D1*
X1047723Y2116004D1*
X1083156Y2115999D1*
Y1957259D1*
X1047693D1*
X1047723Y1498458D1*
X1409917Y1136236D1*
X2871331Y1136217D1*
X2878203Y1135676D1*
X2884908Y1134066D1*
X2891278Y1131428D1*
X2897156Y1127825D1*
X2902399Y1123348D1*
X2906877Y1118105D1*
X2910479Y1112227D1*
X2913117Y1105857D1*
X2914727Y1099152D1*
X2915268Y1092280D1*
X2914727Y1085407D1*
X2913117Y1078702D1*
X2910479Y1072332D1*
X2906877Y1066454D1*
X2902399Y1061211D1*
X2897156Y1056734D1*
X2891278Y1053131D1*
X2884908Y1050493D1*
X2878203Y1048883D1*
X2871331Y1048343D1*
X1388290Y1048478D1*
X1381480Y1049556D1*
X1374924Y1051686D1*
X1368781Y1054818D1*
X1363202Y1058870D1*
X1343966Y1077915D1*
X970377Y1451696D1*
X966324Y1457274D1*
X963193Y1463417D1*
X961063Y1469974D1*
X959984Y1476783D1*
X959849Y1503853D1*
Y1957255D1*
X924416Y1957259D1*
Y2115999D1*
X959819D1*
X959849Y2610171D1*
X623504Y2610311D1*
X616694Y2611390D1*
X610138Y2613520D1*
X603995Y2616651D1*
X598416Y2620703D1*
X579180Y2639748D1*
X569917Y2649202D1*
X565865Y2654781D1*
X562734Y2660924D1*
X560604Y2667480D1*
X559525Y2674290D1*
X559390Y2694808D1*
X551516Y2694824D1*
Y2814194D1*
X640499D1*
X640585Y3103516D1*
X641325Y3108190D1*
X642787Y3112690D1*
X644936Y3116907D1*
X647718Y3120735D1*
X672951Y3146100D1*
X676550Y3149173D1*
X680585Y3151646D1*
X684957Y3153457D1*
X689559Y3154560D1*
X694286Y3154932D1*
X981954D1*
X1011827Y3184835D1*
X1011823Y3253677D1*
X1123319D1*
Y3142181D1*
X1054453D1*
X1014001Y3101843D1*
X1010173Y3099060D1*
X1005957Y3096912D1*
X1001457Y3095450D1*
X996782Y3094710D1*
X947172Y3094617D1*
X706738D1*
X700787Y3088638D1*
X700807Y2804490D1*
X704310Y2801770D1*
X709638Y2805760D1*
X715108Y2808875D1*
X720915Y2811306D1*
X726974Y2813013D1*
X733196Y2813974D1*
X739488Y2814172D1*
X745757Y2813606D1*
X751912Y2812283D1*
X757862Y2810224D1*
X763517Y2807459D1*
X768795Y2804029D1*
X771647Y2801781D1*
X775146Y2804503D1*
X775231Y2976672D1*
X775971Y2981346D1*
X777433Y2985846D1*
X779581Y2990063D1*
X782364Y2993891D1*
X807594Y3019253D1*
X811193Y3022327D1*
X815227Y3024799D1*
X819600Y3026610D1*
X824201Y3027715D1*
X828919Y3028087D1*
X1020694D1*
X1025180Y3034135D1*
X1031365Y3040320D1*
X1038442Y3045462D1*
X1046238Y3049433D1*
X1054556Y3052136D1*
X1063197Y3053505D1*
X1071945D1*
X1080585Y3052136D1*
X1088904Y3049433D1*
X1096699Y3045462D1*
X1103777Y3040320D1*
X1109962Y3034135D1*
X1115104Y3027058D1*
X1119075Y3019262D1*
X1121778Y3010944D1*
X1123147Y3002303D1*
Y2993555D1*
X1121778Y2984915D1*
X1119075Y2976596D1*
X1115104Y2968801D1*
X1109962Y2961723D1*
X1103777Y2955538D1*
X1096699Y2950396D1*
X1088904Y2946425D1*
X1080585Y2943722D1*
X1071945Y2942353D1*
X1063197D1*
X1054556Y2943722D1*
X1046238Y2946425D1*
X1038442Y2950396D1*
X1031365Y2955538D1*
X1025180Y2961723D1*
X1020731Y2967762D1*
X841408Y2967772D1*
X835432Y2961794D1*
X835453Y2804492D1*
X838955Y2801770D1*
X844283Y2805760D1*
X849753Y2808875D1*
X855560Y2811306D1*
X861619Y2813013D1*
X867841Y2813974D1*
X874134Y2814172D1*
X880403Y2813606D1*
X886558Y2812283D1*
X892508Y2810224D1*
X898163Y2807459D1*
X903441Y2804029D1*
X908264Y2799983D1*
X912562Y2795382D1*
X916269Y2790294D1*
X919332Y2784794D1*
X921705Y2778963D1*
X923353Y2772887D1*
X924252Y2766656D1*
X924429Y2757659D1*
X924214Y2741917D1*
X923261Y2735694D1*
X921560Y2729634D1*
X919136Y2723823D1*
X916026Y2718349D1*
X912276Y2713294D1*
X907940Y2708730D1*
X903081Y2704726D1*
X897774Y2701341D1*
X892094Y2698625D1*
X890609Y2698049D1*
X1295894Y2698050D1*
X1384612Y2786772D1*
X1384618Y2953833D1*
X1372807Y2953825D1*
Y3065322D1*
X1380681D1*
X2718238Y3196268D2*
X2717705Y3189995D1*
X2716467Y3183822D1*
X2714543Y3177827D1*
X2711954Y3172088D1*
X2708735Y3166677D1*
X2704927Y3161664D1*
X2700576Y3157113D1*
X2695741Y3153080D1*
X2690483Y3149619D1*
X2684866Y3146773D1*
X2678966Y3144577D1*
X2672854Y3143063D1*
X2666613Y3142245D1*
X2660318Y3142138D1*
X2654050Y3142740D1*
X2647891Y3144046D1*
X2641919Y3146037D1*
X2636209Y3148690D1*
X2630835Y3151969D1*
X2625864Y3155833D1*
X2621361Y3160234D1*
X2617383Y3165113D1*
X2613980Y3170411D1*
X2611197Y3176058D1*
X2609067Y3181982D1*
X2607619Y3188109D1*
X2606873Y3194361D1*
X2606835Y3200656D1*
X2607507Y3206916D1*
X2608881Y3213060D1*
X2610938Y3219010D1*
X2613655Y3224690D1*
X2616993Y3230028D1*
X2620913Y3234955D1*
X2625362Y3239409D1*
X2630286Y3243333D1*
X2635621Y3246676D1*
X2641299Y3249396D1*
X2647247Y3251459D1*
X2653390Y3252839D1*
X2659650Y3253517D1*
X2665945Y3253484D1*
X2672197Y3252743D1*
X2678325Y3251301D1*
X2684252Y3249177D1*
X2689902Y3246398D1*
X2695202Y3243000D1*
X2700085Y3239026D1*
X2704490Y3234528D1*
X2708358Y3229560D1*
X2711642Y3224189D1*
X2714299Y3218480D1*
X2716295Y3212510D1*
X2717606Y3206352D1*
X2718215Y3200085D1*
X2718238Y3196268D1*
X2614638Y3053591D2*
X2718260D1*
Y2942094D1*
X2649392D1*
X2563499Y2856180D1*
X2563518Y2713518D1*
X2568524Y2711963D1*
X2572740Y2709815D1*
X2576568Y2707033D1*
X2579915Y2703686D1*
X2582697Y2699858D1*
X2584845Y2695642D1*
X2586307Y2691142D1*
X2587047Y2686467D1*
X2587140Y2652390D1*
X2591673Y2653715D1*
X2600009Y2655035D1*
X2608448D1*
X2616783Y2653715D1*
X2624808Y2651108D1*
X2632328Y2647276D1*
X2639155Y2642315D1*
X2645122Y2636348D1*
X2650083Y2629521D1*
X2653915Y2622001D1*
X2656522Y2613976D1*
X2657843Y2605640D1*
Y2597202D1*
X2656522Y2588866D1*
X2653915Y2580841D1*
X2650083Y2573322D1*
X2645122Y2566495D1*
X2639155Y2560528D1*
X2632328Y2555567D1*
X2624808Y2551735D1*
X2623988Y2551433D1*
X2628644Y2549339D1*
X2635839Y2544930D1*
X2642256Y2539449D1*
X2647738Y2533031D1*
X2652146Y2525837D1*
X2655375Y2518041D1*
X2657345Y2509835D1*
X2658008Y2501421D1*
X2657345Y2493008D1*
X2655375Y2484802D1*
X2652146Y2477005D1*
X2647738Y2469811D1*
X2642256Y2463394D1*
X2635839Y2457912D1*
X2628644Y2453504D1*
X2623988Y2451433D1*
X2628644Y2449339D1*
X2635839Y2444930D1*
X2642256Y2439449D1*
X2647738Y2433031D1*
X2652146Y2425837D1*
X2655375Y2418041D1*
X2657345Y2409835D1*
X2658008Y2401421D1*
X2657345Y2393008D1*
X2655375Y2384802D1*
X2652146Y2377005D1*
X2647738Y2369811D1*
X2642256Y2363394D1*
X2635839Y2357912D1*
X2628644Y2353504D1*
X2623988Y2351433D1*
X2628644Y2349339D1*
X2635839Y2344930D1*
X2642256Y2339449D1*
X2647738Y2333031D1*
X2648699Y2331592D1*
X2675589Y2331486D1*
X2680264Y2330745D1*
X2684764Y2329283D1*
X2688980Y2327135D1*
X2692808Y2324353D1*
X2727954Y2289340D1*
X2819539Y2197753D1*
X2819585Y2205664D1*
X2820906Y2214000D1*
X2823513Y2222025D1*
X2827345Y2229545D1*
X2832306Y2236371D1*
X2838273Y2242339D1*
X2845100Y2247299D1*
X2852619Y2251131D1*
X2853440Y2251433D1*
X2848783Y2253528D1*
X2841589Y2257936D1*
X2835172Y2263417D1*
X2829690Y2269835D1*
X2825282Y2277029D1*
X2822052Y2284825D1*
X2820083Y2293031D1*
X2819420Y2301445D1*
X2820083Y2309858D1*
X2822052Y2318064D1*
X2825282Y2325861D1*
X2829690Y2333055D1*
X2835172Y2339472D1*
X2841589Y2344954D1*
X2845748Y2347663D1*
X2819420Y2347665D1*
Y2455224D1*
X2926979D1*
Y2347665D1*
X2900681D1*
X2904810Y2344954D1*
X2911227Y2339472D1*
X2916709Y2333055D1*
X2921117Y2325861D1*
X2924346Y2318064D1*
X2926316Y2309858D1*
X2926979Y2301445D1*
X2926316Y2293031D1*
X2924346Y2284825D1*
X2921117Y2277029D1*
X2916709Y2269835D1*
X2911227Y2263417D1*
X2904810Y2257936D1*
X2897615Y2253528D1*
X2892959Y2251457D1*
X2897615Y2249362D1*
X2904810Y2244954D1*
X2911227Y2239472D1*
X2916709Y2233055D1*
X2921117Y2225861D1*
X2924346Y2218064D1*
X2926316Y2209858D1*
X2926979Y2201445D1*
X2926316Y2193031D1*
X2924346Y2184825D1*
X2921117Y2177029D1*
X2916709Y2169835D1*
X2911227Y2163417D1*
X2904810Y2157936D1*
X2897615Y2153528D1*
X2892959Y2151457D1*
X2897615Y2149362D1*
X2904810Y2144954D1*
X2911227Y2139472D1*
X2916709Y2133055D1*
X2921117Y2125861D1*
X2924346Y2118064D1*
X2926316Y2109858D1*
X2926979Y2101445D1*
X2926316Y2093031D1*
X2924346Y2084825D1*
X2921117Y2077029D1*
X2916709Y2069835D1*
X2911227Y2063417D1*
X2904810Y2057936D1*
X2897615Y2053528D1*
X2892959Y2051457D1*
X2897615Y2049362D1*
X2904810Y2044954D1*
X2911227Y2039472D1*
X2916709Y2033055D1*
X2921117Y2025861D1*
X2924346Y2018064D1*
X2926316Y2009858D1*
X2926979Y2001445D1*
X2926316Y1993031D1*
X2924346Y1984825D1*
X2921117Y1977029D1*
X2916709Y1969835D1*
X2911227Y1963417D1*
X2904810Y1957936D1*
X2897615Y1953528D1*
X2892959Y1951457D1*
X2897615Y1949362D1*
X2904810Y1944954D1*
X2911227Y1939472D1*
X2916709Y1933055D1*
X2921117Y1925861D1*
X2924346Y1918064D1*
X2926316Y1909858D1*
X2926979Y1901445D1*
X2926316Y1893031D1*
X2924346Y1884825D1*
X2921117Y1877029D1*
X2916709Y1869835D1*
X2911227Y1863417D1*
X2904810Y1857936D1*
X2897615Y1853528D1*
X2892959Y1851457D1*
X2897615Y1849362D1*
X2904810Y1844954D1*
X2911227Y1839472D1*
X2916709Y1833055D1*
X2921117Y1825861D1*
X2924346Y1818064D1*
X2926316Y1809858D1*
X2926979Y1801445D1*
X2926316Y1793031D1*
X2925979Y1791333D1*
X2998327Y1718835D1*
X3001109Y1715007D1*
X3003257Y1710790D1*
X3004719Y1706290D1*
X3005459Y1701615D1*
X3005552Y1652005D1*
Y1559824D1*
X3007528Y1556432D1*
X3009693Y1551203D1*
X3011014Y1545701D1*
X3011458Y1540059D1*
X3011014Y1534417D1*
X3009693Y1528915D1*
X3007528Y1523686D1*
X3004571Y1518862D1*
X3000895Y1514559D1*
X2996592Y1510883D1*
X2991768Y1507927D1*
X2986539Y1505761D1*
X2981037Y1504440D1*
X2975395Y1503996D1*
X2969753Y1504440D1*
X2964251Y1505761D1*
X2959022Y1507927D1*
X2954198Y1510883D1*
X2949895Y1514559D1*
X2946219Y1518862D1*
X2943262Y1523686D1*
X2941097Y1528915D1*
X2939776Y1534417D1*
X2939332Y1540059D1*
X2939776Y1545701D1*
X2941097Y1551203D1*
X2943262Y1556432D1*
X2945243Y1559794D1*
X2945238Y1686743D1*
X2926862Y1705133D1*
X2926814Y1697226D1*
X2925493Y1688890D1*
X2922886Y1680865D1*
X2919054Y1673345D1*
X2914093Y1666518D1*
X2908126Y1660551D1*
X2901299Y1655591D1*
X2893780Y1651759D1*
X2892959Y1651457D1*
X2897615Y1649362D1*
X2904810Y1644954D1*
X2911227Y1639472D1*
X2916709Y1633055D1*
X2921117Y1625861D1*
X2924346Y1618064D1*
X2926316Y1609858D1*
X2926979Y1601445D1*
X2926316Y1593031D1*
X2924346Y1584825D1*
X2921117Y1577029D1*
X2916709Y1569835D1*
X2911227Y1563417D1*
X2904810Y1557936D1*
X2897615Y1553528D1*
X2889819Y1550298D1*
X2881613Y1548328D1*
X2873199Y1547665D1*
X2864786Y1548328D1*
X2856580Y1550298D1*
X2848783Y1553528D1*
X2841589Y1557936D1*
X2835172Y1563417D1*
X2829690Y1569835D1*
X2825282Y1577029D1*
X2822052Y1584825D1*
X2820083Y1593031D1*
X2819420Y1601445D1*
X2820083Y1609858D1*
X2822052Y1618064D1*
X2825282Y1625861D1*
X2829690Y1633055D1*
X2835172Y1639472D1*
X2841589Y1644954D1*
X2848783Y1649362D1*
X2853440Y1651433D1*
X2848783Y1653528D1*
X2841589Y1657936D1*
X2835172Y1663417D1*
X2829690Y1669835D1*
X2825282Y1677029D1*
X2822052Y1684825D1*
X2820083Y1693031D1*
X2819420Y1701445D1*
X2820083Y1709858D1*
X2822052Y1718064D1*
X2825282Y1725861D1*
X2829690Y1733055D1*
X2835172Y1739472D1*
X2841589Y1744954D1*
X2848783Y1749362D1*
X2853440Y1751433D1*
X2848783Y1753528D1*
X2841589Y1757936D1*
X2835172Y1763417D1*
X2829690Y1769835D1*
X2825282Y1777029D1*
X2822052Y1784825D1*
X2820083Y1793031D1*
X2819420Y1801445D1*
X2820083Y1809858D1*
X2822052Y1818064D1*
X2825282Y1825861D1*
X2829690Y1833055D1*
X2835172Y1839472D1*
X2841589Y1844954D1*
X2848783Y1849362D1*
X2853440Y1851433D1*
X2848783Y1853528D1*
X2841589Y1857936D1*
X2835172Y1863417D1*
X2829690Y1869835D1*
X2828728Y1871274D1*
X2800887Y1871287D1*
X2800861Y1590239D1*
X2802836Y1586844D1*
X2805001Y1581615D1*
X2806323Y1576113D1*
X2806766Y1570471D1*
X2806323Y1564829D1*
X2805001Y1559327D1*
X2802836Y1554098D1*
X2799879Y1549274D1*
X2796203Y1544971D1*
X2791900Y1541295D1*
X2787076Y1538339D1*
X2781848Y1536173D1*
X2776345Y1534852D1*
X2770703Y1534408D1*
X2765062Y1534852D1*
X2759559Y1536173D1*
X2754331Y1538339D1*
X2749507Y1541295D1*
X2745203Y1544971D1*
X2741528Y1549274D1*
X2738571Y1554098D1*
X2736406Y1559327D1*
X2735084Y1564829D1*
X2734640Y1570471D1*
X2735084Y1576113D1*
X2736406Y1581615D1*
X2738571Y1586844D1*
X2740551Y1590206D1*
X2740639Y1890556D1*
X2741379Y1895231D1*
X2742841Y1899731D1*
X2744990Y1903948D1*
X2747772Y1907776D1*
X2762634Y1922769D1*
X2766232Y1925843D1*
X2770266Y1928315D1*
X2774639Y1930126D1*
X2779240Y1931231D1*
X2783967Y1931602D1*
X2828650D1*
X2832306Y1936371D1*
X2838273Y1942339D1*
X2845100Y1947299D1*
X2852619Y1951131D1*
X2853440Y1951433D1*
X2848783Y1953528D1*
X2841589Y1957936D1*
X2835172Y1963417D1*
X2829690Y1969835D1*
X2825282Y1977029D1*
X2822052Y1984825D1*
X2820083Y1993031D1*
X2819420Y2001445D1*
X2820083Y2009858D1*
X2820420Y2011556D1*
X2660722Y2171273D1*
X2648770Y2171264D1*
X2645122Y2166495D1*
X2639155Y2160528D1*
X2632328Y2155567D1*
X2624808Y2151735D1*
X2623988Y2151433D1*
X2628644Y2149339D1*
X2635839Y2144930D1*
X2642256Y2139449D1*
X2647738Y2133031D1*
X2652146Y2125837D1*
X2655375Y2118041D1*
X2657345Y2109835D1*
X2658008Y2101421D1*
X2657345Y2093008D1*
X2655375Y2084802D1*
X2652146Y2077005D1*
X2647738Y2069811D1*
X2642256Y2063394D1*
X2635839Y2057912D1*
X2628644Y2053504D1*
X2623988Y2051433D1*
X2630008Y2048619D1*
X2635346Y2045283D1*
X2640259Y2041346D1*
X2644678Y2036862D1*
X2648542Y2031892D1*
X2651799Y2026505D1*
X2654406Y2020774D1*
X2656323Y2014777D1*
X2657526Y2008598D1*
X2658008Y2001421D1*
X2657639Y1995136D1*
X2656539Y1988938D1*
X2654722Y1982911D1*
X2652213Y1977136D1*
X2649046Y1971696D1*
X2645265Y1966661D1*
X2640921Y1962104D1*
X2636075Y1958085D1*
X2630793Y1954660D1*
X2625146Y1951877D1*
X2624022Y1951421D1*
X2628644Y1949339D1*
X2635839Y1944930D1*
X2642256Y1939449D1*
X2647738Y1933031D1*
X2652146Y1925837D1*
X2655375Y1918041D1*
X2657345Y1909835D1*
X2658008Y1901421D1*
X2657345Y1893008D1*
X2655375Y1884802D1*
X2652146Y1877005D1*
X2647738Y1869811D1*
X2642256Y1863394D1*
X2635839Y1857912D1*
X2628644Y1853504D1*
X2623988Y1851433D1*
X2628644Y1849339D1*
X2635839Y1844930D1*
X2642256Y1839449D1*
X2647738Y1833031D1*
X2652146Y1825837D1*
X2655375Y1818041D1*
X2657345Y1809835D1*
X2658008Y1801421D1*
X2657345Y1793008D1*
X2655375Y1784802D1*
X2652146Y1777005D1*
X2647738Y1769811D1*
X2642256Y1763394D1*
X2635839Y1757912D1*
X2628644Y1753504D1*
X2623988Y1751433D1*
X2628644Y1749339D1*
X2635839Y1744930D1*
X2642256Y1739449D1*
X2647738Y1733031D1*
X2652146Y1725837D1*
X2655375Y1718041D1*
X2657345Y1709835D1*
X2658008Y1701421D1*
X2657345Y1693008D1*
X2655375Y1684802D1*
X2652146Y1677005D1*
X2647738Y1669811D1*
X2642256Y1663394D1*
X2635839Y1657912D1*
X2628644Y1653504D1*
X2623988Y1651433D1*
X2628644Y1649339D1*
X2635839Y1644930D1*
X2642256Y1639449D1*
X2647738Y1633031D1*
X2652146Y1625837D1*
X2655375Y1618041D1*
X2657345Y1609835D1*
X2658008Y1601421D1*
X2657345Y1593008D1*
X2655375Y1584802D1*
X2652146Y1577005D1*
X2647738Y1569811D1*
X2642256Y1563394D1*
X2635839Y1557912D1*
X2628644Y1553504D1*
X2623988Y1551433D1*
X2628644Y1549339D1*
X2635839Y1544930D1*
X2642256Y1539449D1*
X2647738Y1533031D1*
X2652146Y1525837D1*
X2655375Y1518041D1*
X2657345Y1509835D1*
X2658008Y1501421D1*
X2657345Y1493008D1*
X2655375Y1484802D1*
X2652146Y1477005D1*
X2647738Y1469811D1*
X2642256Y1463394D1*
X2635839Y1457912D1*
X2628644Y1453504D1*
X2623988Y1451433D1*
X2628644Y1449339D1*
X2635839Y1444930D1*
X2642256Y1439449D1*
X2647738Y1433031D1*
X2652146Y1425837D1*
X2655375Y1418041D1*
X2657345Y1409835D1*
X2658008Y1401421D1*
X2657345Y1393008D1*
X2655375Y1384802D1*
X2652146Y1377005D1*
X2647738Y1369811D1*
X2642256Y1363394D1*
X2635839Y1357912D1*
X2628644Y1353504D1*
X2623988Y1351433D1*
X2630008Y1348619D1*
X2635346Y1345283D1*
X2640259Y1341346D1*
X2644678Y1336862D1*
X2648542Y1331892D1*
X2651799Y1326505D1*
X2654406Y1320774D1*
X2656323Y1314777D1*
X2657526Y1308598D1*
X2658008Y1301421D1*
X2657639Y1295136D1*
X2656539Y1288938D1*
X2654722Y1282911D1*
X2652213Y1277136D1*
X2649046Y1271696D1*
X2645265Y1266661D1*
X2640921Y1262104D1*
X2636075Y1258085D1*
X2631710Y1255199D1*
X2658008Y1255201D1*
Y1147642D1*
X2550449D1*
Y1212571D1*
X2403673Y1359459D1*
X2400891Y1363287D1*
X2398743Y1367504D1*
X2397281Y1372004D1*
X2396541Y1376678D1*
X2396448Y1426289D1*
Y2119110D1*
X1526353Y2119085D1*
X1527677Y2114552D1*
X1528997Y2106217D1*
Y2097778D1*
X1527677Y2089442D1*
X1525070Y2081417D1*
X1521238Y2073898D1*
X1516277Y2067071D1*
X1510310Y2061104D1*
X1503483Y2056143D1*
X1495963Y2052311D1*
X1495143Y2052009D1*
X1499799Y2049915D1*
X1506993Y2045507D1*
X1513411Y2040025D1*
X1518892Y2033608D1*
X1523301Y2026413D1*
X1526530Y2018617D1*
X1528500Y2010411D1*
X1529163Y2001997D1*
X1528500Y1993584D1*
X1526530Y1985378D1*
X1523301Y1977581D1*
X1518892Y1970387D1*
X1513411Y1963970D1*
X1506993Y1958488D1*
X1499799Y1954080D1*
X1495143Y1952009D1*
X1501163Y1949196D1*
X1506501Y1945860D1*
X1511413Y1941923D1*
X1515833Y1937438D1*
X1519697Y1932469D1*
X1522954Y1927081D1*
X1525560Y1921350D1*
X1527478Y1915353D1*
X1528681Y1909175D1*
X1529163Y1901997D1*
X1528794Y1895713D1*
X1527694Y1889514D1*
X1525877Y1883487D1*
X1523367Y1877713D1*
X1520201Y1872272D1*
X1516420Y1867238D1*
X1512076Y1862680D1*
X1507230Y1858661D1*
X1501948Y1855236D1*
X1496301Y1852453D1*
X1495177Y1851997D1*
X1499799Y1849915D1*
X1506993Y1845507D1*
X1513411Y1840025D1*
X1518892Y1833608D1*
X1523301Y1826413D1*
X1526530Y1818617D1*
X1528500Y1810411D1*
X1529163Y1801997D1*
X1528500Y1793584D1*
X1526530Y1785378D1*
X1523301Y1777581D1*
X1518892Y1770387D1*
X1513411Y1763970D1*
X1506993Y1758488D1*
X1499799Y1754080D1*
X1495143Y1752009D1*
X1501163Y1749196D1*
X1506501Y1745860D1*
X1511413Y1741923D1*
X1515833Y1737438D1*
X1519697Y1732469D1*
X1522954Y1727081D1*
X1525560Y1721350D1*
X1527478Y1715353D1*
X1528681Y1709175D1*
X1529163Y1701997D1*
X1528794Y1695713D1*
X1527694Y1689514D1*
X1525877Y1683487D1*
X1523367Y1677713D1*
X1520201Y1672272D1*
X1516420Y1667238D1*
X1512076Y1662680D1*
X1507230Y1658661D1*
X1501948Y1655236D1*
X1496301Y1652453D1*
X1495177Y1651997D1*
X1499799Y1649915D1*
X1506993Y1645507D1*
X1513411Y1640025D1*
X1518892Y1633608D1*
X1523301Y1626413D1*
X1526530Y1618617D1*
X1528500Y1610411D1*
X1529163Y1601997D1*
X1528500Y1593584D1*
X1526530Y1585378D1*
X1523301Y1577581D1*
X1518892Y1570387D1*
X1513411Y1563970D1*
X1506993Y1558488D1*
X1499799Y1554080D1*
X1495143Y1552009D1*
X1499799Y1549915D1*
X1506993Y1545507D1*
X1513411Y1540025D1*
X1518892Y1533608D1*
X1523301Y1526413D1*
X1526530Y1518617D1*
X1528500Y1510411D1*
X1529163Y1501997D1*
X1528500Y1493584D1*
X1526530Y1485378D1*
X1523301Y1477581D1*
X1518892Y1470387D1*
X1513411Y1463970D1*
X1506993Y1458488D1*
X1499799Y1454080D1*
X1495143Y1452009D1*
X1499799Y1449915D1*
X1506993Y1445507D1*
X1513411Y1440025D1*
X1518892Y1433608D1*
X1523301Y1426413D1*
X1526530Y1418617D1*
X1528500Y1410411D1*
X1529163Y1401997D1*
X1528500Y1393584D1*
X1526530Y1385378D1*
X1523301Y1377581D1*
X1518892Y1370387D1*
X1513411Y1363970D1*
X1506993Y1358488D1*
X1499799Y1354080D1*
X1495143Y1352009D1*
X1501163Y1349196D1*
X1506501Y1345860D1*
X1511413Y1341923D1*
X1515833Y1337438D1*
X1519697Y1332469D1*
X1522954Y1327081D1*
X1525560Y1321350D1*
X1527478Y1315353D1*
X1528681Y1309175D1*
X1529163Y1301997D1*
X1528794Y1295713D1*
X1527694Y1289514D1*
X1525877Y1283487D1*
X1523367Y1277713D1*
X1520201Y1272272D1*
X1516420Y1267238D1*
X1512076Y1262680D1*
X1507230Y1258661D1*
X1501948Y1255236D1*
X1496301Y1252453D1*
X1495177Y1251997D1*
X1499799Y1249915D1*
X1506993Y1245507D1*
X1513411Y1240025D1*
X1518892Y1233608D1*
X1523301Y1226413D1*
X1526530Y1218617D1*
X1528500Y1210411D1*
X1529163Y1201997D1*
X1528500Y1193584D1*
X1526530Y1185378D1*
X1523301Y1177581D1*
X1518892Y1170387D1*
X1513411Y1163970D1*
X1506993Y1158488D1*
X1499799Y1154080D1*
X1492003Y1150850D1*
X1483797Y1148881D1*
X1475383Y1148218D1*
X1466970Y1148881D1*
X1458764Y1150850D1*
X1450967Y1154080D1*
X1443773Y1158488D1*
X1437356Y1163970D1*
X1431874Y1170387D1*
X1427466Y1177581D1*
X1424236Y1185378D1*
X1422266Y1193584D1*
X1421604Y1201997D1*
X1422266Y1210411D1*
X1424236Y1218617D1*
X1427466Y1226413D1*
X1431874Y1233608D1*
X1437356Y1240025D1*
X1443773Y1245507D1*
X1450967Y1249915D1*
X1455623Y1251986D1*
X1449211Y1255016D1*
X1443900Y1258396D1*
X1439020Y1262374D1*
X1434639Y1266895D1*
X1430816Y1271898D1*
X1427604Y1277312D1*
X1425046Y1283064D1*
X1423178Y1289077D1*
X1422026Y1295266D1*
X1421605Y1301549D1*
X1421921Y1307836D1*
X1422970Y1314043D1*
X1424738Y1320085D1*
X1427198Y1325881D1*
X1430319Y1331348D1*
X1434058Y1336413D1*
X1438364Y1341007D1*
X1443176Y1345066D1*
X1448429Y1348534D1*
X1454052Y1351366D1*
X1455581Y1351997D1*
X1450967Y1354080D1*
X1443773Y1358488D1*
X1437356Y1363970D1*
X1431874Y1370387D1*
X1427466Y1377581D1*
X1424236Y1385378D1*
X1422266Y1393584D1*
X1421604Y1401997D1*
X1422266Y1410411D1*
X1424236Y1418617D1*
X1427466Y1426413D1*
X1431874Y1433608D1*
X1437356Y1440025D1*
X1443773Y1445507D1*
X1450967Y1449915D1*
X1455623Y1451986D1*
X1450967Y1454080D1*
X1443773Y1458488D1*
X1437356Y1463970D1*
X1431874Y1470387D1*
X1427466Y1477581D1*
X1424236Y1485378D1*
X1422266Y1493584D1*
X1421604Y1501997D1*
X1422266Y1510411D1*
X1424236Y1518617D1*
X1427466Y1526413D1*
X1431874Y1533608D1*
X1437356Y1540025D1*
X1443773Y1545507D1*
X1450967Y1549915D1*
X1455623Y1551986D1*
X1450967Y1554080D1*
X1443773Y1558488D1*
X1437356Y1563970D1*
X1431874Y1570387D1*
X1427466Y1577581D1*
X1424236Y1585378D1*
X1422266Y1593584D1*
X1421604Y1601997D1*
X1422266Y1610411D1*
X1422604Y1612109D1*
X1381583Y1653281D1*
X1378801Y1657109D1*
X1376652Y1661325D1*
X1375190Y1665825D1*
X1374450Y1670500D1*
X1374357Y1720110D1*
X1374450Y1733495D1*
X1375190Y1738169D1*
X1376652Y1742669D1*
X1378801Y1746886D1*
X1381583Y1750714D1*
X1416597Y1785860D1*
X1422577Y1791841D1*
X1421769Y1797778D1*
Y1806217D1*
X1423089Y1814552D1*
X1425697Y1822577D1*
X1429529Y1830097D1*
X1434490Y1836924D1*
X1440457Y1842891D1*
X1447283Y1847852D1*
X1454803Y1851684D1*
X1455623Y1851986D1*
X1449211Y1855016D1*
X1443900Y1858396D1*
X1439020Y1862374D1*
X1434639Y1866895D1*
X1430816Y1871898D1*
X1427604Y1877312D1*
X1425046Y1883064D1*
X1423178Y1889077D1*
X1422026Y1895266D1*
X1421605Y1901549D1*
X1421921Y1907836D1*
X1422970Y1914043D1*
X1424738Y1920085D1*
X1427198Y1925881D1*
X1430319Y1931348D1*
X1434058Y1936413D1*
X1438364Y1941007D1*
X1443176Y1945066D1*
X1448429Y1948534D1*
X1454052Y1951366D1*
X1455581Y1951997D1*
X1450967Y1954080D1*
X1443773Y1958488D1*
X1437356Y1963970D1*
X1431874Y1970387D1*
X1427466Y1977581D1*
X1424236Y1985378D1*
X1422266Y1993584D1*
X1421604Y2001997D1*
X1422266Y2010411D1*
X1424236Y2018617D1*
X1427466Y2026413D1*
X1431874Y2033608D1*
X1437356Y2040025D1*
X1443773Y2045507D1*
X1450967Y2049915D1*
X1455623Y2051986D1*
X1450967Y2054080D1*
X1443773Y2058488D1*
X1437356Y2063970D1*
X1431874Y2070387D1*
X1427466Y2077581D1*
X1424236Y2085378D1*
X1422266Y2093584D1*
X1421604Y2101997D1*
X1422266Y2110411D1*
X1424236Y2118617D1*
X1424413Y2119096D1*
X1418315Y2115925D1*
X1412933Y2114176D1*
X1407344Y2113291D1*
X1401685D1*
X1396096Y2114176D1*
X1390714Y2115925D1*
X1385672Y2118493D1*
X1381093Y2121820D1*
X1377092Y2125822D1*
X1373765Y2130400D1*
X1371197Y2135442D1*
X1369448Y2140824D1*
X1368563Y2146413D1*
Y2152072D1*
X1369448Y2157661D1*
X1371197Y2163043D1*
X1373765Y2168085D1*
X1377092Y2172664D1*
X1381093Y2176665D1*
X1385672Y2179992D1*
X1390714Y2182560D1*
X1396096Y2184310D1*
X1401685Y2185194D1*
X1407344D1*
X1412933Y2184310D1*
X1418315Y2182560D1*
X1423357Y2179992D1*
X1424249Y2179395D1*
X1425697Y2181417D1*
X1423089Y2189442D1*
X1421769Y2197778D1*
Y2206217D1*
X1423089Y2214552D1*
X1425697Y2222577D1*
X1429529Y2230097D1*
X1434490Y2236924D1*
X1440457Y2242891D1*
X1447283Y2247852D1*
X1454803Y2251684D1*
X1455623Y2251986D1*
X1450967Y2254080D1*
X1443773Y2258488D1*
X1437356Y2263970D1*
X1431874Y2270387D1*
X1427466Y2277581D1*
X1424236Y2285378D1*
X1422266Y2293584D1*
X1421604Y2301997D1*
X1422266Y2310411D1*
X1424236Y2318617D1*
X1427466Y2326413D1*
X1431874Y2333608D1*
X1437356Y2340025D1*
X1443773Y2345507D1*
X1450967Y2349915D1*
X1455623Y2351986D1*
X1450967Y2354080D1*
X1443773Y2358488D1*
X1437356Y2363970D1*
X1431874Y2370387D1*
X1427466Y2377581D1*
X1424236Y2385378D1*
X1422266Y2393584D1*
X1421604Y2401997D1*
X1422266Y2410411D1*
X1424236Y2418617D1*
X1427466Y2426413D1*
X1431874Y2433608D1*
X1437356Y2440025D1*
X1443773Y2445507D1*
X1450967Y2449915D1*
X1455623Y2451986D1*
X1450967Y2454080D1*
X1443773Y2458488D1*
X1437356Y2463970D1*
X1431874Y2470387D1*
X1427466Y2477581D1*
X1424236Y2485378D1*
X1422266Y2493584D1*
X1421604Y2501997D1*
X1422266Y2510411D1*
X1424236Y2518617D1*
X1427466Y2526413D1*
X1431874Y2533608D1*
X1437356Y2540025D1*
X1443773Y2545507D1*
X1447932Y2548215D1*
X1421604Y2548218D1*
Y2655777D1*
X1529163D1*
Y2548218D1*
X1502865D1*
X1506993Y2545507D1*
X1513411Y2540025D1*
X1518892Y2533608D1*
X1523301Y2526413D1*
X1526530Y2518617D1*
X1528500Y2510411D1*
X1529163Y2501997D1*
X1528500Y2493584D1*
X1526530Y2485378D1*
X1523301Y2477581D1*
X1518892Y2470387D1*
X1513411Y2463970D1*
X1506993Y2458488D1*
X1499799Y2454080D1*
X1495143Y2452009D1*
X1499799Y2449915D1*
X1506993Y2445507D1*
X1513411Y2440025D1*
X1518892Y2433608D1*
X1523301Y2426413D1*
X1526530Y2418617D1*
X1528500Y2410411D1*
X1529163Y2401997D1*
X1528500Y2393584D1*
X1526530Y2385378D1*
X1523301Y2377581D1*
X1518892Y2370387D1*
X1513411Y2363970D1*
X1506993Y2358488D1*
X1499799Y2354080D1*
X1495143Y2352009D1*
X1499799Y2349915D1*
X1506993Y2345507D1*
X1513411Y2340025D1*
X1518892Y2333608D1*
X1523301Y2326413D1*
X1526530Y2318617D1*
X1528500Y2310411D1*
X1529163Y2301997D1*
X1528500Y2293584D1*
X1526530Y2285378D1*
X1523301Y2277581D1*
X1518892Y2270387D1*
X1513411Y2263970D1*
X1506993Y2258488D1*
X1499799Y2254080D1*
X1495143Y2252009D1*
X1499799Y2249915D1*
X1506993Y2245507D1*
X1513411Y2240025D1*
X1518892Y2233608D1*
X1523301Y2226413D1*
X1526530Y2218617D1*
X1528500Y2210411D1*
X1529163Y2201997D1*
X1528500Y2193584D1*
X1526530Y2185378D1*
X1524136Y2179395D1*
X2396425Y2179400D1*
X2396541Y2662845D1*
X2397281Y2667520D1*
X2398743Y2672020D1*
X2400891Y2676236D1*
X2403673Y2680064D1*
X2428903Y2705425D1*
X2432501Y2708499D1*
X2436535Y2710971D1*
X2440908Y2712782D1*
X2445509Y2713887D1*
X2450236Y2714259D1*
X2503223D1*
X2503297Y2871058D1*
X2504037Y2875732D1*
X2505499Y2880232D1*
X2507647Y2884449D1*
X2510429Y2888277D1*
X2545442Y2923423D1*
X2606753Y2984734D1*
X2606764Y3053591D1*
X2614638D1*
X1082912Y1288669D2*
X1082178Y1282480D1*
X1080963Y1276367D1*
X1079272Y1270370D1*
X1077114Y1264522D1*
X1074505Y1258864D1*
X1071461Y1253425D1*
X1067997Y1248244D1*
X1064139Y1243349D1*
X1059909Y1238773D1*
X1055333Y1234543D1*
X1050438Y1230685D1*
X1045257Y1227222D1*
X1039819Y1224177D1*
X1034160Y1221568D1*
X1028312Y1219411D1*
X1022315Y1217719D1*
X1016202Y1216504D1*
X1010013Y1215770D1*
X1003786Y1215526D1*
X997559Y1215770D1*
X991370Y1216504D1*
X985257Y1217719D1*
X979260Y1219411D1*
X973412Y1221568D1*
X967753Y1224177D1*
X962315Y1227222D1*
X957134Y1230685D1*
X952239Y1234543D1*
X947663Y1238773D1*
X943433Y1243349D1*
X939575Y1248244D1*
X936112Y1253425D1*
X933067Y1258864D1*
X930458Y1264522D1*
X928301Y1270370D1*
X926609Y1276367D1*
X925394Y1282480D1*
X924660Y1288669D1*
X924416Y1294896D1*
X924660Y1301123D1*
X925394Y1307312D1*
X926609Y1313425D1*
X928301Y1319423D1*
X930458Y1325270D1*
X933067Y1330929D1*
X936112Y1336367D1*
X939575Y1341549D1*
X943433Y1346444D1*
X947663Y1351020D1*
X952239Y1355249D1*
X957134Y1359108D1*
X962315Y1362571D1*
X967753Y1365615D1*
X973412Y1368224D1*
X979260Y1370382D1*
X985257Y1372073D1*
X991370Y1373289D1*
X997559Y1374022D1*
X1003786Y1374266D1*
X1010013Y1374022D1*
X1016202Y1373289D1*
X1022315Y1372073D1*
X1028312Y1370382D1*
X1034160Y1368224D1*
X1039819Y1365615D1*
X1045257Y1362571D1*
X1050438Y1359108D1*
X1055333Y1355249D1*
X1059909Y1351020D1*
X1064139Y1346444D1*
X1067997Y1341549D1*
X1071461Y1336367D1*
X1074505Y1330929D1*
X1077114Y1325270D1*
X1079272Y1319423D1*
X1080963Y1313425D1*
X1082178Y1307312D1*
X1082912Y1301123D1*
X1083156Y1294896D1*
X1082912Y1288669D1*
X1613993Y3378252D2*
X1764860D1*
Y3219512D1*
X1606119D1*
Y3378252D1*
X1613993D1*
X2506576Y3297307D2*
X2506030Y3289455D1*
X2504709Y3281697D1*
X2502626Y3274106D1*
X2499802Y3266760D1*
X2496262Y3259730D1*
X2492046Y3253084D1*
X2487190Y3246888D1*
X2481747Y3241205D1*
X2475765Y3236088D1*
X2469307Y3231588D1*
X2462436Y3227751D1*
X2455218Y3224613D1*
X2447724Y3222206D1*
X2440029Y3220552D1*
X2432207Y3219668D1*
X2424337Y3219564D1*
X2416496Y3220240D1*
X2408760Y3221689D1*
X2401205Y3223898D1*
X2393906Y3226843D1*
X2386934Y3230496D1*
X2380360Y3234823D1*
X2374245Y3239780D1*
X2368652Y3245316D1*
X2363635Y3251381D1*
X2359243Y3257912D1*
X2355520Y3264846D1*
X2352501Y3272115D1*
X2350218Y3279648D1*
X2348692Y3287370D1*
X2347937Y3295203D1*
X2347962Y3303075D1*
X2348768Y3310904D1*
X2350344Y3318615D1*
X2352677Y3326133D1*
X2355741Y3333382D1*
X2359510Y3340293D1*
X2363945Y3346795D1*
X2369001Y3352827D1*
X2374631Y3358328D1*
X2380777Y3363244D1*
X2387381Y3367528D1*
X2394375Y3371136D1*
X2401693Y3374034D1*
X2409261Y3376193D1*
X2417007Y3377592D1*
X2424853Y3378217D1*
X2432722Y3378062D1*
X2440538Y3377127D1*
X2448222Y3375424D1*
X2455699Y3372967D1*
X2462898Y3369782D1*
X2469744Y3365900D1*
X2476172Y3361360D1*
X2482119Y3356203D1*
X2487528Y3350484D1*
X2492341Y3344259D1*
X2496516Y3337585D1*
X2500008Y3330531D1*
X2502785Y3323167D1*
X2504819Y3315564D1*
X2506089Y3307797D1*
X2506585Y3299941D1*
X2506576Y3297307D1*
X2550577Y1297720D2*
X2550517Y1304121D1*
X2551199Y1310379D1*
X2552610Y1316514D1*
X2554727Y1322444D1*
X2557524Y1328084D1*
X2560959Y1333360D1*
X2564988Y1338197D1*
X2569555Y1342530D1*
X2574597Y1346301D1*
X2580045Y1349457D1*
X2584427Y1351421D1*
X2579812Y1353504D1*
X2572618Y1357912D1*
X2566201Y1363394D1*
X2560719Y1369811D1*
X2556311Y1377005D1*
X2553081Y1384802D1*
X2551112Y1393008D1*
X2550449Y1401421D1*
X2551112Y1409835D1*
X2553081Y1418041D1*
X2556311Y1425837D1*
X2560719Y1433031D1*
X2566201Y1439449D1*
X2572618Y1444930D1*
X2579812Y1449339D1*
X2584469Y1451409D1*
X2579812Y1453504D1*
X2572618Y1457912D1*
X2566201Y1463394D1*
X2560719Y1469811D1*
X2556311Y1477005D1*
X2553081Y1484802D1*
X2551112Y1493008D1*
X2550449Y1501421D1*
X2551112Y1509835D1*
X2553081Y1518041D1*
X2556311Y1525837D1*
X2560719Y1533031D1*
X2566201Y1539449D1*
X2572618Y1544930D1*
X2579812Y1549339D1*
X2584469Y1551409D1*
X2579812Y1553504D1*
X2572618Y1557912D1*
X2566201Y1563394D1*
X2560719Y1569811D1*
X2556311Y1577005D1*
X2553081Y1584802D1*
X2551112Y1593008D1*
X2550449Y1601421D1*
X2551112Y1609835D1*
X2551449Y1611533D1*
X2504524Y1658609D1*
X2501741Y1662437D1*
X2499593Y1666654D1*
X2498131Y1671154D1*
X2497391Y1675828D1*
X2497298Y1725438D1*
Y2628890D1*
X2494138Y2634867D1*
X2492388Y2640249D1*
X2491504Y2645839D1*
Y2651497D1*
X2491794Y2653948D1*
X2462710Y2653944D1*
X2456783Y2648009D1*
X2456762Y1391522D1*
X2550563Y1297735D1*
X542701Y2110751D2*
X701441D1*
Y1944136D1*
X534827D1*
Y2110751D1*
X542701D1*
X701427Y1829018D2*
X700906Y1821164D1*
X699647Y1813395D1*
X697659Y1805778D1*
X694962Y1798385D1*
X691580Y1791277D1*
X687542Y1784521D1*
X682883Y1778176D1*
X677647Y1772299D1*
X671881Y1766942D1*
X665633Y1762154D1*
X658962Y1757976D1*
X651927Y1754448D1*
X644589Y1751598D1*
X637016Y1749454D1*
X629274Y1748034D1*
X621432Y1747352D1*
X613562Y1747412D1*
X605731Y1748214D1*
X598012Y1749753D1*
X590472Y1752013D1*
X583180Y1754974D1*
X576199Y1758610D1*
X569593Y1762890D1*
X563420Y1767773D1*
X557735Y1773217D1*
X552589Y1779173D1*
X548029Y1785589D1*
X544094Y1792406D1*
X540822Y1799564D1*
X538238Y1806999D1*
X536367Y1814644D1*
X535227Y1822433D1*
X534827Y1830294D1*
X535171Y1838157D1*
X536255Y1845953D1*
X538070Y1853612D1*
X540600Y1861066D1*
X543822Y1868247D1*
X547707Y1875092D1*
X552222Y1881541D1*
X557324Y1887534D1*
X562969Y1893018D1*
X569106Y1897946D1*
X575682Y1902273D1*
X582636Y1905959D1*
X589908Y1908972D1*
X597432Y1911287D1*
X605139Y1912881D1*
X612963Y1913740D1*
X620833Y1913857D1*
X628680Y1913230D1*
X636432Y1911866D1*
X644020Y1909777D1*
X651378Y1906980D1*
X658438Y1903501D1*
X665139Y1899371D1*
X671421Y1894629D1*
X677227Y1889314D1*
X682505Y1883475D1*
X687209Y1877164D1*
X691295Y1870437D1*
X694728Y1863354D1*
X697479Y1855979D1*
X699521Y1848378D1*
X700836Y1840617D1*
X701412Y1832766D1*
X701427Y1829018D1*
X3444971Y2804210D2*
X3603711D1*
Y2637596D1*
X3437097D1*
Y2804210D1*
X3444971D1*
X3603454Y2517516D2*
X3602685Y2511021D1*
X3601409Y2504605D1*
X3599634Y2498310D1*
X3597370Y2492172D1*
X3594631Y2486232D1*
X3591436Y2480525D1*
X3587801Y2475085D1*
X3583752Y2469949D1*
X3579311Y2465146D1*
X3574508Y2460705D1*
X3569371Y2456656D1*
X3563932Y2453021D1*
X3558224Y2449825D1*
X3552285Y2447087D1*
X3546147Y2444823D1*
X3539852Y2443047D1*
X3533436Y2441772D1*
X3526941Y2441003D1*
X3520404Y2440745D1*
X3513867Y2441003D1*
X3507373Y2441772D1*
X3500957Y2443047D1*
X3494661Y2444823D1*
X3488524Y2447087D1*
X3482584Y2449825D1*
X3476877Y2453021D1*
X3471437Y2456656D1*
X3466301Y2460705D1*
X3461497Y2465146D1*
X3457056Y2469949D1*
X3453008Y2475085D1*
X3449373Y2480525D1*
X3446177Y2486232D1*
X3443438Y2492172D1*
X3441175Y2498310D1*
X3439399Y2504605D1*
X3438123Y2511021D1*
X3437354Y2517516D1*
X3437097Y2524052D1*
X3437354Y2530589D1*
X3438123Y2537084D1*
X3439399Y2543500D1*
X3441175Y2549795D1*
X3443438Y2555933D1*
X3446177Y2561873D1*
X3449373Y2567580D1*
X3453008Y2573020D1*
X3457056Y2578156D1*
X3461497Y2582959D1*
X3466301Y2587400D1*
X3471437Y2591449D1*
X3476877Y2595084D1*
X3482584Y2598280D1*
X3488524Y2601018D1*
X3494661Y2603282D1*
X3500957Y2605058D1*
X3507373Y2606333D1*
X3513867Y2607102D1*
X3520404Y2607360D1*
X3526941Y2607102D1*
X3533436Y2606333D1*
X3539852Y2605058D1*
X3546147Y2603282D1*
X3552285Y2601018D1*
X3558224Y2598280D1*
X3563932Y2595084D1*
X3569371Y2591449D1*
X3574508Y2587400D1*
X3579311Y2582959D1*
X3583752Y2578156D1*
X3587801Y2573020D1*
X3591436Y2567580D1*
X3594631Y2561873D1*
X3597370Y2555933D1*
X3599634Y2549795D1*
X3601409Y2543500D1*
X3602685Y2537084D1*
X3603454Y2530589D1*
X3603711Y2524052D1*
X3603454Y2517516D1*
Y2320665D2*
X3602685Y2314171D1*
X3601409Y2307755D1*
X3599634Y2301459D1*
X3597370Y2295322D1*
X3594631Y2289382D1*
X3591436Y2283675D1*
X3587801Y2278235D1*
X3583752Y2273098D1*
X3579311Y2268295D1*
X3574508Y2263854D1*
X3569371Y2259806D1*
X3563932Y2256171D1*
X3558224Y2252975D1*
X3552285Y2250236D1*
X3546147Y2247972D1*
X3539852Y2246197D1*
X3533436Y2244921D1*
X3526941Y2244152D1*
X3520404Y2243895D1*
X3513867Y2244152D1*
X3507373Y2244921D1*
X3500957Y2246197D1*
X3494661Y2247972D1*
X3488524Y2250236D1*
X3482584Y2252975D1*
X3476877Y2256171D1*
X3471437Y2259806D1*
X3466301Y2263854D1*
X3461497Y2268295D1*
X3457056Y2273098D1*
X3453008Y2278235D1*
X3449373Y2283675D1*
X3446177Y2289382D1*
X3443438Y2295322D1*
X3441175Y2301459D1*
X3439399Y2307755D1*
X3438123Y2314171D1*
X3437354Y2320665D1*
X3437097Y2327202D1*
X3437354Y2333739D1*
X3438123Y2340234D1*
X3439399Y2346650D1*
X3441175Y2352945D1*
X3443438Y2359083D1*
X3446177Y2365022D1*
X3449373Y2370730D1*
X3453008Y2376169D1*
X3457056Y2381306D1*
X3461497Y2386109D1*
X3466301Y2390550D1*
X3471437Y2394598D1*
X3476877Y2398234D1*
X3482584Y2401429D1*
X3488524Y2404168D1*
X3494661Y2406432D1*
X3500957Y2408207D1*
X3507373Y2409483D1*
X3513867Y2410252D1*
X3520404Y2410509D1*
X3526941Y2410252D1*
X3533436Y2409483D1*
X3539852Y2408207D1*
X3546147Y2406432D1*
X3552285Y2404168D1*
X3558224Y2401429D1*
X3563932Y2398234D1*
X3569371Y2394598D1*
X3574508Y2390550D1*
X3579311Y2386109D1*
X3583752Y2381306D1*
X3587801Y2376169D1*
X3591436Y2370730D1*
X3594631Y2365022D1*
X3597370Y2359083D1*
X3599634Y2352945D1*
X3601409Y2346650D1*
X3602685Y2340234D1*
X3603454Y2333739D1*
X3603711Y2327202D1*
X3603454Y2320665D1*
Y2123815D2*
X3602685Y2117320D1*
X3601409Y2110904D1*
X3599634Y2104609D1*
X3597370Y2098471D1*
X3594631Y2092531D1*
X3591436Y2086824D1*
X3587801Y2081385D1*
X3583752Y2076248D1*
X3579311Y2071445D1*
X3574508Y2067004D1*
X3569371Y2062955D1*
X3563932Y2059320D1*
X3558224Y2056125D1*
X3552285Y2053386D1*
X3546147Y2051122D1*
X3539852Y2049346D1*
X3533436Y2048071D1*
X3526941Y2047302D1*
X3520404Y2047045D1*
X3513867Y2047302D1*
X3507373Y2048071D1*
X3500957Y2049346D1*
X3494661Y2051122D1*
X3488524Y2053386D1*
X3482584Y2056125D1*
X3476877Y2059320D1*
X3471437Y2062955D1*
X3466301Y2067004D1*
X3461497Y2071445D1*
X3457056Y2076248D1*
X3453008Y2081385D1*
X3449373Y2086824D1*
X3446177Y2092531D1*
X3443438Y2098471D1*
X3441175Y2104609D1*
X3439399Y2110904D1*
X3438123Y2117320D1*
X3437354Y2123815D1*
X3437097Y2130352D1*
X3437354Y2136888D1*
X3438123Y2143383D1*
X3439399Y2149799D1*
X3441175Y2156094D1*
X3443438Y2162232D1*
X3446177Y2168172D1*
X3449373Y2173879D1*
X3453008Y2179319D1*
X3457056Y2184455D1*
X3461497Y2189259D1*
X3466301Y2193699D1*
X3471437Y2197748D1*
X3476877Y2201383D1*
X3482584Y2204579D1*
X3488524Y2207318D1*
X3494661Y2209581D1*
X3500957Y2211357D1*
X3507373Y2212633D1*
X3513867Y2213402D1*
X3520404Y2213659D1*
X3526941Y2213402D1*
X3533436Y2212633D1*
X3539852Y2211357D1*
X3546147Y2209581D1*
X3552285Y2207318D1*
X3558224Y2204579D1*
X3563932Y2201383D1*
X3569371Y2197748D1*
X3574508Y2193699D1*
X3579311Y2189259D1*
X3583752Y2184455D1*
X3587801Y2179319D1*
X3591436Y2173879D1*
X3594631Y2168172D1*
X3597370Y2162232D1*
X3599634Y2156094D1*
X3601409Y2149799D1*
X3602685Y2143383D1*
X3603454Y2136888D1*
X3603711Y2130352D1*
X3603454Y2123815D1*
Y1926965D2*
X3602685Y1920470D1*
X3601409Y1914054D1*
X3599634Y1907759D1*
X3597370Y1901621D1*
X3594631Y1895681D1*
X3591436Y1889974D1*
X3587801Y1884534D1*
X3583752Y1879398D1*
X3579311Y1874594D1*
X3574508Y1870154D1*
X3569371Y1866105D1*
X3563932Y1862470D1*
X3558224Y1859274D1*
X3552285Y1856535D1*
X3546147Y1854272D1*
X3539852Y1852496D1*
X3533436Y1851220D1*
X3526941Y1850451D1*
X3520404Y1850194D1*
X3513867Y1850451D1*
X3507373Y1851220D1*
X3500957Y1852496D1*
X3494661Y1854272D1*
X3488524Y1856535D1*
X3482584Y1859274D1*
X3476877Y1862470D1*
X3471437Y1866105D1*
X3466301Y1870154D1*
X3461497Y1874594D1*
X3457056Y1879398D1*
X3453008Y1884534D1*
X3449373Y1889974D1*
X3446177Y1895681D1*
X3443438Y1901621D1*
X3441175Y1907759D1*
X3439399Y1914054D1*
X3438123Y1920470D1*
X3437354Y1926965D1*
X3437097Y1933501D1*
X3437354Y1940038D1*
X3438123Y1946533D1*
X3439399Y1952949D1*
X3441175Y1959244D1*
X3443438Y1965382D1*
X3446177Y1971322D1*
X3449373Y1977029D1*
X3453008Y1982469D1*
X3457056Y1987605D1*
X3461497Y1992408D1*
X3466301Y1996849D1*
X3471437Y2000898D1*
X3476877Y2004533D1*
X3482584Y2007728D1*
X3488524Y2010467D1*
X3494661Y2012731D1*
X3500957Y2014507D1*
X3507373Y2015782D1*
X3513867Y2016551D1*
X3520404Y2016808D1*
X3526941Y2016551D1*
X3533436Y2015782D1*
X3539852Y2014507D1*
X3546147Y2012731D1*
X3552285Y2010467D1*
X3558224Y2007728D1*
X3563932Y2004533D1*
X3569371Y2000898D1*
X3574508Y1996849D1*
X3579311Y1992408D1*
X3583752Y1987605D1*
X3587801Y1982469D1*
X3591436Y1977029D1*
X3594631Y1971322D1*
X3597370Y1965382D1*
X3599634Y1959244D1*
X3601409Y1952949D1*
X3602685Y1946533D1*
X3603454Y1940038D1*
X3603711Y1933501D1*
X3603454Y1926965D1*
Y1730114D2*
X3602685Y1723619D1*
X3601409Y1717203D1*
X3599634Y1710908D1*
X3597370Y1704770D1*
X3594631Y1698831D1*
X3591436Y1693123D1*
X3587801Y1687684D1*
X3583752Y1682547D1*
X3579311Y1677744D1*
X3574508Y1673303D1*
X3569371Y1669255D1*
X3563932Y1665619D1*
X3558224Y1662424D1*
X3552285Y1659685D1*
X3546147Y1657421D1*
X3539852Y1655646D1*
X3533436Y1654370D1*
X3526941Y1653601D1*
X3520404Y1653344D1*
X3513867Y1653601D1*
X3507373Y1654370D1*
X3500957Y1655646D1*
X3494661Y1657421D1*
X3488524Y1659685D1*
X3482584Y1662424D1*
X3476877Y1665619D1*
X3471437Y1669255D1*
X3466301Y1673303D1*
X3461497Y1677744D1*
X3457056Y1682547D1*
X3453008Y1687684D1*
X3449373Y1693123D1*
X3446177Y1698831D1*
X3443438Y1704770D1*
X3441175Y1710908D1*
X3439399Y1717203D1*
X3438123Y1723619D1*
X3437354Y1730114D1*
X3437097Y1736651D1*
X3437354Y1743188D1*
X3438123Y1749682D1*
X3439226Y1755693D1*
X3337419Y1857500D1*
X3204189Y1857508D1*
X3197615Y1853528D1*
X3192959Y1851457D1*
X3197615Y1849362D1*
X3204165Y1845385D1*
X3262207Y1845247D1*
X3269017Y1844168D1*
X3275573Y1842038D1*
X3281717Y1838907D1*
X3287295Y1834854D1*
X3306531Y1815810D1*
X3501425Y1620916D1*
X3507373Y1622081D1*
X3513867Y1622850D1*
X3520404Y1623108D1*
X3526941Y1622850D1*
X3533436Y1622081D1*
X3539852Y1620806D1*
X3546147Y1619030D1*
X3552285Y1616766D1*
X3558224Y1614028D1*
X3563932Y1610832D1*
X3569371Y1607197D1*
X3574508Y1603148D1*
X3579311Y1598707D1*
X3583752Y1593904D1*
X3587801Y1588768D1*
X3591436Y1583328D1*
X3594631Y1577621D1*
X3597370Y1571681D1*
X3599634Y1565543D1*
X3601409Y1559248D1*
X3602685Y1552832D1*
X3603454Y1546337D1*
X3603711Y1539801D1*
X3603454Y1533264D1*
X3602685Y1526769D1*
X3601409Y1520353D1*
X3599634Y1514058D1*
X3597370Y1507920D1*
X3594631Y1501980D1*
X3591436Y1496273D1*
X3587801Y1490833D1*
X3583752Y1485697D1*
X3579311Y1480894D1*
X3574508Y1476453D1*
X3569371Y1472404D1*
X3563932Y1468769D1*
X3558224Y1465573D1*
X3552285Y1462835D1*
X3546147Y1460571D1*
X3539852Y1458795D1*
X3533436Y1457520D1*
X3526941Y1456751D1*
X3520404Y1456493D1*
X3513867Y1456751D1*
X3507373Y1457520D1*
X3500957Y1458795D1*
X3494661Y1460571D1*
X3488524Y1462835D1*
X3482584Y1465573D1*
X3476877Y1468769D1*
X3471437Y1472404D1*
X3466301Y1476453D1*
X3461497Y1480894D1*
X3457056Y1485697D1*
X3453008Y1490833D1*
X3449373Y1496273D1*
X3446177Y1501980D1*
X3443438Y1507920D1*
X3441175Y1514058D1*
X3439399Y1520353D1*
X3438123Y1526769D1*
X3437354Y1533264D1*
X3437097Y1539801D1*
X3437354Y1546337D1*
X3438123Y1552832D1*
X3439226Y1558843D1*
X3240549Y1757520D1*
X3204226Y1757508D1*
X3197615Y1753528D1*
X3192959Y1751457D1*
X3197615Y1749362D1*
X3204810Y1744954D1*
X3211227Y1739472D1*
X3216709Y1733055D1*
X3221117Y1725861D1*
X3224346Y1718064D1*
X3226165Y1710618D1*
X3511039Y1425741D1*
X3520404Y1426257D1*
X3526941Y1426000D1*
X3533436Y1425231D1*
X3539852Y1423955D1*
X3546147Y1422180D1*
X3552285Y1419916D1*
X3558224Y1417177D1*
X3563932Y1413982D1*
X3569371Y1410346D1*
X3574508Y1406298D1*
X3579311Y1401857D1*
X3583752Y1397054D1*
X3587801Y1391917D1*
X3591436Y1386478D1*
X3594631Y1380770D1*
X3597370Y1374831D1*
X3599634Y1368693D1*
X3601409Y1362398D1*
X3602685Y1355982D1*
X3603454Y1349487D1*
X3603711Y1342950D1*
X3603454Y1336413D1*
X3602685Y1329919D1*
X3601409Y1323503D1*
X3599634Y1317207D1*
X3597370Y1311070D1*
X3594631Y1305130D1*
X3591436Y1299423D1*
X3587801Y1293983D1*
X3583752Y1288846D1*
X3579311Y1284043D1*
X3574508Y1279602D1*
X3569371Y1275554D1*
X3563932Y1271919D1*
X3558224Y1268723D1*
X3552285Y1265984D1*
X3546147Y1263720D1*
X3539852Y1261945D1*
X3533436Y1260669D1*
X3526941Y1259900D1*
X3520404Y1259643D1*
X3513867Y1259900D1*
X3507373Y1260669D1*
X3500957Y1261945D1*
X3494661Y1263720D1*
X3488524Y1265984D1*
X3482584Y1268723D1*
X3476877Y1271919D1*
X3471437Y1275554D1*
X3466301Y1279602D1*
X3461497Y1284043D1*
X3457056Y1288846D1*
X3453008Y1293983D1*
X3449373Y1299423D1*
X3446177Y1305130D1*
X3443438Y1311070D1*
X3441175Y1317207D1*
X3439399Y1323503D1*
X3438123Y1329919D1*
X3437354Y1336413D1*
X3437097Y1342950D1*
X3437354Y1349487D1*
X3438123Y1355982D1*
X3439399Y1362398D1*
X3441891Y1370635D1*
X3225130Y1587378D1*
X3223129Y1581463D1*
X3220451Y1575765D1*
X3217127Y1570419D1*
X3213201Y1565499D1*
X3208726Y1561070D1*
X3203764Y1557196D1*
X3198383Y1553927D1*
X3192657Y1551308D1*
X3186665Y1549378D1*
X3180488Y1548161D1*
X3174211Y1547675D1*
X3167921Y1547925D1*
X3161702Y1548908D1*
X3155642Y1550612D1*
X3149822Y1553012D1*
X3144322Y1556076D1*
X3139218Y1559761D1*
X3134580Y1564018D1*
X3130470Y1568789D1*
X3126946Y1574005D1*
X3124056Y1579598D1*
X3121841Y1585491D1*
X3120328Y1591602D1*
X3119541Y1597849D1*
X3119488Y1604144D1*
X3120171Y1610403D1*
X3121581Y1616538D1*
X3123698Y1622467D1*
X3126495Y1628108D1*
X3129930Y1633383D1*
X3133959Y1638220D1*
X3138526Y1642554D1*
X3143568Y1646324D1*
X3149016Y1649480D1*
X3153398Y1651445D1*
X3148783Y1653528D1*
X3141589Y1657936D1*
X3135172Y1663417D1*
X3129690Y1669835D1*
X3125282Y1677029D1*
X3122052Y1684825D1*
X3120083Y1693031D1*
X3119420Y1701445D1*
X3120083Y1709858D1*
X3122052Y1718064D1*
X3125282Y1725861D1*
X3129690Y1733055D1*
X3135172Y1739472D1*
X3141589Y1744954D1*
X3148783Y1749362D1*
X3153440Y1751433D1*
X3148783Y1753528D1*
X3141589Y1757936D1*
X3135172Y1763417D1*
X3129690Y1769835D1*
X3125282Y1777029D1*
X3122052Y1784825D1*
X3120083Y1793031D1*
X3119420Y1801445D1*
X3120083Y1809858D1*
X3122052Y1818064D1*
X3125282Y1825861D1*
X3129690Y1833055D1*
X3135172Y1839472D1*
X3141589Y1844954D1*
X3148783Y1849362D1*
X3153440Y1851433D1*
X3148783Y1853528D1*
X3141589Y1857936D1*
X3135172Y1863417D1*
X3129690Y1869835D1*
X3125282Y1877029D1*
X3122052Y1884825D1*
X3120083Y1893031D1*
X3119420Y1901445D1*
X3120083Y1909858D1*
X3122052Y1918064D1*
X3125282Y1925861D1*
X3129690Y1933055D1*
X3135172Y1939472D1*
X3141589Y1944954D1*
X3148783Y1949362D1*
X3153440Y1951433D1*
X3148783Y1953528D1*
X3141589Y1957936D1*
X3135172Y1963417D1*
X3129690Y1969835D1*
X3125282Y1977029D1*
X3122052Y1984825D1*
X3120083Y1993031D1*
X3119420Y2001445D1*
X3120083Y2009858D1*
X3122052Y2018064D1*
X3125282Y2025861D1*
X3129690Y2033055D1*
X3135172Y2039472D1*
X3141589Y2044954D1*
X3148783Y2049362D1*
X3153440Y2051433D1*
X3148783Y2053528D1*
X3141589Y2057936D1*
X3135172Y2063417D1*
X3129690Y2069835D1*
X3125282Y2077029D1*
X3122052Y2084825D1*
X3120083Y2093031D1*
X3119420Y2101445D1*
X3120083Y2109858D1*
X3122052Y2118064D1*
X3125282Y2125861D1*
X3129690Y2133055D1*
X3135172Y2139472D1*
X3141589Y2144954D1*
X3148783Y2149362D1*
X3153440Y2151433D1*
X3148783Y2153528D1*
X3141589Y2157936D1*
X3135172Y2163417D1*
X3129690Y2169835D1*
X3125282Y2177029D1*
X3122052Y2184825D1*
X3120083Y2193031D1*
X3119420Y2201445D1*
X3120083Y2209858D1*
X3122052Y2218064D1*
X3125282Y2225861D1*
X3129690Y2233055D1*
X3135172Y2239472D1*
X3141589Y2244954D1*
X3148783Y2249362D1*
X3153440Y2251433D1*
X3148783Y2253528D1*
X3141589Y2257936D1*
X3135172Y2263417D1*
X3129690Y2269835D1*
X3125282Y2277029D1*
X3122052Y2284825D1*
X3120083Y2293031D1*
X3119420Y2301445D1*
X3120083Y2309858D1*
X3122052Y2318064D1*
X3125282Y2325861D1*
X3129690Y2333055D1*
X3135172Y2339472D1*
X3141589Y2344954D1*
X3148783Y2349362D1*
X3153440Y2351433D1*
X3148783Y2353528D1*
X3141589Y2357936D1*
X3135172Y2363417D1*
X3129690Y2369835D1*
X3125282Y2377029D1*
X3122052Y2384825D1*
X3120083Y2393031D1*
X3119420Y2401445D1*
X3120083Y2409858D1*
X3122052Y2418064D1*
X3125282Y2425861D1*
X3129690Y2433055D1*
X3135172Y2439472D1*
X3141589Y2444954D1*
X3148783Y2449362D1*
X3156580Y2452592D1*
X3164786Y2454562D1*
X3173199Y2455224D1*
X3181613Y2454562D1*
X3189819Y2452592D1*
X3197615Y2449362D1*
X3204810Y2444954D1*
X3211227Y2439472D1*
X3216709Y2433055D1*
X3221117Y2425861D1*
X3224346Y2418064D1*
X3226316Y2409858D1*
X3226979Y2401445D1*
X3226316Y2393031D1*
X3224346Y2384825D1*
X3221117Y2377029D1*
X3216709Y2369835D1*
X3211227Y2363417D1*
X3204810Y2357936D1*
X3197615Y2353528D1*
X3192959Y2351457D1*
X3197615Y2349362D1*
X3204810Y2344954D1*
X3211227Y2339472D1*
X3216709Y2333055D1*
X3221117Y2325861D1*
X3224346Y2318064D1*
X3226316Y2309858D1*
X3226979Y2301445D1*
X3226316Y2293031D1*
X3224346Y2284825D1*
X3221117Y2277029D1*
X3216709Y2269835D1*
X3211227Y2263417D1*
X3204810Y2257936D1*
X3197615Y2253528D1*
X3192959Y2251457D1*
X3197615Y2249362D1*
X3204810Y2244954D1*
X3211227Y2239472D1*
X3216709Y2233055D1*
X3221117Y2225861D1*
X3224346Y2218064D1*
X3226316Y2209858D1*
X3226979Y2201445D1*
X3226316Y2193031D1*
X3224346Y2184825D1*
X3221117Y2177029D1*
X3216709Y2169835D1*
X3211227Y2163417D1*
X3204810Y2157936D1*
X3197615Y2153528D1*
X3192959Y2151457D1*
X3197615Y2149362D1*
X3204810Y2144954D1*
X3211227Y2139472D1*
X3216709Y2133055D1*
X3221117Y2125861D1*
X3224346Y2118064D1*
X3226316Y2109858D1*
X3226979Y2101445D1*
X3226316Y2093031D1*
X3224346Y2084825D1*
X3221117Y2077029D1*
X3216709Y2069835D1*
X3211227Y2063417D1*
X3204810Y2057936D1*
X3197615Y2053528D1*
X3192959Y2051457D1*
X3197615Y2049362D1*
X3204810Y2044954D1*
X3211227Y2039472D1*
X3216709Y2033055D1*
X3221117Y2025861D1*
X3224346Y2018064D1*
X3226316Y2009858D1*
X3226979Y2001445D1*
X3226316Y1993031D1*
X3224346Y1984825D1*
X3221117Y1977029D1*
X3216709Y1969835D1*
X3211227Y1963417D1*
X3204810Y1957936D1*
X3197615Y1953528D1*
X3192959Y1951457D1*
X3197615Y1949362D1*
X3204165Y1945385D1*
X3359058Y1945247D1*
X3365867Y1944168D1*
X3372424Y1942038D1*
X3378567Y1938907D1*
X3384146Y1934854D1*
X3403382Y1915810D1*
X3501406Y1817786D1*
X3507373Y1818932D1*
X3513867Y1819701D1*
X3520404Y1819958D1*
X3526941Y1819701D1*
X3533436Y1818932D1*
X3539852Y1817656D1*
X3546147Y1815881D1*
X3552285Y1813617D1*
X3558224Y1810878D1*
X3563932Y1807682D1*
X3569371Y1804047D1*
X3574508Y1799999D1*
X3579311Y1795558D1*
X3583752Y1790755D1*
X3587801Y1785618D1*
X3591436Y1780178D1*
X3594631Y1774471D1*
X3597370Y1768531D1*
X3599634Y1762394D1*
X3601409Y1756098D1*
X3602685Y1749682D1*
X3603454Y1743188D1*
X3603711Y1736651D1*
X3603454Y1730114D1*
X3603697Y1144525D2*
X3603176Y1136671D1*
X3601917Y1128902D1*
X3599929Y1121285D1*
X3597232Y1113891D1*
X3593850Y1106783D1*
X3589812Y1100028D1*
X3585154Y1093682D1*
X3579917Y1087806D1*
X3574151Y1082449D1*
X3567903Y1077660D1*
X3561232Y1073483D1*
X3554197Y1069954D1*
X3546860Y1067105D1*
X3539286Y1064961D1*
X3531545Y1063541D1*
X3523702Y1062858D1*
X3515832Y1062919D1*
X3508001Y1063720D1*
X3500282Y1065260D1*
X3492743Y1067520D1*
X3485450Y1070480D1*
X3478470Y1074117D1*
X3471864Y1078396D1*
X3465690Y1083280D1*
X3460005Y1088723D1*
X3454860Y1094680D1*
X3450299Y1101096D1*
X3446365Y1107912D1*
X3443092Y1115071D1*
X3440508Y1122505D1*
X3438638Y1130151D1*
X3437497Y1137940D1*
X3437097Y1145801D1*
X3437441Y1153664D1*
X3438525Y1161459D1*
X3440340Y1169118D1*
X3442870Y1176572D1*
X3446092Y1183753D1*
X3449978Y1190598D1*
X3454492Y1197047D1*
X3459594Y1203041D1*
X3465239Y1208525D1*
X3471377Y1213453D1*
X3477953Y1217780D1*
X3484907Y1221466D1*
X3492178Y1224479D1*
X3499702Y1226794D1*
X3507409Y1228387D1*
X3515234Y1229247D1*
X3523104Y1229364D1*
X3530950Y1228736D1*
X3538702Y1227373D1*
X3546290Y1225283D1*
X3553648Y1222487D1*
X3560709Y1219008D1*
X3567409Y1214878D1*
X3573692Y1210135D1*
X3579497Y1204820D1*
X3584776Y1198982D1*
X3589479Y1192671D1*
X3593566Y1185944D1*
X3596999Y1178861D1*
X3599749Y1171486D1*
X3601791Y1163885D1*
X3603106Y1156123D1*
X3603682Y1148273D1*
X3603697Y1144525D1*
X731936Y585802D2*
X731451Y576367D1*
X730241Y566999D1*
X728315Y557751D1*
X725682Y548678D1*
X722360Y539836D1*
X718366Y531276D1*
X713727Y523047D1*
X708467Y515199D1*
X702619Y507781D1*
X696218Y500835D1*
X689301Y494400D1*
X681909Y488518D1*
X674088Y483222D1*
X665881Y478543D1*
X657339Y474509D1*
X648512Y471146D1*
X639451Y468471D1*
X630213Y466500D1*
X620850Y465247D1*
X611419Y464718D1*
X601974Y464916D1*
X592573Y465841D1*
X583270Y467486D1*
X574123Y469841D1*
X565184Y472895D1*
X556505Y476626D1*
X548139Y481014D1*
X540136Y486034D1*
X532543Y491654D1*
X525406Y497841D1*
X518765Y504559D1*
X512661Y511769D1*
X507130Y519427D1*
X502203Y527487D1*
X497913Y535903D1*
X494282Y544623D1*
X491333Y553598D1*
X489084Y562773D1*
X487547Y572093D1*
X486732Y581505D1*
X486644Y590951D1*
X487282Y600375D1*
X488644Y609723D1*
X490722Y618938D1*
X493501Y627967D1*
X496969Y636755D1*
X501100Y645249D1*
X505874Y653400D1*
X511261Y661160D1*
X517228Y668483D1*
X523743Y675325D1*
X530764Y681646D1*
X538249Y687407D1*
X546157Y692575D1*
X554438Y697118D1*
X563046Y701012D1*
X571927Y704232D1*
X581029Y706759D1*
X590298Y708577D1*
X599680Y709678D1*
X609119Y710054D1*
X618559Y709702D1*
X627944Y708625D1*
X637218Y706828D1*
X646327Y704323D1*
X655215Y701125D1*
X663831Y697252D1*
X672125Y692728D1*
X680045Y687579D1*
X687545Y681836D1*
X694580Y675533D1*
X701112Y668707D1*
X707097Y661400D1*
X712503Y653654D1*
X717297Y645513D1*
X721449Y637029D1*
X724937Y628249D1*
X727739Y619228D1*
X729839Y610018D1*
X731223Y600673D1*
X731885Y591251D1*
X731936Y585802D1*
X3763432Y3262967D2*
X3762948Y3253533D1*
X3761738Y3244164D1*
X3759811Y3234916D1*
X3757178Y3225844D1*
X3753856Y3217001D1*
X3749862Y3208441D1*
X3745223Y3200213D1*
X3739963Y3192365D1*
X3734115Y3184946D1*
X3727714Y3178000D1*
X3720797Y3171566D1*
X3713406Y3165684D1*
X3705584Y3160387D1*
X3697377Y3155709D1*
X3688835Y3151675D1*
X3680008Y3148311D1*
X3670948Y3145636D1*
X3661709Y3143665D1*
X3652346Y3142412D1*
X3642915Y3141883D1*
X3633470Y3142081D1*
X3624070Y3143007D1*
X3614766Y3144651D1*
X3605619Y3147007D1*
X3596680Y3150060D1*
X3588001Y3153791D1*
X3579635Y3158180D1*
X3571633Y3163199D1*
X3564039Y3168819D1*
X3556902Y3175007D1*
X3550261Y3181724D1*
X3544157Y3188934D1*
X3538626Y3196592D1*
X3533699Y3204652D1*
X3529409Y3213068D1*
X3525778Y3221789D1*
X3522829Y3230764D1*
X3520580Y3239938D1*
X3519043Y3249259D1*
X3518228Y3258671D1*
X3518140Y3268117D1*
X3518778Y3277541D1*
X3520140Y3286888D1*
X3522218Y3296104D1*
X3524997Y3305133D1*
X3528465Y3313920D1*
X3532596Y3322415D1*
X3537370Y3330566D1*
X3542757Y3338325D1*
X3548724Y3345648D1*
X3555239Y3352491D1*
X3562260Y3358811D1*
X3569745Y3364572D1*
X3577654Y3369740D1*
X3585934Y3374283D1*
X3594542Y3378177D1*
X3603423Y3381398D1*
X3612525Y3383924D1*
X3621794Y3385743D1*
X3631176Y3386844D1*
X3640615Y3387219D1*
X3650055Y3386867D1*
X3659440Y3385790D1*
X3668714Y3383993D1*
X3677823Y3381488D1*
X3686711Y3378290D1*
X3695327Y3374417D1*
X3703621Y3369894D1*
X3711541Y3364744D1*
X3719041Y3359001D1*
X3726076Y3352698D1*
X3732608Y3345873D1*
X3738593Y3338566D1*
X3743999Y3330819D1*
X3748793Y3322678D1*
X3752945Y3314194D1*
X3756433Y3305415D1*
X3759235Y3296394D1*
X3761335Y3287184D1*
X3762719Y3277839D1*
X3763381Y3268416D1*
X3763432Y3262967D1*
X731936D2*
X731451Y3253533D1*
X730241Y3244164D1*
X728315Y3234916D1*
X725682Y3225844D1*
X722360Y3217001D1*
X718366Y3208441D1*
X713727Y3200213D1*
X708467Y3192365D1*
X702619Y3184946D1*
X696218Y3178000D1*
X689301Y3171566D1*
X681909Y3165684D1*
X674088Y3160387D1*
X665881Y3155709D1*
X657339Y3151675D1*
X648512Y3148311D1*
X639451Y3145636D1*
X630213Y3143665D1*
X620850Y3142412D1*
X611419Y3141883D1*
X601974Y3142081D1*
X592573Y3143007D1*
X583270Y3144651D1*
X574123Y3147007D1*
X565184Y3150060D1*
X556505Y3153791D1*
X548139Y3158180D1*
X540136Y3163199D1*
X532543Y3168819D1*
X525406Y3175007D1*
X518765Y3181724D1*
X512661Y3188934D1*
X507130Y3196592D1*
X502203Y3204652D1*
X497913Y3213068D1*
X494282Y3221789D1*
X491333Y3230764D1*
X489084Y3239938D1*
X487547Y3249259D1*
X486732Y3258671D1*
X486644Y3268117D1*
X487282Y3277541D1*
X488644Y3286888D1*
X490722Y3296104D1*
X493501Y3305133D1*
X496969Y3313920D1*
X501100Y3322415D1*
X505874Y3330566D1*
X511261Y3338325D1*
X517228Y3345648D1*
X523743Y3352491D1*
X530764Y3358811D1*
X538249Y3364572D1*
X546157Y3369740D1*
X554438Y3374283D1*
X563046Y3378177D1*
X571927Y3381398D1*
X581029Y3383924D1*
X590298Y3385743D1*
X599680Y3386844D1*
X609119Y3387219D1*
X618559Y3386867D1*
X627944Y3385790D1*
X637218Y3383993D1*
X646327Y3381488D1*
X655215Y3378290D1*
X663831Y3374417D1*
X672125Y3369894D1*
X680045Y3364744D1*
X687545Y3359001D1*
X694580Y3352698D1*
X701112Y3345873D1*
X707097Y3338566D1*
X712503Y3330819D1*
X717297Y3322678D1*
X721449Y3314194D1*
X724937Y3305415D1*
X727739Y3296394D1*
X729839Y3287184D1*
X731223Y3277839D1*
X731885Y3268416D1*
X731936Y3262967D1*
X3763432Y585802D2*
X3762948Y576367D1*
X3761738Y566999D1*
X3759811Y557751D1*
X3757178Y548678D1*
X3753856Y539836D1*
X3749862Y531276D1*
X3745223Y523047D1*
X3739963Y515199D1*
X3734115Y507781D1*
X3727714Y500835D1*
X3720797Y494400D1*
X3713406Y488518D1*
X3705584Y483222D1*
X3697377Y478543D1*
X3688835Y474509D1*
X3680008Y471146D1*
X3670948Y468471D1*
X3661709Y466500D1*
X3652346Y465247D1*
X3642915Y464718D1*
X3633470Y464916D1*
X3624070Y465841D1*
X3614766Y467486D1*
X3605619Y469841D1*
X3596680Y472895D1*
X3588001Y476626D1*
X3579635Y481014D1*
X3571633Y486034D1*
X3564039Y491654D1*
X3556902Y497841D1*
X3550261Y504559D1*
X3544157Y511769D1*
X3538626Y519427D1*
X3533699Y527487D1*
X3529409Y535903D1*
X3525778Y544623D1*
X3522829Y553598D1*
X3520580Y562773D1*
X3519043Y572093D1*
X3518228Y581505D1*
X3518140Y590951D1*
X3518778Y600375D1*
X3520140Y609723D1*
X3522218Y618938D1*
X3524997Y627967D1*
X3528465Y636755D1*
X3532596Y645249D1*
X3537370Y653400D1*
X3542757Y661160D1*
X3548724Y668483D1*
X3555239Y675325D1*
X3562260Y681646D1*
X3569745Y687407D1*
X3577654Y692575D1*
X3585934Y697118D1*
X3594542Y701012D1*
X3603423Y704232D1*
X3612525Y706759D1*
X3621794Y708577D1*
X3631176Y709678D1*
X3640615Y710054D1*
X3650055Y709702D1*
X3659440Y708625D1*
X3668714Y706828D1*
X3677823Y704323D1*
X3686711Y701125D1*
X3695327Y697252D1*
X3703621Y692728D1*
X3711541Y687579D1*
X3719041Y681836D1*
X3726076Y675533D1*
X3732608Y668707D1*
X3738593Y661400D1*
X3743999Y653654D1*
X3748793Y645513D1*
X3752945Y637029D1*
X3756433Y628249D1*
X3759235Y619228D1*
X3761335Y610018D1*
X3762719Y600673D1*
X3763381Y591251D1*
X3763432Y585802D1*
X401605Y401575D2*
X3850364D1*
X3850394Y3456723D1*
X401605Y3456694D1*
X401575Y401546D1*
X1428555Y3265291D2*
D13*
Y3153856D1*
X1372837Y3209573D2*
X1484273D1*
X2662512Y3253560D2*
Y3142125D1*
X2606794Y3197843D2*
X2718230D1*
X2427222Y3378222D2*
Y3219542D1*
X2347882Y3298882D2*
X2506562D1*
X1421634Y1901997D2*
X1529133D1*
X1475383Y1701997D2*
X1529133D1*
X1421634Y1301997D2*
X1529133D1*
X2550479Y1301421D2*
X2657978D1*
X2604228Y2001421D2*
X2657978D1*
X618134Y1913870D2*
Y1747316D1*
X534857Y1830593D2*
X701411D1*
X737972Y2814164D2*
Y2754509D1*
X872618Y2814164D2*
Y2754509D1*
X924399D1*
X3520404Y1229377D2*
Y1062823D1*
X3437127Y1146100D2*
X3603681D1*
X609269Y710024D2*
Y464730D1*
X486622Y587377D2*
X731916D1*
X3640765Y3387189D2*
Y3141895D1*
X3518118Y3264542D2*
X3763412D1*
X609269Y3387189D2*
Y3141895D1*
X486622Y3264542D2*
X731916D1*
X3640765Y710024D2*
Y464730D1*
X3518118Y587377D2*
X3763412D1*
X3173199Y1601445D2*
Y1547696D1*
X3119450Y1601445D2*
X3173199D1*
D20*
X1428555Y3209573D3*
D21*
Y3009573D3*
D20*
X2662512Y3197843D3*
D21*
Y2997843D3*
D22*
X1003786Y2036629D3*
D23*
Y1294896D3*
D22*
X1685490Y3298882D3*
D23*
X2427222D3*
D24*
X1475383Y2601997D3*
D25*
Y2501997D3*
Y2401997D3*
Y2301997D3*
Y2201997D3*
Y2101997D3*
Y2001997D3*
Y1901997D3*
Y1801997D3*
Y1701997D3*
Y1601997D3*
Y1501997D3*
Y1401997D3*
Y1301997D3*
Y1201997D3*
D24*
X2604228Y1201421D3*
D25*
Y1301421D3*
Y1401421D3*
Y1501421D3*
Y1601421D3*
Y1701421D3*
Y1801421D3*
Y1901421D3*
Y2001421D3*
Y2101421D3*
Y2201421D3*
Y2301421D3*
Y2401421D3*
Y2501421D3*
Y2601421D3*
D26*
X618134Y2027444D3*
D27*
Y1830593D3*
D20*
X1067571Y2997929D3*
D21*
Y3197929D3*
D28*
X603327Y2754509D3*
D29*
X670650D3*
X737972D3*
X805295D3*
X872618D3*
D26*
X3520404Y2720903D3*
D27*
Y2524052D3*
Y2327202D3*
Y2130352D3*
Y1933501D3*
Y1736651D3*
Y1539801D3*
Y1342950D3*
Y1146100D3*
D30*
X609269Y587377D3*
X3640765Y3264542D3*
X609269D3*
X3640765Y587377D3*
D24*
X2873199Y2401445D3*
D25*
Y2301445D3*
Y2201445D3*
Y2101445D3*
Y2001445D3*
Y1901445D3*
Y1801445D3*
Y1701445D3*
Y1601445D3*
X3173199D3*
Y1701445D3*
Y1801445D3*
Y1901445D3*
Y2001445D3*
Y2101445D3*
Y2201445D3*
Y2301445D3*
Y2401445D3*
M02*
