M48
INCH
T01C0.0118
T02C0.0354
T03C0.0433
T04C0.0472
T05C0.0669
T06C0.126
%
T01
X+014045Y+021492
X+025275Y+026487
X+027707Y+015705
X+029754Y+015401
X+028713Y+010923
T02
X+014286Y+032096
X+014286Y+030096
X+010676Y+029979
X+010676Y+031979
X+014754Y+026020
X+014754Y+025020
X+014754Y+024020
X+014754Y+023020
X+014754Y+022020
X+014754Y+021020
X+014754Y+020020
X+014754Y+019020
X+014754Y+018020
X+014754Y+017020
X+014754Y+016020
X+014754Y+015020
X+014754Y+014020
X+014754Y+013020
X+014754Y+012020
X+026042Y+012014
X+026042Y+013014
X+026042Y+014014
X+026042Y+015014
X+026042Y+016014
X+026042Y+017014
X+026042Y+018014
X+026042Y+019014
X+026042Y+020014
X+026042Y+021014
X+026042Y+022014
X+026042Y+023014
X+026042Y+024014
X+026042Y+025014
X+026042Y+026014
X+028732Y+024014
X+028732Y+023014
X+028732Y+022014
X+028732Y+021014
X+028732Y+020014
X+028732Y+019014
X+028732Y+018014
X+028732Y+017014
X+028732Y+016014
X+031732Y+016014
X+031732Y+017014
X+031732Y+018014
X+031732Y+019014
X+031732Y+020014
X+031732Y+021014
X+031732Y+022014
X+031732Y+023014
X+031732Y+024014
X+026625Y+029978
X+026625Y+031978
T03
X+006033Y+027545
X+006706Y+027545
X+007380Y+027545
X+008053Y+027545
X+008726Y+027545
T04
X+006181Y+020274
X+006181Y+018306
X+035204Y+017367
X+035204Y+019335
X+035204Y+021304
X+035204Y+023272
X+035204Y+025241
X+035204Y+027209
X+035204Y+015398
X+035204Y+013430
X+035204Y+011461
T05
X+010038Y+020366
X+010038Y+012949
X+016855Y+032989
X+024272Y+032989
T06
X+006093Y+005874
X+006093Y+032645
X+036408Y+032645
X+036408Y+005874
T00
M30
