G04 DipTrace 3.3.0.1*
G04 Top.gbr*
%MOIN*%
G04 #@! TF.FileFunction,Copper,L1,Top*
G04 #@! TF.Part,Single*
G04 #@! TA.AperFunction,CopperBalancing*
%ADD13C,0.011811*%
G04 #@! TA.AperFunction,Conductor*
%ADD14C,0.03937*%
G04 #@! TA.AperFunction,ViaPad*
%ADD15C,0.023622*%
G04 #@! TA.AperFunction,CopperBalancing*
%ADD16C,0.015748*%
%ADD17C,0.012992*%
%ADD18R,0.070866X0.062992*%
%ADD19R,0.062992X0.070866*%
G04 #@! TA.AperFunction,ComponentPad*
%ADD20C,0.062992*%
%ADD21R,0.062992X0.062992*%
%ADD22R,0.110236X0.110236*%
%ADD23C,0.110236*%
%ADD24R,0.059055X0.059055*%
%ADD25C,0.059055*%
%ADD26R,0.11811X0.11811*%
%ADD27C,0.11811*%
%ADD28R,0.055118X0.070866*%
%ADD29O,0.055118X0.070866*%
%ADD30C,0.19685*%
%FSLAX26Y26*%
G04*
G70*
G90*
G75*
G01*
G04 Top*
%LPD*%
X805295Y2754509D2*
D13*
Y2651633D1*
X917772Y2539156D1*
Y2431020D1*
X2662512Y2997843D2*
X2576594D1*
X2576264Y2997512D1*
X2427097D1*
X1404514Y2149243D2*
Y1872866D1*
X1475383Y1801997D1*
X917772Y2431020D2*
X1122738D1*
X1404514Y2149243D1*
X2427097Y2997512D2*
X2359672D1*
Y2997008D1*
X2270639D1*
X1475383Y1701997D2*
X1006592D1*
X806592Y1901997D1*
Y2298331D1*
X1428555Y3209573D2*
X1530885Y3107244D1*
X2270639D1*
X2662512Y3197843D2*
X2735117Y3270448D1*
X3222353D1*
X3245975Y3246825D1*
Y2776349D1*
X3196761D1*
X737972Y2754509D2*
Y2807660D1*
X761594Y2831282D1*
X872618D1*
Y2754509D1*
X666364Y2300066D2*
X558054D1*
Y2495336D1*
X737972Y2675255D1*
Y2754509D1*
X806592Y2298331D2*
X698133D1*
X696398Y2300066D1*
X666364D1*
X3245975Y3246825D2*
X3263692Y3264542D1*
X3640765D1*
X2427222Y3298882D2*
X2528261Y3197843D1*
X2662512D1*
X2427097Y3107748D2*
Y3172538D1*
X2427222Y3172663D1*
Y3298882D1*
X2270639Y3107244D2*
X2427097D1*
Y3107748D1*
X618134Y1830593D2*
X486412D1*
X467089Y1849916D1*
Y2219778D1*
X547377Y2300066D1*
X558054D1*
X1032906Y608946D2*
X872420D1*
X850850Y587377D1*
X609269D1*
X1357906Y608946D2*
X1032906D1*
X1687087Y615068D2*
X1357906D1*
Y608946D1*
X3304844Y615068D2*
X3441070D1*
X3468761Y587377D1*
X3640765D1*
X2992089Y615068D2*
X3134318D1*
X3304844D1*
X2657906D2*
X2759546D1*
X2992089D1*
X2332906D2*
X2535684D1*
X2657906D1*
X2009026Y614098D2*
X2249711D1*
X2250681Y615068D1*
X2332906D1*
X1687087D2*
X2009026Y614098D1*
X1003786Y2036629D2*
D14*
X916828Y2123587D1*
Y2298331D1*
X2873199Y1601445D2*
Y1094148D1*
D15*
X2871331Y1092280D1*
X2527455Y2648668D2*
D13*
X2824430D1*
X2848054Y2672291D1*
Y2776944D1*
X618134Y2027444D2*
D14*
X696249D1*
X732896Y1990797D1*
Y1565786D1*
X1003786Y1294896D1*
X1067571Y3197929D2*
D13*
X1168524Y3298882D1*
X1685490D1*
X3086525Y2776349D2*
X3008101D1*
X3007507Y2776944D1*
X2958290D1*
X807535Y2431020D2*
Y2410302D1*
X666364D1*
X3173199Y2401445D2*
D14*
Y2539072D1*
X3355030Y2720903D1*
X3520404D1*
X3173199Y2301445D2*
X3395807Y2524052D1*
X3520404D1*
X3173199Y2201445D2*
X3394647D1*
X3520404Y2327202D1*
X3173199Y2101445D2*
X3382689D1*
X3411596Y2130352D1*
X3520404D1*
X3173199Y2001445D2*
X3452461D1*
X3520404Y1933501D1*
X2873199Y2401445D2*
D13*
Y2579529D1*
X2851307Y2601421D1*
X2604228D1*
X1546251D1*
X1522629Y2577799D1*
Y1672865D1*
X1499007Y1649243D1*
X1169325D1*
X1145701Y1625618D1*
Y912566D1*
X2873199Y2301445D2*
X2673223Y2501421D1*
X2604228D1*
X1627432D1*
X1603807Y2477797D1*
Y936188D1*
X1580185Y912566D1*
X1470701D1*
X2873199Y2201445D2*
X2673223Y2401421D1*
X2604228D1*
X1795701Y1592894D1*
Y912566D1*
X2604228Y2301421D2*
X2120701Y1817894D1*
Y912566D1*
X2604228Y2201421D2*
X2343928Y1941121D1*
Y1166735D1*
X2445701Y1064962D1*
Y912566D1*
X2770701D2*
X2770703Y1570471D1*
X2873199Y1901445D2*
X2798890D1*
X2798866Y1901421D1*
X2604228D1*
X2975395Y1540059D2*
X3095701Y1419753D1*
Y912566D1*
X2873199Y1801445D2*
X2817316D1*
X2817293Y1801421D1*
X2604228D1*
Y1701421D2*
X2798871D1*
X2798895Y1701445D1*
X2873199D1*
X3413341Y1161303D1*
Y912566D1*
X3420701D1*
X1360465D2*
X1357906D1*
Y719182D1*
X1685465Y912566D2*
X1687087D1*
Y725304D1*
X1035465Y912566D2*
X1032906D1*
Y719182D1*
X2010465Y912566D2*
X2009026D1*
Y724335D1*
X2335465Y912566D2*
X2332906D1*
Y725304D1*
X2660465Y912566D2*
X2657906D1*
Y725304D1*
X2985465Y912566D2*
X2992089D1*
Y725304D1*
X3310465Y912566D2*
X3304844D1*
Y725304D1*
D15*
X1404514Y2149243D3*
X2871331Y1092280D3*
X2770703Y1570471D3*
X2975395Y1540059D3*
X2527455Y2648668D3*
X403165Y3441077D2*
D16*
X3848803D1*
X403165Y3425461D2*
X3848803D1*
X403165Y3409844D2*
X3848803D1*
X403165Y3394227D2*
X3848803D1*
X403165Y3378610D2*
X562539D1*
X655995D2*
X3594035D1*
X3687491D2*
X3848803D1*
X403165Y3362993D2*
X534488D1*
X684046D2*
X1604555D1*
X1766446D2*
X2378854D1*
X2475600D2*
X3565984D1*
X3715542D2*
X3848803D1*
X403165Y3347377D2*
X517203D1*
X701332D2*
X1604555D1*
X1766446D2*
X2362829D1*
X2491625D2*
X3548699D1*
X3732828D2*
X3848803D1*
X403165Y3331760D2*
X505084D1*
X713482D2*
X1604555D1*
X1766446D2*
X2353417D1*
X2501037D2*
X3536580D1*
X3744978D2*
X3848803D1*
X403165Y3316143D2*
X496411D1*
X722155D2*
X1141556D1*
X1766446D2*
X2348189D1*
X2506265D2*
X3527907D1*
X3753651D2*
X3848803D1*
X403165Y3300526D2*
X490413D1*
X728122D2*
X1125932D1*
X1766446D2*
X2346281D1*
X2508142D2*
X3521909D1*
X3759618D2*
X3848803D1*
X403165Y3284909D2*
X486722D1*
X731812D2*
X1110337D1*
X1766446D2*
X2347512D1*
X2506942D2*
X3518218D1*
X3763308D2*
X3848803D1*
X403165Y3269293D2*
X485122D1*
X733444D2*
X1094713D1*
X1766446D2*
X2352003D1*
X2502451D2*
X3516618D1*
X3764940D2*
X3848803D1*
X403165Y3253676D2*
X485492D1*
X733043D2*
X1010252D1*
X1167529D2*
X1392879D1*
X1464219D2*
X1604555D1*
X1766446D2*
X2360399D1*
X2494024D2*
X3516988D1*
X3764539D2*
X3848803D1*
X403165Y3238059D2*
X487921D1*
X730613D2*
X1010252D1*
X1151934D2*
X1379070D1*
X1478060D2*
X1604555D1*
X1766446D2*
X2374640D1*
X2479783D2*
X2622333D1*
X2702685D2*
X3519417D1*
X3762109D2*
X3848803D1*
X403165Y3222442D2*
X492474D1*
X726062D2*
X1010252D1*
X1136310D2*
X1372734D1*
X1484366D2*
X1604555D1*
X1766446D2*
X2404291D1*
X2450163D2*
X2610923D1*
X2714127D2*
X3523970D1*
X3757558D2*
X3848803D1*
X403165Y3206825D2*
X499455D1*
X719110D2*
X1010252D1*
X1124899D2*
X1371287D1*
X1485811D2*
X2605908D1*
X2719110D2*
X3530951D1*
X3750606D2*
X3848803D1*
X403165Y3191209D2*
X509360D1*
X709175D2*
X1010252D1*
X1124899D2*
X1374332D1*
X1482766D2*
X2605571D1*
X2719449D2*
X3540856D1*
X3740671D2*
X3848803D1*
X403165Y3175592D2*
X523201D1*
X695335D2*
X1010252D1*
X1124899D2*
X1382791D1*
X1474339D2*
X2609815D1*
X2715203D2*
X3554697D1*
X3726831D2*
X3848803D1*
X403165Y3159975D2*
X543531D1*
X675003D2*
X1010252D1*
X1124899D2*
X1401522D1*
X1455576D2*
X2209378D1*
X2331899D2*
X2365844D1*
X2488365D2*
X2620026D1*
X2704992D2*
X3575028D1*
X3706499D2*
X3848803D1*
X403165Y3144358D2*
X583087D1*
X635449D2*
X1010252D1*
X1124899D2*
X2209378D1*
X2331899D2*
X2365844D1*
X2488365D2*
X2645217D1*
X2679802D2*
X3614583D1*
X3666945D2*
X3848803D1*
X403165Y3128741D2*
X2209378D1*
X2331899D2*
X2365844D1*
X2488365D2*
X3848803D1*
X403165Y3113125D2*
X2209378D1*
X2331899D2*
X2365844D1*
X2488365D2*
X3848803D1*
X403165Y3097508D2*
X2209378D1*
X2331899D2*
X2365844D1*
X2488365D2*
X3848803D1*
X403165Y3081891D2*
X2209378D1*
X2331899D2*
X2365844D1*
X2488365D2*
X3848803D1*
X403165Y3066274D2*
X2209378D1*
X2331899D2*
X2365844D1*
X2488365D2*
X3848803D1*
X403165Y3050657D2*
X1047899D1*
X1087251D2*
X1371226D1*
X1485873D2*
X2209378D1*
X2331899D2*
X2365844D1*
X2488365D2*
X2605201D1*
X2719848D2*
X3848803D1*
X403165Y3035041D2*
X1024400D1*
X1110749D2*
X1371226D1*
X1485873D2*
X2209378D1*
X2331899D2*
X2365844D1*
X2488365D2*
X2605201D1*
X2719848D2*
X3848803D1*
X403165Y3019424D2*
X1014558D1*
X1120592D2*
X1371226D1*
X1485873D2*
X2209378D1*
X2719848D2*
X3848803D1*
X403165Y3003807D2*
X1010559D1*
X1124591D2*
X1371226D1*
X1485873D2*
X2209378D1*
X2719848D2*
X3848803D1*
X403165Y2988190D2*
X1011113D1*
X1124037D2*
X1371226D1*
X1485873D2*
X2209378D1*
X2719848D2*
X3848803D1*
X403165Y2972573D2*
X1016341D1*
X1118808D2*
X1371226D1*
X1485873D2*
X2209378D1*
X2719848D2*
X3848803D1*
X403165Y2956957D2*
X1028184D1*
X1106936D2*
X1371226D1*
X1485873D2*
X2209378D1*
X2331899D2*
X2365844D1*
X2488365D2*
X2605201D1*
X2719848D2*
X3848803D1*
X403165Y2941340D2*
X2209378D1*
X2331899D2*
X3848803D1*
X403165Y2925723D2*
X3848803D1*
X403165Y2910106D2*
X3848803D1*
X403165Y2894490D2*
X3848803D1*
X403165Y2878873D2*
X3848803D1*
X403165Y2863256D2*
X3848803D1*
X403165Y2847639D2*
X3848803D1*
X403165Y2832022D2*
X2790732D1*
X3015615D2*
X3029198D1*
X3254081D2*
X3848803D1*
X403165Y2816406D2*
X2790732D1*
X3015615D2*
X3029198D1*
X3254081D2*
X3848803D1*
X403165Y2800789D2*
X549929D1*
X908978D2*
X2790732D1*
X3254081D2*
X3435510D1*
X3605276D2*
X3848803D1*
X403165Y2785172D2*
X549929D1*
X920728D2*
X2790732D1*
X3254081D2*
X3435510D1*
X3605276D2*
X3848803D1*
X403165Y2769555D2*
X549929D1*
X925495D2*
X2790732D1*
X3254081D2*
X3435510D1*
X3605276D2*
X3848803D1*
X403165Y2753938D2*
X549929D1*
X926018D2*
X2790732D1*
X3254081D2*
X3324474D1*
X3605276D2*
X3848803D1*
X403165Y2738322D2*
X549929D1*
X925341D2*
X2790732D1*
X3015615D2*
X3029198D1*
X3254081D2*
X3308726D1*
X3605276D2*
X3848803D1*
X403165Y2722705D2*
X549929D1*
X920143D2*
X2790732D1*
X3015615D2*
X3029198D1*
X3254081D2*
X3293131D1*
X3605276D2*
X3848803D1*
X403165Y2707088D2*
X549929D1*
X907656D2*
X2816323D1*
X2879789D2*
X3277507D1*
X3605276D2*
X3848803D1*
X403165Y2691471D2*
X773570D1*
X837035D2*
X2816323D1*
X2879789D2*
X3261882D1*
X3605276D2*
X3848803D1*
X403165Y2675854D2*
X773570D1*
X837035D2*
X2502193D1*
X2879789D2*
X3246257D1*
X3373699D2*
X3435510D1*
X3605276D2*
X3848803D1*
X403165Y2660238D2*
X773570D1*
X840911D2*
X2491735D1*
X2877266D2*
X3230663D1*
X3358073D2*
X3435510D1*
X3605276D2*
X3848803D1*
X403165Y2644621D2*
X774400D1*
X856535D2*
X1420039D1*
X1530748D2*
X2490043D1*
X2864594D2*
X3215038D1*
X3342449D2*
X3435510D1*
X3605276D2*
X3848803D1*
X403165Y2629004D2*
X783689D1*
X872161D2*
X1420039D1*
X2865087D2*
X3199412D1*
X3326854D2*
X3848803D1*
X403165Y2613387D2*
X799314D1*
X887756D2*
X1420039D1*
X2883572D2*
X3183819D1*
X3311230D2*
X3848803D1*
X403165Y2597770D2*
X814940D1*
X903381D2*
X1420039D1*
X2898798D2*
X3168193D1*
X3295605D2*
X3480017D1*
X3560768D2*
X3848803D1*
X403165Y2582154D2*
X830564D1*
X919005D2*
X1420039D1*
X2904825D2*
X3152568D1*
X3279980D2*
X3459133D1*
X3581684D2*
X3848803D1*
X403165Y2566537D2*
X846159D1*
X934630D2*
X1420039D1*
X1555601D2*
X2561710D1*
X2904919D2*
X3137343D1*
X3264386D2*
X3383037D1*
X3593648D2*
X3848803D1*
X403165Y2550920D2*
X861783D1*
X947118D2*
X1420039D1*
X1554370D2*
X2581640D1*
X2904919D2*
X3129315D1*
X3248760D2*
X3358954D1*
X3600846D2*
X3848803D1*
X403165Y2535303D2*
X877408D1*
X949517D2*
X1431573D1*
X1554370D2*
X2560879D1*
X2904919D2*
X3127685D1*
X3233135D2*
X3343360D1*
X3604537D2*
X3848803D1*
X403165Y2519686D2*
X886051D1*
X949517D2*
X1423022D1*
X1554370D2*
X1601479D1*
X2904919D2*
X3127685D1*
X3218710D2*
X3327735D1*
X3605182D2*
X3848803D1*
X403165Y2504070D2*
X886051D1*
X949517D2*
X1420070D1*
X1554370D2*
X1585854D1*
X2904919D2*
X3127685D1*
X3218710D2*
X3312109D1*
X3602845D2*
X3848803D1*
X403165Y2488453D2*
X750224D1*
X975108D2*
X1421761D1*
X1554370D2*
X1574013D1*
X2904919D2*
X3127685D1*
X3218710D2*
X3296484D1*
X3597308D2*
X3848803D1*
X403165Y2472836D2*
X750224D1*
X975108D2*
X1428621D1*
X1554370D2*
X1572075D1*
X2904919D2*
X3127685D1*
X3218710D2*
X3280890D1*
X3408302D2*
X3453134D1*
X3587681D2*
X3848803D1*
X403165Y2457219D2*
X605109D1*
X727630D2*
X750224D1*
X1139262D2*
X1444030D1*
X1554370D2*
X1572075D1*
X2904919D2*
X3127685D1*
X3218710D2*
X3265265D1*
X3392677D2*
X3469097D1*
X3571718D2*
X3848803D1*
X403165Y2441602D2*
X605109D1*
X727630D2*
X750224D1*
X1156364D2*
X1437417D1*
X1554370D2*
X1572075D1*
X2928541D2*
X3127685D1*
X3218710D2*
X3249640D1*
X3377083D2*
X3506899D1*
X3533886D2*
X3848803D1*
X403165Y2425986D2*
X605109D1*
X1171988D2*
X1425668D1*
X1554370D2*
X1572075D1*
X2928541D2*
X3123780D1*
X3222617D2*
X3234024D1*
X3361457D2*
X3848803D1*
X403165Y2410369D2*
X605109D1*
X1187614D2*
X1420685D1*
X1554370D2*
X1572075D1*
X2928541D2*
X3118581D1*
X3345832D2*
X3514004D1*
X3526818D2*
X3848803D1*
X403165Y2394752D2*
X605109D1*
X975108D2*
X1114766D1*
X1203239D2*
X1420531D1*
X1554370D2*
X1572075D1*
X2928541D2*
X3118273D1*
X3330207D2*
X3470081D1*
X3570734D2*
X3848803D1*
X403165Y2379135D2*
X605109D1*
X727630D2*
X750224D1*
X975108D2*
X1130392D1*
X1218833D2*
X1425144D1*
X1554370D2*
X1572075D1*
X2928541D2*
X3122702D1*
X3314613D2*
X3453688D1*
X3587127D2*
X3848803D1*
X403165Y2363518D2*
X605109D1*
X727630D2*
X1146017D1*
X1234458D2*
X1436248D1*
X1554370D2*
X1572075D1*
X2643969D2*
X2666902D1*
X2928541D2*
X3133499D1*
X3298988D2*
X3443845D1*
X3596940D2*
X3848803D1*
X403165Y2347902D2*
X605109D1*
X727630D2*
X749272D1*
X974154D2*
X1161642D1*
X1250083D2*
X1445783D1*
X1554370D2*
X1572075D1*
X2632865D2*
X2682526D1*
X2928541D2*
X3144541D1*
X3283364D2*
X3438125D1*
X3602660D2*
X3848803D1*
X403165Y2332285D2*
X605109D1*
X727630D2*
X749272D1*
X974154D2*
X1177236D1*
X1265709D2*
X1429358D1*
X1554370D2*
X1572075D1*
X2649843D2*
X2698121D1*
X2918820D2*
X3127562D1*
X3267738D2*
X3435664D1*
X3605121D2*
X3848803D1*
X403165Y2316668D2*
X605109D1*
X727630D2*
X749272D1*
X974154D2*
X1192861D1*
X1281302D2*
X1422068D1*
X1554370D2*
X1572075D1*
X2657379D2*
X2713745D1*
X2926357D2*
X3120058D1*
X3252144D2*
X3436186D1*
X3604629D2*
X3848803D1*
X403165Y2301051D2*
X605109D1*
X727630D2*
X749272D1*
X974154D2*
X1208486D1*
X1296928D2*
X1420039D1*
X1554370D2*
X1572075D1*
X2659593D2*
X2729370D1*
X2928541D2*
X3117843D1*
X3236518D2*
X3430528D1*
X3601062D2*
X3848803D1*
X403165Y2285434D2*
X605109D1*
X727630D2*
X749272D1*
X974154D2*
X1224112D1*
X1312552D2*
X1422654D1*
X1554370D2*
X1572075D1*
X2532471D2*
X2544024D1*
X2657164D2*
X2744996D1*
X2926110D2*
X3120273D1*
X3226122D2*
X3414933D1*
X3594049D2*
X3848803D1*
X403165Y2269818D2*
X605109D1*
X727630D2*
X749272D1*
X974154D2*
X1239705D1*
X1328177D2*
X1430711D1*
X1554370D2*
X1572075D1*
X2516846D2*
X2528399D1*
X2649320D2*
X2760591D1*
X2918268D2*
X3128115D1*
X3218280D2*
X3399308D1*
X3582361D2*
X3848803D1*
X403165Y2254201D2*
X605109D1*
X727630D2*
X749272D1*
X974154D2*
X1255331D1*
X1343772D2*
X1449167D1*
X1554370D2*
X1572075D1*
X2501220D2*
X2512774D1*
X2631542D2*
X2776215D1*
X2900458D2*
X3145925D1*
X3200471D2*
X3383682D1*
X3562122D2*
X3848803D1*
X403165Y2238584D2*
X871319D1*
X962343D2*
X1270955D1*
X1359396D2*
X1434403D1*
X1554370D2*
X1572075D1*
X2485627D2*
X2497180D1*
X2644676D2*
X2791840D1*
X2913684D2*
X3132730D1*
X3495500D2*
X3848803D1*
X403165Y2222967D2*
X871319D1*
X962343D2*
X1286580D1*
X1375021D2*
X1424283D1*
X1554370D2*
X1572075D1*
X2470001D2*
X2481555D1*
X2655072D2*
X2807465D1*
X2924050D2*
X3122333D1*
X3479875D2*
X3848803D1*
X403165Y2207350D2*
X871319D1*
X962343D2*
X1302175D1*
X1390615D2*
X1420285D1*
X1554370D2*
X1572075D1*
X2454377D2*
X2465929D1*
X2659255D2*
X2818169D1*
X2928232D2*
X3118181D1*
X3464251D2*
X3487029D1*
X3553786D2*
X3848803D1*
X403165Y2191734D2*
X871319D1*
X962343D2*
X1317799D1*
X1406240D2*
X1421024D1*
X1554370D2*
X1572075D1*
X2438752D2*
X2450304D1*
X2538777D2*
X2549744D1*
X2658701D2*
X2818722D1*
X2927678D2*
X3118735D1*
X3448656D2*
X3462516D1*
X3578301D2*
X3848803D1*
X403165Y2176117D2*
X871319D1*
X962343D2*
X1333425D1*
X1554370D2*
X1572075D1*
X2423157D2*
X2434710D1*
X2523151D2*
X2534705D1*
X2653257D2*
X2824197D1*
X2922205D2*
X3124178D1*
X3433031D2*
X3449228D1*
X3591588D2*
X3848803D1*
X403165Y2160500D2*
X871319D1*
X962343D2*
X1349018D1*
X1554370D2*
X1572075D1*
X2407533D2*
X2419085D1*
X2507526D2*
X2519079D1*
X2640709D2*
X2836747D1*
X2909655D2*
X3136759D1*
X3599646D2*
X3848803D1*
X403165Y2144883D2*
X871319D1*
X962343D2*
X1364644D1*
X1554370D2*
X1572075D1*
X2391908D2*
X2403461D1*
X2491902D2*
X2503454D1*
X2637479D2*
X2839915D1*
X2906487D2*
X3139927D1*
X3604014D2*
X3848803D1*
X403165Y2129266D2*
X871319D1*
X974862D2*
X1372795D1*
X1554370D2*
X1572075D1*
X2376282D2*
X2387835D1*
X2476307D2*
X2487860D1*
X2651811D2*
X2825612D1*
X2920789D2*
X3125593D1*
X3605276D2*
X3848803D1*
X403165Y2113650D2*
X872457D1*
X1084728D2*
X1372795D1*
X1554370D2*
X1572075D1*
X2360689D2*
X2372241D1*
X2460682D2*
X2472235D1*
X2658178D2*
X2819245D1*
X2927156D2*
X3119257D1*
X3603583D2*
X3848803D1*
X403165Y2098033D2*
X533259D1*
X703024D2*
X879500D1*
X1084728D2*
X1372795D1*
X1554370D2*
X1572075D1*
X2345063D2*
X2356615D1*
X2445058D2*
X2456610D1*
X2659470D2*
X2817953D1*
X2928448D2*
X3117966D1*
X3598755D2*
X3848803D1*
X403165Y2082416D2*
X533259D1*
X703024D2*
X894294D1*
X1084728D2*
X1372795D1*
X1554370D2*
X1572075D1*
X2329438D2*
X2340991D1*
X2429432D2*
X2440984D1*
X2529457D2*
X2552360D1*
X2656118D2*
X2821337D1*
X2925064D2*
X3121319D1*
X3427371D2*
X3450705D1*
X3590112D2*
X3848803D1*
X403165Y2066799D2*
X533259D1*
X717357D2*
X909920D1*
X1084728D2*
X1372795D1*
X1554370D2*
X1572075D1*
X2313844D2*
X2325396D1*
X2413839D2*
X2425391D1*
X2513832D2*
X2561495D1*
X2646951D2*
X2830503D1*
X2915899D2*
X3130484D1*
X3411285D2*
X3464976D1*
X3575840D2*
X3848803D1*
X403165Y2051182D2*
X533259D1*
X736211D2*
X922837D1*
X1084728D2*
X1372795D1*
X1554370D2*
X1572075D1*
X2298219D2*
X2309772D1*
X2398213D2*
X2409765D1*
X2498207D2*
X2582256D1*
X2626190D2*
X2851172D1*
X2895230D2*
X3151184D1*
X3195241D2*
X3492904D1*
X3547912D2*
X3848803D1*
X403165Y2035566D2*
X533259D1*
X751836D2*
X922837D1*
X1084728D2*
X1372795D1*
X1554370D2*
X1572075D1*
X2282594D2*
X2294147D1*
X2382588D2*
X2394140D1*
X2482581D2*
X2561094D1*
X2647352D2*
X2830041D1*
X2916329D2*
X3130054D1*
X3481720D2*
X3848803D1*
X403165Y2019949D2*
X533259D1*
X767339D2*
X922837D1*
X1084728D2*
X1372795D1*
X1554370D2*
X1572075D1*
X2266969D2*
X2278522D1*
X2366993D2*
X2378546D1*
X2466988D2*
X2552175D1*
X2656302D2*
X2821122D1*
X2925280D2*
X3121134D1*
X3497654D2*
X3848803D1*
X403165Y2004332D2*
X533259D1*
X776259D2*
X922837D1*
X1084728D2*
X1372795D1*
X1554370D2*
X1572075D1*
X2251375D2*
X2262928D1*
X2351369D2*
X2362921D1*
X2451362D2*
X2548945D1*
X2659501D2*
X2817923D1*
X2928479D2*
X3117934D1*
X3565844D2*
X3848803D1*
X403165Y1988715D2*
X533259D1*
X778411D2*
X922837D1*
X1084728D2*
X1372795D1*
X1554370D2*
X1572075D1*
X2235749D2*
X2247303D1*
X2335744D2*
X2347297D1*
X2435738D2*
X2550391D1*
X2658055D2*
X2819369D1*
X2927033D2*
X3119381D1*
X3584360D2*
X3848803D1*
X403165Y1973098D2*
X533259D1*
X778411D2*
X922837D1*
X1084728D2*
X1372795D1*
X1554370D2*
X1572075D1*
X2220125D2*
X2231677D1*
X2320118D2*
X2331672D1*
X2420143D2*
X2556942D1*
X2651535D2*
X2825920D1*
X2920482D2*
X3125932D1*
X3595278D2*
X3848803D1*
X403165Y1957482D2*
X533259D1*
X778411D2*
X922837D1*
X1084728D2*
X1372795D1*
X1554370D2*
X1572075D1*
X2204500D2*
X2216052D1*
X2304525D2*
X2317030D1*
X2404518D2*
X2571644D1*
X2636802D2*
X2840652D1*
X2905748D2*
X3140634D1*
X3205761D2*
X3432711D1*
X3601769D2*
X3848803D1*
X403165Y1941865D2*
X687386D1*
X778411D2*
X1372795D1*
X1554370D2*
X1572075D1*
X2188906D2*
X2200458D1*
X2288899D2*
X2312202D1*
X2388894D2*
X2567215D1*
X2641261D2*
X2836161D1*
X2910239D2*
X3136143D1*
X3210252D2*
X3435941D1*
X3604875D2*
X3848803D1*
X403165Y1926248D2*
X687386D1*
X778411D2*
X1372795D1*
X1554370D2*
X1572075D1*
X2173281D2*
X2184833D1*
X2273274D2*
X2312202D1*
X2375668D2*
X2554942D1*
X2922480D2*
X3123902D1*
X3222493D2*
X3435848D1*
X3604967D2*
X3848803D1*
X403165Y1910631D2*
X593451D1*
X642831D2*
X687386D1*
X778411D2*
X1372795D1*
X1554370D2*
X1572075D1*
X2157656D2*
X2169209D1*
X2257650D2*
X2312202D1*
X2375668D2*
X2549684D1*
X2927772D2*
X3118642D1*
X3227753D2*
X3438709D1*
X3602076D2*
X3848803D1*
X403165Y1895014D2*
X563740D1*
X672542D2*
X687386D1*
X778411D2*
X1372795D1*
X1554370D2*
X1572075D1*
X2142030D2*
X2153583D1*
X2242055D2*
X2312202D1*
X2375668D2*
X2549252D1*
X2928171D2*
X3118243D1*
X3228152D2*
X3444953D1*
X3595864D2*
X3848803D1*
X403165Y1879398D2*
X549037D1*
X778411D2*
X1372795D1*
X1554370D2*
X1572075D1*
X2126437D2*
X2137990D1*
X2226430D2*
X2312202D1*
X2375668D2*
X2553589D1*
X2923835D2*
X3122579D1*
X3223816D2*
X3455472D1*
X3585314D2*
X3848803D1*
X403165Y1863781D2*
X540148D1*
X778411D2*
X1374178D1*
X1554370D2*
X1572075D1*
X2110811D2*
X2122364D1*
X2210806D2*
X2312202D1*
X2375668D2*
X2564232D1*
X2913161D2*
X3133222D1*
X3213173D2*
X3473219D1*
X3567566D2*
X3848803D1*
X403165Y1848164D2*
X535135D1*
X778411D2*
X1385005D1*
X1554370D2*
X1572075D1*
X2095186D2*
X2106739D1*
X2195180D2*
X2312202D1*
X2375668D2*
X2576043D1*
X2901412D2*
X3145001D1*
X3201424D2*
X3848803D1*
X403165Y1832547D2*
X533289D1*
X778411D2*
X1400600D1*
X1554370D2*
X1572075D1*
X2079592D2*
X2092776D1*
X2179587D2*
X2312202D1*
X2375668D2*
X2558787D1*
X2918636D2*
X3127747D1*
X3218648D2*
X3848803D1*
X403165Y1816930D2*
X534366D1*
X778411D2*
X1416224D1*
X1554370D2*
X1572075D1*
X2063967D2*
X2088961D1*
X2163961D2*
X2312202D1*
X2375668D2*
X2551160D1*
X2926264D2*
X3120118D1*
X3226277D2*
X3496564D1*
X3544220D2*
X3848803D1*
X403165Y1801314D2*
X538580D1*
X778411D2*
X1420039D1*
X1554370D2*
X1572075D1*
X2048343D2*
X2088961D1*
X2152427D2*
X2312202D1*
X2375668D2*
X2548883D1*
X2928541D2*
X3117843D1*
X3228552D2*
X3466299D1*
X3574517D2*
X3848803D1*
X403165Y1785697D2*
X546392D1*
X778411D2*
X1422560D1*
X1554370D2*
X1572075D1*
X2032717D2*
X2088961D1*
X2152427D2*
X2312202D1*
X2375668D2*
X2551220D1*
X2926202D2*
X3120211D1*
X3226184D2*
X3451504D1*
X3589311D2*
X3848803D1*
X403165Y1770080D2*
X559311D1*
X676971D2*
X687386D1*
X778411D2*
X1430528D1*
X1554370D2*
X1572075D1*
X2017123D2*
X2088961D1*
X2152427D2*
X2312202D1*
X2375668D2*
X2558941D1*
X2918451D2*
X3127932D1*
X3218465D2*
X3442522D1*
X3598293D2*
X3848803D1*
X403165Y1754463D2*
X582717D1*
X653534D2*
X687386D1*
X778411D2*
X1448643D1*
X1554370D2*
X1572075D1*
X2001497D2*
X2088961D1*
X2152427D2*
X2312202D1*
X2375668D2*
X2576442D1*
X2900950D2*
X3145463D1*
X3200932D2*
X3437448D1*
X3603367D2*
X3848803D1*
X403165Y1738846D2*
X687386D1*
X778411D2*
X1434648D1*
X1554370D2*
X1572075D1*
X1985873D2*
X2088961D1*
X2152427D2*
X2312202D1*
X2375668D2*
X2564047D1*
X2913407D2*
X3132975D1*
X3213420D2*
X3435541D1*
X3605244D2*
X3848803D1*
X403165Y1723230D2*
X687386D1*
X778411D2*
X1424407D1*
X1554370D2*
X1572075D1*
X1970248D2*
X2088961D1*
X2152427D2*
X2312202D1*
X2375668D2*
X2553497D1*
X2923957D2*
X3122457D1*
X3223938D2*
X3436617D1*
X3604198D2*
X3848803D1*
X403165Y1707613D2*
X687386D1*
X778411D2*
X1420315D1*
X1554370D2*
X1572075D1*
X1954654D2*
X2088961D1*
X2152427D2*
X2312202D1*
X2375668D2*
X2549222D1*
X2928202D2*
X3118211D1*
X3228214D2*
X3440739D1*
X3600046D2*
X3848803D1*
X403165Y1691996D2*
X687386D1*
X778411D2*
X1420962D1*
X1554370D2*
X1572075D1*
X1939029D2*
X2088961D1*
X2152427D2*
X2312202D1*
X2375668D2*
X2549714D1*
X2927710D2*
X3118673D1*
X3227722D2*
X3448490D1*
X3592295D2*
X3848803D1*
X403165Y1676379D2*
X687386D1*
X778411D2*
X1154598D1*
X1554370D2*
X1572075D1*
X1923404D2*
X2088961D1*
X2152427D2*
X2312202D1*
X2375668D2*
X2555066D1*
X2942504D2*
X3124055D1*
X3222370D2*
X3461316D1*
X3579500D2*
X3848803D1*
X403165Y1660762D2*
X687386D1*
X778411D2*
X1136635D1*
X1551818D2*
X1572075D1*
X1907778D2*
X2088961D1*
X2152427D2*
X2312202D1*
X2375668D2*
X2567461D1*
X2641016D2*
X2836438D1*
X2958098D2*
X3136451D1*
X3209944D2*
X3484476D1*
X3556339D2*
X3848803D1*
X403165Y1645146D2*
X687386D1*
X778411D2*
X1121134D1*
X1539146D2*
X1572075D1*
X1892185D2*
X2088961D1*
X2152427D2*
X2312202D1*
X2375668D2*
X2571337D1*
X2637109D2*
X2840283D1*
X2973723D2*
X3140265D1*
X3206130D2*
X3848803D1*
X403165Y1629529D2*
X687386D1*
X778411D2*
X1114213D1*
X1523521D2*
X1572075D1*
X1876559D2*
X2088961D1*
X2152427D2*
X2312202D1*
X2375668D2*
X2556819D1*
X2651657D2*
X2825766D1*
X2989349D2*
X3125748D1*
X3220648D2*
X3848803D1*
X403165Y1613912D2*
X687386D1*
X778411D2*
X1113967D1*
X1178232D2*
X1421361D1*
X1529395D2*
X1572075D1*
X1860934D2*
X2088961D1*
X2152427D2*
X2312202D1*
X2375668D2*
X2550360D1*
X2658117D2*
X2819307D1*
X3004942D2*
X3119319D1*
X3227076D2*
X3480786D1*
X3560030D2*
X3848803D1*
X403165Y1598295D2*
X687386D1*
X778411D2*
X1113967D1*
X1177433D2*
X1420161D1*
X1530594D2*
X1572075D1*
X1845340D2*
X2088961D1*
X2152427D2*
X2312202D1*
X2375668D2*
X2548976D1*
X2659501D2*
X2746196D1*
X2795236D2*
X2817923D1*
X3020568D2*
X3117934D1*
X3228461D2*
X3459501D1*
X3581283D2*
X3848803D1*
X403165Y1582678D2*
X687386D1*
X779703D2*
X1113967D1*
X1177433D2*
X1423606D1*
X1527150D2*
X1572075D1*
X1829715D2*
X2088961D1*
X2152427D2*
X2312202D1*
X2375668D2*
X2552236D1*
X2656210D2*
X2735184D1*
X2806217D2*
X2821214D1*
X2925188D2*
X2947752D1*
X3036193D2*
X3121226D1*
X3225169D2*
X3447413D1*
X3593403D2*
X3848803D1*
X403165Y1567062D2*
X687386D1*
X795328D2*
X1113967D1*
X1177433D2*
X1432927D1*
X1517831D2*
X1572075D1*
X1827440D2*
X2088961D1*
X2152427D2*
X2312202D1*
X2375668D2*
X2561280D1*
X2647167D2*
X2733215D1*
X2808185D2*
X2827673D1*
X2918698D2*
X2949904D1*
X3051818D2*
X3130269D1*
X3216126D2*
X3440123D1*
X3600692D2*
X3848803D1*
X403165Y1551445D2*
X689785D1*
X810953D2*
X1113967D1*
X1177433D2*
X1452673D1*
X1498114D2*
X1572075D1*
X1827440D2*
X2088961D1*
X2152427D2*
X2312202D1*
X2375668D2*
X2582778D1*
X2625668D2*
X2738505D1*
X2802925D2*
X2827673D1*
X2918698D2*
X2939601D1*
X3067412D2*
X3151831D1*
X3194566D2*
X3436340D1*
X3604475D2*
X3848803D1*
X403165Y1535828D2*
X699167D1*
X826577D2*
X1113967D1*
X1177433D2*
X1432004D1*
X1518753D2*
X1572075D1*
X1827440D2*
X2088961D1*
X2152427D2*
X2312202D1*
X2375668D2*
X2561310D1*
X2647136D2*
X2738967D1*
X2802433D2*
X2827673D1*
X2918698D2*
X2938001D1*
X3083037D2*
X3435602D1*
X3605182D2*
X3848803D1*
X403165Y1520211D2*
X714761D1*
X842172D2*
X1113967D1*
X1177433D2*
X1423207D1*
X1527550D2*
X1572075D1*
X1827440D2*
X2088961D1*
X2152427D2*
X2312202D1*
X2375668D2*
X2552266D1*
X2656180D2*
X2738967D1*
X2802433D2*
X2827673D1*
X2918698D2*
X2943722D1*
X3098661D2*
X3437848D1*
X3602937D2*
X3848803D1*
X403165Y1504594D2*
X730386D1*
X857797D2*
X1113967D1*
X1177433D2*
X1420100D1*
X1530688D2*
X1572075D1*
X1827440D2*
X2088961D1*
X2152427D2*
X2312202D1*
X2375668D2*
X2548976D1*
X2659501D2*
X2738967D1*
X2802433D2*
X2827673D1*
X2918698D2*
X2966636D1*
X3114287D2*
X3443323D1*
X3597493D2*
X3848803D1*
X403165Y1488978D2*
X745980D1*
X873423D2*
X1113967D1*
X1177433D2*
X1421638D1*
X1529150D2*
X1572075D1*
X1827440D2*
X2088961D1*
X2152427D2*
X2312202D1*
X2375668D2*
X2550329D1*
X2658117D2*
X2738967D1*
X2802433D2*
X2827673D1*
X2918698D2*
X2982262D1*
X3129882D2*
X3452827D1*
X3587990D2*
X3848803D1*
X403165Y1473361D2*
X761605D1*
X889047D2*
X1113967D1*
X1177433D2*
X1428282D1*
X1522475D2*
X1572075D1*
X1827440D2*
X2088961D1*
X2152427D2*
X2312202D1*
X2375668D2*
X2556789D1*
X2651689D2*
X2738967D1*
X2802433D2*
X2827673D1*
X2918698D2*
X2997856D1*
X3145507D2*
X3468575D1*
X3572241D2*
X3848803D1*
X403165Y1457744D2*
X777230D1*
X904642D2*
X1113967D1*
X1177433D2*
X1443261D1*
X1507526D2*
X1572075D1*
X1827440D2*
X2088961D1*
X2152427D2*
X2312202D1*
X2375668D2*
X2571276D1*
X2637171D2*
X2738967D1*
X2802433D2*
X2827673D1*
X2918698D2*
X3013482D1*
X3161131D2*
X3504438D1*
X3536346D2*
X3848803D1*
X403165Y1442127D2*
X792854D1*
X920266D2*
X1113967D1*
X1177433D2*
X1438001D1*
X1512756D2*
X1572075D1*
X1827440D2*
X2088961D1*
X2152427D2*
X2312202D1*
X2375668D2*
X2567492D1*
X2640954D2*
X2738967D1*
X2802433D2*
X2827673D1*
X2918698D2*
X3029106D1*
X3176756D2*
X3848803D1*
X403165Y1426510D2*
X808449D1*
X935891D2*
X1113967D1*
X1177433D2*
X1425945D1*
X1524812D2*
X1572075D1*
X1827440D2*
X2088961D1*
X2152427D2*
X2312202D1*
X2375668D2*
X2555097D1*
X2653381D2*
X2738967D1*
X2802433D2*
X2827673D1*
X2918698D2*
X3044731D1*
X3192350D2*
X3848803D1*
X403165Y1410894D2*
X824075D1*
X951486D2*
X1113967D1*
X1177433D2*
X1420777D1*
X1530010D2*
X1572075D1*
X1827440D2*
X2088961D1*
X2152427D2*
X2312202D1*
X2375668D2*
X2549714D1*
X2658732D2*
X2738967D1*
X2802433D2*
X2827673D1*
X2918698D2*
X3060325D1*
X3207975D2*
X3470635D1*
X3570180D2*
X3848803D1*
X403165Y1395277D2*
X839699D1*
X967110D2*
X1113967D1*
X1177433D2*
X1420438D1*
X1530318D2*
X1572075D1*
X1827440D2*
X2088961D1*
X2152427D2*
X2312202D1*
X2375668D2*
X2549222D1*
X2659224D2*
X2738967D1*
X2802433D2*
X2827673D1*
X2918698D2*
X3063955D1*
X3223601D2*
X3453996D1*
X3586790D2*
X3848803D1*
X403165Y1379660D2*
X855324D1*
X982736D2*
X1113967D1*
X1177433D2*
X1424899D1*
X1525888D2*
X1572075D1*
X1827440D2*
X2088961D1*
X2152427D2*
X2312202D1*
X2375668D2*
X2553466D1*
X2654980D2*
X2738967D1*
X2802433D2*
X2827673D1*
X2918698D2*
X3063955D1*
X3127421D2*
X3150753D1*
X3239194D2*
X3444060D1*
X3596755D2*
X3848803D1*
X403165Y1364043D2*
X870919D1*
X1044312D2*
X1113967D1*
X1177433D2*
X1435694D1*
X1515062D2*
X1572075D1*
X1827440D2*
X2088961D1*
X2152427D2*
X2312202D1*
X2375668D2*
X2563986D1*
X2644461D2*
X2738967D1*
X2802433D2*
X2827673D1*
X2918698D2*
X3063955D1*
X3127421D2*
X3166378D1*
X3254820D2*
X3438248D1*
X3602568D2*
X3848803D1*
X403165Y1348427D2*
X886543D1*
X1063967D2*
X1113967D1*
X1177433D2*
X1446675D1*
X1504113D2*
X1572075D1*
X1827440D2*
X2088961D1*
X2152427D2*
X2312202D1*
X2375668D2*
X2576535D1*
X2631942D2*
X2738967D1*
X2802433D2*
X2827673D1*
X2918698D2*
X3063955D1*
X3127421D2*
X3182004D1*
X3270445D2*
X3435694D1*
X3605121D2*
X3848803D1*
X403165Y1332810D2*
X902168D1*
X1075101D2*
X1113967D1*
X1177433D2*
X1429727D1*
X1521029D2*
X1572075D1*
X1827440D2*
X2088961D1*
X2152427D2*
X2312202D1*
X2375668D2*
X2558972D1*
X2649474D2*
X2738967D1*
X2802433D2*
X2827673D1*
X2918698D2*
X3063955D1*
X3127421D2*
X3197598D1*
X3286070D2*
X3436156D1*
X3604660D2*
X3848803D1*
X403165Y1317193D2*
X917794D1*
X1081530D2*
X1113967D1*
X1177433D2*
X1422223D1*
X1528534D2*
X1572075D1*
X1827440D2*
X2088961D1*
X2152427D2*
X2312202D1*
X2375668D2*
X2551252D1*
X2657224D2*
X2738967D1*
X2802433D2*
X2827673D1*
X2918698D2*
X3063955D1*
X3127421D2*
X3213223D1*
X3301664D2*
X3439601D1*
X3601215D2*
X3848803D1*
X403165Y1301576D2*
X923114D1*
X1084451D2*
X1113967D1*
X1177433D2*
X1420039D1*
X1530748D2*
X1572075D1*
X1827440D2*
X2088961D1*
X2152427D2*
X2312202D1*
X2375668D2*
X2548883D1*
X2659593D2*
X2738967D1*
X2802433D2*
X2827673D1*
X2918698D2*
X3063955D1*
X3127421D2*
X3228848D1*
X3317289D2*
X3446521D1*
X3594294D2*
X3848803D1*
X403165Y1285959D2*
X923361D1*
X1084236D2*
X1113967D1*
X1177433D2*
X1422469D1*
X1528287D2*
X1572075D1*
X1827440D2*
X2088961D1*
X2152427D2*
X2312202D1*
X2375668D2*
X2551160D1*
X2657318D2*
X2738967D1*
X2802433D2*
X2827673D1*
X2918698D2*
X3063955D1*
X3127421D2*
X3244472D1*
X3332913D2*
X3458055D1*
X3582730D2*
X3848803D1*
X403165Y1270343D2*
X926744D1*
X1080823D2*
X1113967D1*
X1177433D2*
X1430343D1*
X1520445D2*
X1572075D1*
X1827440D2*
X2088961D1*
X2152427D2*
X2312202D1*
X2375668D2*
X2558757D1*
X2649689D2*
X2738967D1*
X2802433D2*
X2827673D1*
X2918698D2*
X3063955D1*
X3127421D2*
X3260067D1*
X3348539D2*
X3477987D1*
X3562829D2*
X3848803D1*
X403165Y1254726D2*
X933757D1*
X1073810D2*
X1113967D1*
X1177433D2*
X1448151D1*
X1502605D2*
X1572075D1*
X1827440D2*
X2088961D1*
X2152427D2*
X2312202D1*
X2375668D2*
X2548883D1*
X2659593D2*
X2738967D1*
X2802433D2*
X2827673D1*
X2918698D2*
X3063955D1*
X3127421D2*
X3275692D1*
X3364134D2*
X3848803D1*
X403165Y1239109D2*
X945752D1*
X1061814D2*
X1113967D1*
X1177433D2*
X1434895D1*
X1515892D2*
X1572075D1*
X1827440D2*
X2088961D1*
X2152427D2*
X2312202D1*
X2375668D2*
X2548883D1*
X2659593D2*
X2738967D1*
X2802433D2*
X2827673D1*
X2918698D2*
X3063955D1*
X3127421D2*
X3291318D1*
X3379759D2*
X3848803D1*
X403165Y1223492D2*
X967559D1*
X1040007D2*
X1113967D1*
X1177433D2*
X1424499D1*
X1526259D2*
X1572075D1*
X1827440D2*
X2088961D1*
X2152427D2*
X2312202D1*
X2375668D2*
X2548883D1*
X2659593D2*
X2738967D1*
X2802433D2*
X2827673D1*
X2918698D2*
X3063955D1*
X3127421D2*
X3306942D1*
X3395383D2*
X3488013D1*
X3552802D2*
X3848803D1*
X403165Y1207875D2*
X1113967D1*
X1177433D2*
X1420346D1*
X1530411D2*
X1572075D1*
X1827440D2*
X2088961D1*
X2152427D2*
X2312202D1*
X2375668D2*
X2548883D1*
X2659593D2*
X2738967D1*
X2802433D2*
X2827673D1*
X2918698D2*
X3063955D1*
X3127421D2*
X3322537D1*
X3411008D2*
X3462946D1*
X3577870D2*
X3848803D1*
X403165Y1192259D2*
X1113967D1*
X1177433D2*
X1420930D1*
X1529857D2*
X1572075D1*
X1827440D2*
X2088961D1*
X2152427D2*
X2312202D1*
X2375668D2*
X2548883D1*
X2659593D2*
X2738967D1*
X2802433D2*
X2827673D1*
X2918698D2*
X3063955D1*
X3127421D2*
X3338161D1*
X3426602D2*
X3449474D1*
X3591341D2*
X3848803D1*
X403165Y1176642D2*
X1113967D1*
X1177433D2*
X1426375D1*
X1524382D2*
X1572075D1*
X1827440D2*
X2088961D1*
X2152427D2*
X2312202D1*
X2378251D2*
X2548883D1*
X2659593D2*
X2738967D1*
X2802433D2*
X2827673D1*
X2918698D2*
X3063955D1*
X3127421D2*
X3353786D1*
X3599492D2*
X3848803D1*
X403165Y1161025D2*
X1113967D1*
X1177433D2*
X1438986D1*
X1511802D2*
X1572075D1*
X1827440D2*
X2088961D1*
X2152427D2*
X2312756D1*
X2393877D2*
X2548883D1*
X2659593D2*
X2738967D1*
X2802433D2*
X2827673D1*
X2918698D2*
X3063955D1*
X3127421D2*
X3369381D1*
X3603953D2*
X3848803D1*
X403165Y1145408D2*
X1113967D1*
X1177433D2*
X1572075D1*
X1827440D2*
X2088961D1*
X2152427D2*
X2321029D1*
X2409470D2*
X2738967D1*
X2802433D2*
X2827673D1*
X2918698D2*
X3063955D1*
X3127421D2*
X3381622D1*
X3605276D2*
X3848803D1*
X403165Y1129791D2*
X1113967D1*
X1177433D2*
X1572075D1*
X1827440D2*
X2088961D1*
X2152427D2*
X2336654D1*
X2425096D2*
X2738967D1*
X2802433D2*
X2827673D1*
X2918698D2*
X3063955D1*
X3127421D2*
X3381622D1*
X3603676D2*
X3848803D1*
X403165Y1114175D2*
X1113967D1*
X1177433D2*
X1572075D1*
X1827440D2*
X2088961D1*
X2152427D2*
X2352280D1*
X2440720D2*
X2738967D1*
X2802433D2*
X2827673D1*
X2918698D2*
X3063955D1*
X3127421D2*
X3381622D1*
X3598938D2*
X3848803D1*
X403165Y1098558D2*
X1113967D1*
X1177433D2*
X1572075D1*
X1827440D2*
X2088961D1*
X2152427D2*
X2367874D1*
X2456315D2*
X2738967D1*
X2802433D2*
X2827673D1*
X2918698D2*
X3063955D1*
X3127421D2*
X3381622D1*
X3590388D2*
X3848803D1*
X403165Y1082941D2*
X1113967D1*
X1177433D2*
X1572075D1*
X1827440D2*
X2088961D1*
X2152427D2*
X2383499D1*
X2471478D2*
X2738967D1*
X2802433D2*
X2829150D1*
X2917252D2*
X3063955D1*
X3127421D2*
X3381622D1*
X3445088D2*
X3464514D1*
X3576301D2*
X3848803D1*
X403165Y1067324D2*
X1113967D1*
X1177433D2*
X1572075D1*
X1827440D2*
X2088961D1*
X2152427D2*
X2399123D1*
X2477353D2*
X2738967D1*
X2802433D2*
X2836839D1*
X2909563D2*
X3063955D1*
X3127421D2*
X3381622D1*
X3445088D2*
X3491735D1*
X3549080D2*
X3848803D1*
X403165Y1051707D2*
X1113967D1*
X1177433D2*
X1572075D1*
X1827440D2*
X2088961D1*
X2152427D2*
X2413979D1*
X2477445D2*
X2738967D1*
X2802433D2*
X2860245D1*
X2886156D2*
X3063955D1*
X3127421D2*
X3381622D1*
X3445088D2*
X3848803D1*
X403165Y1036091D2*
X1113967D1*
X1177433D2*
X1572075D1*
X1827440D2*
X2088961D1*
X2152427D2*
X2413979D1*
X2477445D2*
X2738967D1*
X2802433D2*
X3063955D1*
X3127421D2*
X3381622D1*
X3445088D2*
X3848803D1*
X403165Y1020474D2*
X1113967D1*
X1177433D2*
X1572075D1*
X1827440D2*
X2088961D1*
X2152427D2*
X2413979D1*
X2477445D2*
X2738967D1*
X2802433D2*
X3063955D1*
X3127421D2*
X3381622D1*
X3445088D2*
X3848803D1*
X403165Y1004857D2*
X1113967D1*
X1177433D2*
X1572075D1*
X1827440D2*
X2088961D1*
X2152427D2*
X2413979D1*
X2477445D2*
X2738967D1*
X2802433D2*
X3063955D1*
X3127421D2*
X3381622D1*
X3445088D2*
X3848803D1*
X403165Y989240D2*
X1113967D1*
X1177433D2*
X1572075D1*
X1827440D2*
X2088961D1*
X2152427D2*
X2413979D1*
X2477445D2*
X2738967D1*
X2802433D2*
X3063955D1*
X3127421D2*
X3381622D1*
X3445088D2*
X3848803D1*
X403165Y973623D2*
X1113967D1*
X1177433D2*
X1572075D1*
X1827440D2*
X2088961D1*
X2152427D2*
X2413979D1*
X2477445D2*
X2738967D1*
X2802433D2*
X3063955D1*
X3127421D2*
X3381622D1*
X3445088D2*
X3848803D1*
X403165Y958007D2*
X978140D1*
X1203024D2*
X1303129D1*
X1528012D2*
X1572075D1*
X1853030D2*
X1953134D1*
X2178017D2*
X2278152D1*
X2503035D2*
X2603140D1*
X2828024D2*
X2928129D1*
X3153012D2*
X3253147D1*
X3478030D2*
X3848803D1*
X403165Y942390D2*
X978140D1*
X1203024D2*
X1303129D1*
X1853030D2*
X1953134D1*
X2178017D2*
X2278152D1*
X2503035D2*
X2603140D1*
X2828024D2*
X2928129D1*
X3153012D2*
X3253147D1*
X3478030D2*
X3848803D1*
X403165Y926773D2*
X978140D1*
X1203024D2*
X1303129D1*
X1853030D2*
X1953134D1*
X2178017D2*
X2278152D1*
X2503035D2*
X2603140D1*
X2828024D2*
X2928129D1*
X3153012D2*
X3253147D1*
X3478030D2*
X3848803D1*
X403165Y911156D2*
X978140D1*
X1203024D2*
X1303129D1*
X1853030D2*
X1953134D1*
X2178017D2*
X2278152D1*
X2503035D2*
X2603140D1*
X2828024D2*
X2928129D1*
X3153012D2*
X3253147D1*
X3478030D2*
X3848803D1*
X403165Y895539D2*
X978140D1*
X1203024D2*
X1303129D1*
X1607398D2*
X1628147D1*
X1853030D2*
X1953134D1*
X2178017D2*
X2278152D1*
X2503035D2*
X2603140D1*
X2828024D2*
X2928129D1*
X3153012D2*
X3253147D1*
X3478030D2*
X3848803D1*
X403165Y879923D2*
X978140D1*
X1203024D2*
X1303129D1*
X1528012D2*
X1628147D1*
X1853030D2*
X1953134D1*
X2178017D2*
X2278152D1*
X2503035D2*
X2603140D1*
X2828024D2*
X2928129D1*
X3153012D2*
X3253147D1*
X3478030D2*
X3848803D1*
X403165Y864306D2*
X978140D1*
X1203024D2*
X1303129D1*
X1528012D2*
X1628147D1*
X1853030D2*
X1953134D1*
X2178017D2*
X2278152D1*
X2503035D2*
X2603140D1*
X2828024D2*
X2928129D1*
X3153012D2*
X3253147D1*
X3478030D2*
X3848803D1*
X403165Y848689D2*
X1001178D1*
X1064644D2*
X1326165D1*
X1389631D2*
X1655367D1*
X1718833D2*
X1977280D1*
X2040745D2*
X2301160D1*
X2364626D2*
X2626178D1*
X2689644D2*
X2960362D1*
X3023828D2*
X3273109D1*
X3336575D2*
X3848803D1*
X403165Y833072D2*
X1001178D1*
X1064644D2*
X1326165D1*
X1389631D2*
X1655367D1*
X1718833D2*
X1977280D1*
X2040745D2*
X2301160D1*
X2364626D2*
X2626178D1*
X2689644D2*
X2960362D1*
X3023828D2*
X3273109D1*
X3336575D2*
X3848803D1*
X403165Y817455D2*
X1001178D1*
X1064644D2*
X1326165D1*
X1389631D2*
X1655367D1*
X1718833D2*
X1977280D1*
X2040745D2*
X2301160D1*
X2364626D2*
X2626178D1*
X2689644D2*
X2960362D1*
X3023828D2*
X3273109D1*
X3336575D2*
X3848803D1*
X403165Y801839D2*
X1001178D1*
X1064644D2*
X1326165D1*
X1389631D2*
X1655367D1*
X1718833D2*
X1977280D1*
X2040745D2*
X2301160D1*
X2364626D2*
X2626178D1*
X2689644D2*
X2960362D1*
X3023828D2*
X3273109D1*
X3336575D2*
X3848803D1*
X403165Y786222D2*
X1001178D1*
X1064644D2*
X1326165D1*
X1389631D2*
X1655367D1*
X1718833D2*
X1977280D1*
X2040745D2*
X2301160D1*
X2364626D2*
X2626178D1*
X2689644D2*
X2960362D1*
X3023828D2*
X3273109D1*
X3336575D2*
X3848803D1*
X403165Y770605D2*
X971651D1*
X1094172D2*
X1296638D1*
X1419159D2*
X1625840D1*
X1748361D2*
X1947752D1*
X2070273D2*
X2271633D1*
X2394154D2*
X2596651D1*
X2719172D2*
X2930835D1*
X3053356D2*
X3243581D1*
X3366102D2*
X3848803D1*
X403165Y754988D2*
X971651D1*
X1094172D2*
X1296638D1*
X1419159D2*
X1625840D1*
X1748361D2*
X1947752D1*
X2070273D2*
X2271633D1*
X2394154D2*
X2596651D1*
X2719172D2*
X2930835D1*
X3053356D2*
X3243581D1*
X3366102D2*
X3848803D1*
X403165Y739371D2*
X971651D1*
X1094172D2*
X1296638D1*
X1419159D2*
X1625840D1*
X1748361D2*
X1947752D1*
X2070273D2*
X2271633D1*
X2394154D2*
X2596651D1*
X2719172D2*
X2930835D1*
X3053356D2*
X3243581D1*
X3366102D2*
X3848803D1*
X403165Y723755D2*
X971651D1*
X1094172D2*
X1296638D1*
X1419159D2*
X1625840D1*
X1748361D2*
X1947752D1*
X2070273D2*
X2271633D1*
X2394154D2*
X2596651D1*
X2719172D2*
X2930835D1*
X3053356D2*
X3243581D1*
X3366102D2*
X3848803D1*
X403165Y708138D2*
X586101D1*
X632434D2*
X971651D1*
X1094172D2*
X1296638D1*
X1419159D2*
X1625840D1*
X1748361D2*
X1947752D1*
X2070273D2*
X2271633D1*
X2394154D2*
X2596651D1*
X2719172D2*
X2930835D1*
X3053356D2*
X3243581D1*
X3366102D2*
X3617597D1*
X3663930D2*
X3848803D1*
X403165Y692521D2*
X544486D1*
X674050D2*
X971651D1*
X1094172D2*
X1296638D1*
X1419159D2*
X1625840D1*
X1748361D2*
X1947752D1*
X2070273D2*
X2271633D1*
X2394154D2*
X2596651D1*
X2719172D2*
X2930835D1*
X3053356D2*
X3243581D1*
X3366102D2*
X3575982D1*
X3705546D2*
X3848803D1*
X403165Y676904D2*
X523816D1*
X694719D2*
X971651D1*
X1094172D2*
X1296638D1*
X1419159D2*
X1625840D1*
X1748361D2*
X1947752D1*
X2070273D2*
X2271633D1*
X2394154D2*
X2596651D1*
X2719172D2*
X2930835D1*
X3053356D2*
X3243581D1*
X3366102D2*
X3555312D1*
X3726215D2*
X3848803D1*
X403165Y661287D2*
X509790D1*
X708744D2*
X971651D1*
X1094172D2*
X1296638D1*
X1419159D2*
X1625840D1*
X1748361D2*
X1947752D1*
X2070273D2*
X2271633D1*
X2394154D2*
X2596651D1*
X2719172D2*
X2930835D1*
X3053356D2*
X3243581D1*
X3366102D2*
X3541286D1*
X3740240D2*
X3848803D1*
X403165Y645671D2*
X499764D1*
X718772D2*
X971651D1*
X1094172D2*
X1296638D1*
X1419159D2*
X1625840D1*
X1748361D2*
X1947752D1*
X2070273D2*
X2271633D1*
X2394154D2*
X2596651D1*
X2719172D2*
X2930835D1*
X3053356D2*
X3243581D1*
X3366102D2*
X3531260D1*
X3750268D2*
X3848803D1*
X403165Y630054D2*
X492689D1*
X725846D2*
X971651D1*
X1094172D2*
X1296638D1*
X1419159D2*
X1625840D1*
X1748361D2*
X1947752D1*
X2070273D2*
X2271633D1*
X2394154D2*
X2596651D1*
X2719172D2*
X2930835D1*
X3053356D2*
X3243581D1*
X3366102D2*
X3524185D1*
X3757343D2*
X3848803D1*
X403165Y614437D2*
X488045D1*
X730491D2*
X971651D1*
X1094172D2*
X1296638D1*
X1419159D2*
X1625840D1*
X1748361D2*
X1947752D1*
X2070273D2*
X2271633D1*
X2394154D2*
X2596651D1*
X2719172D2*
X2930835D1*
X3053356D2*
X3243581D1*
X3366102D2*
X3519541D1*
X3761987D2*
X3848803D1*
X403165Y598820D2*
X485552D1*
X732982D2*
X971651D1*
X1094172D2*
X1296638D1*
X1419159D2*
X1625840D1*
X1748361D2*
X1947752D1*
X2070273D2*
X2271633D1*
X2394154D2*
X2596651D1*
X2719172D2*
X2930835D1*
X3053356D2*
X3243581D1*
X3366102D2*
X3517049D1*
X3764478D2*
X3848803D1*
X403165Y583203D2*
X485092D1*
X733444D2*
X971651D1*
X1094172D2*
X1296638D1*
X1419159D2*
X1625840D1*
X1748361D2*
X1947752D1*
X2070273D2*
X2271633D1*
X2394154D2*
X2596651D1*
X2719172D2*
X2930835D1*
X3053356D2*
X3243581D1*
X3366102D2*
X3516588D1*
X3764940D2*
X3848803D1*
X403165Y567587D2*
X486630D1*
X731906D2*
X971651D1*
X1094172D2*
X1296638D1*
X1419159D2*
X1625840D1*
X1748361D2*
X1947752D1*
X2070273D2*
X2271633D1*
X2394154D2*
X2596651D1*
X2719172D2*
X2930835D1*
X3053356D2*
X3243581D1*
X3366102D2*
X3518126D1*
X3763402D2*
X3848803D1*
X403165Y551970D2*
X490228D1*
X728307D2*
X3521724D1*
X3759803D2*
X3848803D1*
X403165Y536353D2*
X496134D1*
X722402D2*
X3527630D1*
X3753898D2*
X3848803D1*
X403165Y520736D2*
X504685D1*
X713850D2*
X3536181D1*
X3745346D2*
X3848803D1*
X403165Y505119D2*
X516680D1*
X701854D2*
X3548176D1*
X3733350D2*
X3848803D1*
X403165Y489503D2*
X533720D1*
X684815D2*
X3565217D1*
X3716311D2*
X3848803D1*
X403165Y473886D2*
X561125D1*
X657409D2*
X3592621D1*
X3688906D2*
X3848803D1*
X403165Y458269D2*
X3848803D1*
X403165Y442652D2*
X3848803D1*
X403165Y427035D2*
X3848803D1*
X403165Y411419D2*
X3848803D1*
X1092591Y663433D2*
Y553198D1*
X973220D1*
Y774930D1*
X1002718D1*
X1002748Y852887D1*
X979717Y852881D1*
Y972251D1*
X1115513D1*
X1115543Y1625618D1*
X1115915Y1630336D1*
X1117020Y1634937D1*
X1118831Y1639310D1*
X1121303Y1643344D1*
X1124383Y1646949D1*
X1149740Y1672175D1*
X1153568Y1674957D1*
X1157785Y1677105D1*
X1162285Y1678567D1*
X1166959Y1679307D1*
X1216570Y1679400D1*
X1426554D1*
X1424025Y1686043D1*
X1422512Y1692155D1*
X1421724Y1698402D1*
X1421672Y1704697D1*
X1422354Y1710955D1*
X1423765Y1717091D1*
X1425882Y1723020D1*
X1428678Y1728660D1*
X1432114Y1733936D1*
X1436143Y1738773D1*
X1440710Y1743106D1*
X1445752Y1746877D1*
X1451199Y1750033D1*
X1455581Y1751997D1*
X1450967Y1754080D1*
X1443773Y1758488D1*
X1437356Y1763970D1*
X1431874Y1770387D1*
X1427466Y1777581D1*
X1424236Y1785378D1*
X1422266Y1793584D1*
X1421604Y1801997D1*
X1422266Y1810411D1*
X1422604Y1812109D1*
X1381583Y1853281D1*
X1378801Y1857109D1*
X1376652Y1861325D1*
X1375190Y1865825D1*
X1374450Y1870500D1*
X1374357Y1920110D1*
Y2129479D1*
X1372382Y2132870D1*
X1370217Y2138098D1*
X1369239Y2141877D1*
X1110260Y2400848D1*
X973531Y2400862D1*
X973520Y2371335D1*
X751787D1*
Y2380161D1*
X726058Y2380144D1*
X726049Y2244318D1*
X606678D1*
Y2466050D1*
X726049D1*
Y2440490D1*
X751778Y2440459D1*
X751787Y2490705D1*
X887584D1*
X887614Y2526646D1*
X782364Y2632047D1*
X779581Y2635875D1*
X777433Y2640092D1*
X775971Y2644592D1*
X775231Y2649266D1*
X775138Y2698877D1*
Y2704505D1*
X771635Y2707248D1*
X767148Y2703820D1*
X761740Y2700597D1*
X755982Y2698055D1*
X749957Y2696230D1*
X743755Y2695148D1*
X737467Y2694827D1*
X731188Y2695270D1*
X725008Y2696472D1*
X719020Y2698415D1*
X713311Y2701070D1*
X707967Y2704396D1*
X704298Y2707238D1*
X697720Y2702459D1*
X690476Y2698768D1*
X682744Y2696256D1*
X674715Y2694984D1*
X666584D1*
X658555Y2696256D1*
X655144Y2697218D1*
X655138Y2694824D1*
X551516D1*
Y2814194D1*
X655138D1*
Y2811825D1*
X662545Y2813556D1*
X670650Y2814194D1*
X678755Y2813556D1*
X686660Y2811659D1*
X694172Y2808547D1*
X701104Y2804299D1*
X704310Y2801770D1*
X709638Y2805760D1*
X715108Y2808875D1*
X720915Y2811306D1*
X726974Y2813013D1*
X733196Y2813974D1*
X739488Y2814172D1*
X745757Y2813606D1*
X751912Y2812283D1*
X757862Y2810224D1*
X763517Y2807459D1*
X768795Y2804029D1*
X771647Y2801781D1*
X778224Y2806559D1*
X785469Y2810251D1*
X793201Y2812762D1*
X801230Y2814034D1*
X809361D1*
X817390Y2812762D1*
X825122Y2810251D1*
X832366Y2806559D1*
X838955Y2801770D1*
X844283Y2805760D1*
X849753Y2808875D1*
X855560Y2811306D1*
X861619Y2813013D1*
X867841Y2813974D1*
X874134Y2814172D1*
X880403Y2813606D1*
X886558Y2812283D1*
X892508Y2810224D1*
X898163Y2807459D1*
X903441Y2804029D1*
X908264Y2799983D1*
X912562Y2795382D1*
X916269Y2790294D1*
X919332Y2784794D1*
X921705Y2778963D1*
X923353Y2772887D1*
X924252Y2766656D1*
X924429Y2757659D1*
X924214Y2741917D1*
X923261Y2735694D1*
X921560Y2729634D1*
X919136Y2723823D1*
X916026Y2718349D1*
X912276Y2713294D1*
X907940Y2708730D1*
X903081Y2704726D1*
X897774Y2701341D1*
X892094Y2698625D1*
X886129Y2696617D1*
X879962Y2695348D1*
X873688Y2694835D1*
X867398Y2695088D1*
X861184Y2696101D1*
X855140Y2697861D1*
X849353Y2700341D1*
X843911Y2703504D1*
X838944Y2707238D1*
X835445Y2704516D1*
X835453Y2664112D1*
X940703Y2558741D1*
X943486Y2554913D1*
X945634Y2550697D1*
X947096Y2546197D1*
X947836Y2541522D1*
X947929Y2490713D1*
X973520Y2490705D1*
Y2461207D1*
X1125104Y2461084D1*
X1129778Y2460344D1*
X1134278Y2458882D1*
X1138495Y2456734D1*
X1142323Y2453951D1*
X1177469Y2418938D1*
X1411858Y2184547D1*
X1415659Y2183541D1*
X1420887Y2181375D1*
X1425711Y2178419D1*
X1427944Y2176657D1*
X1425697Y2181417D1*
X1423089Y2189442D1*
X1421769Y2197778D1*
Y2206217D1*
X1423089Y2214552D1*
X1425697Y2222577D1*
X1429529Y2230097D1*
X1434490Y2236924D1*
X1440457Y2242891D1*
X1447283Y2247852D1*
X1454803Y2251684D1*
X1455623Y2251986D1*
X1450967Y2254080D1*
X1443773Y2258488D1*
X1437356Y2263970D1*
X1431874Y2270387D1*
X1427466Y2277581D1*
X1424236Y2285378D1*
X1422266Y2293584D1*
X1421604Y2301997D1*
X1422266Y2310411D1*
X1424236Y2318617D1*
X1427466Y2326413D1*
X1431874Y2333608D1*
X1437356Y2340025D1*
X1443773Y2345507D1*
X1450967Y2349915D1*
X1455623Y2351986D1*
X1450967Y2354080D1*
X1443773Y2358488D1*
X1437356Y2363970D1*
X1431874Y2370387D1*
X1427466Y2377581D1*
X1424236Y2385378D1*
X1422266Y2393584D1*
X1421604Y2401997D1*
X1422266Y2410411D1*
X1424236Y2418617D1*
X1427466Y2426413D1*
X1431874Y2433608D1*
X1437356Y2440025D1*
X1443773Y2445507D1*
X1450967Y2449915D1*
X1455623Y2451986D1*
X1450967Y2454080D1*
X1443773Y2458488D1*
X1437356Y2463970D1*
X1431874Y2470387D1*
X1427466Y2477581D1*
X1424236Y2485378D1*
X1422266Y2493584D1*
X1421604Y2501997D1*
X1422266Y2510411D1*
X1424236Y2518617D1*
X1427466Y2526413D1*
X1431874Y2533608D1*
X1437356Y2540025D1*
X1443773Y2545507D1*
X1447932Y2548215D1*
X1421604Y2548218D1*
Y2655777D1*
X1529163D1*
Y2626280D1*
X1532558Y2628291D1*
X1536929Y2630102D1*
X1541531Y2631207D1*
X1546257Y2631579D1*
X2495714D1*
X2493157Y2637524D1*
X2491836Y2643026D1*
X2491392Y2648668D1*
X2491836Y2654310D1*
X2493157Y2659812D1*
X2495323Y2665041D1*
X2498280Y2669865D1*
X2501955Y2674168D1*
X2506259Y2677844D1*
X2511083Y2680801D1*
X2516311Y2682966D1*
X2521814Y2684287D1*
X2527455Y2684731D1*
X2533097Y2684287D1*
X2538600Y2682966D1*
X2543828Y2680801D1*
X2547190Y2678820D1*
X2811934Y2678825D1*
X2817917Y2684803D1*
X2817896Y2717228D1*
X2792306Y2717259D1*
Y2836629D1*
X3014038D1*
Y2806516D1*
X3030769Y2806507D1*
X3030777Y2836034D1*
X3252509D1*
Y2716664D1*
X3030777D1*
Y2746222D1*
X3014035Y2746192D1*
X3014038Y2717259D1*
X2878181D1*
X2878118Y2669925D1*
X2877378Y2665251D1*
X2875916Y2660751D1*
X2873768Y2656534D1*
X2870986Y2652706D1*
X2850001Y2631588D1*
X2856025Y2631207D1*
X2860626Y2630102D1*
X2864999Y2628291D1*
X2869033Y2625819D1*
X2872638Y2622739D1*
X2896133Y2599113D1*
X2898913Y2595283D1*
X2901062Y2591067D1*
X2902524Y2586567D1*
X2903264Y2581892D1*
X2903357Y2532283D1*
Y2455235D1*
X2926979Y2455224D1*
Y2347665D1*
X2900681D1*
X2904810Y2344954D1*
X2911227Y2339472D1*
X2916709Y2333055D1*
X2921117Y2325861D1*
X2924346Y2318064D1*
X2926316Y2309858D1*
X2926979Y2301445D1*
X2926316Y2293031D1*
X2924346Y2284825D1*
X2921117Y2277029D1*
X2916709Y2269835D1*
X2911227Y2263417D1*
X2904810Y2257936D1*
X2897615Y2253528D1*
X2892959Y2251457D1*
X2897615Y2249362D1*
X2904810Y2244954D1*
X2911227Y2239472D1*
X2916709Y2233055D1*
X2921117Y2225861D1*
X2924346Y2218064D1*
X2926316Y2209858D1*
X2926979Y2201445D1*
X2926316Y2193031D1*
X2924346Y2184825D1*
X2921117Y2177029D1*
X2916709Y2169835D1*
X2911227Y2163417D1*
X2904810Y2157936D1*
X2897615Y2153528D1*
X2892959Y2151457D1*
X2897615Y2149362D1*
X2904810Y2144954D1*
X2911227Y2139472D1*
X2916709Y2133055D1*
X2921117Y2125861D1*
X2924346Y2118064D1*
X2926316Y2109858D1*
X2926979Y2101445D1*
X2926316Y2093031D1*
X2924346Y2084825D1*
X2921117Y2077029D1*
X2916709Y2069835D1*
X2911227Y2063417D1*
X2904810Y2057936D1*
X2897615Y2053528D1*
X2892959Y2051457D1*
X2897615Y2049362D1*
X2904810Y2044954D1*
X2911227Y2039472D1*
X2916709Y2033055D1*
X2921117Y2025861D1*
X2924346Y2018064D1*
X2926316Y2009858D1*
X2926979Y2001445D1*
X2926316Y1993031D1*
X2924346Y1984825D1*
X2921117Y1977029D1*
X2916709Y1969835D1*
X2911227Y1963417D1*
X2904810Y1957936D1*
X2897615Y1953528D1*
X2892959Y1951457D1*
X2897615Y1949362D1*
X2904810Y1944954D1*
X2911227Y1939472D1*
X2916709Y1933055D1*
X2921117Y1925861D1*
X2924346Y1918064D1*
X2926316Y1909858D1*
X2926979Y1901445D1*
X2926316Y1893031D1*
X2924346Y1884825D1*
X2921117Y1877029D1*
X2916709Y1869835D1*
X2911227Y1863417D1*
X2904810Y1857936D1*
X2897615Y1853528D1*
X2892959Y1851457D1*
X2897615Y1849362D1*
X2904810Y1844954D1*
X2911227Y1839472D1*
X2916709Y1833055D1*
X2921117Y1825861D1*
X2924346Y1818064D1*
X2926316Y1809858D1*
X2926979Y1801445D1*
X2926316Y1793031D1*
X2924346Y1784825D1*
X2921117Y1777029D1*
X2916709Y1769835D1*
X2911227Y1763417D1*
X2904810Y1757936D1*
X2897615Y1753528D1*
X2892959Y1751457D1*
X2897615Y1749362D1*
X2904810Y1744954D1*
X2911227Y1739472D1*
X2916709Y1733055D1*
X2921117Y1725861D1*
X2924346Y1718064D1*
X2926316Y1709858D1*
X2926979Y1701445D1*
X2926316Y1693031D1*
X2925979Y1691333D1*
X3436273Y1180888D1*
X3439055Y1177060D1*
X3441206Y1172835D1*
X3442308Y1175101D1*
X3445394Y1182343D1*
X3449150Y1189260D1*
X3453541Y1195791D1*
X3458529Y1201881D1*
X3464070Y1207471D1*
X3470113Y1212514D1*
X3476605Y1216963D1*
X3483488Y1220781D1*
X3490702Y1223932D1*
X3498180Y1226387D1*
X3505857Y1228127D1*
X3513663Y1229134D1*
X3521530Y1229399D1*
X3529386Y1228921D1*
X3537163Y1227703D1*
X3544789Y1225759D1*
X3552198Y1223101D1*
X3559324Y1219757D1*
X3566101Y1215755D1*
X3572471Y1211131D1*
X3578377Y1205927D1*
X3583764Y1200189D1*
X3588585Y1193967D1*
X3592799Y1187319D1*
X3596366Y1180303D1*
X3599255Y1172980D1*
X3601440Y1165419D1*
X3602902Y1157685D1*
X3603627Y1149848D1*
X3603577Y1141378D1*
X3602760Y1133550D1*
X3601209Y1125833D1*
X3598934Y1118297D1*
X3595961Y1111009D1*
X3592311Y1104035D1*
X3588021Y1097437D1*
X3583126Y1091273D1*
X3577672Y1085598D1*
X3571706Y1080463D1*
X3565282Y1075915D1*
X3558458Y1071992D1*
X3551294Y1068731D1*
X3543854Y1066161D1*
X3536206Y1064304D1*
X3528416Y1063178D1*
X3520554Y1062793D1*
X3512692Y1063151D1*
X3504896Y1064248D1*
X3497241Y1066077D1*
X3489793Y1068621D1*
X3482617Y1071856D1*
X3475778Y1075753D1*
X3469339Y1080280D1*
X3463354Y1085392D1*
X3457879Y1091047D1*
X3452963Y1097194D1*
X3448648Y1103777D1*
X3444975Y1110738D1*
X3443499Y1114059D1*
X3443693Y972251D1*
X3476449D1*
Y852881D1*
X3334993D1*
X3335001Y781076D1*
X3364529Y781052D1*
Y559320D1*
X3245159D1*
Y781052D1*
X3274656D1*
X3274686Y852857D1*
X3254717Y852881D1*
Y972251D1*
X3383193D1*
X3383184Y1148816D1*
X3125873Y1406122D1*
X3125858Y972259D1*
X3151449Y972251D1*
Y852881D1*
X3022235D1*
X3022247Y781076D1*
X3051774Y781052D1*
Y559320D1*
X2932404D1*
Y781052D1*
X2961902D1*
X2961932Y852857D1*
X2929717Y852881D1*
Y972251D1*
X3065513D1*
X3065543Y1407244D1*
X2968045Y1504761D1*
X2964251Y1505761D1*
X2959022Y1507927D1*
X2954198Y1510883D1*
X2949895Y1514559D1*
X2946219Y1518862D1*
X2943262Y1523686D1*
X2941097Y1528915D1*
X2939776Y1534417D1*
X2939332Y1540059D1*
X2939776Y1545701D1*
X2941097Y1551203D1*
X2943262Y1556432D1*
X2946219Y1561256D1*
X2949895Y1565559D1*
X2954198Y1569235D1*
X2959555Y1572437D1*
X2926869Y1605126D1*
X2926814Y1597226D1*
X2925493Y1588890D1*
X2922886Y1580865D1*
X2919054Y1573345D1*
X2917139Y1570479D1*
X2917001Y1090701D1*
X2915923Y1083891D1*
X2913793Y1077335D1*
X2910661Y1071192D1*
X2906609Y1065613D1*
X2901735Y1060739D1*
X2896156Y1056686D1*
X2890013Y1053555D1*
X2883457Y1051425D1*
X2876647Y1050346D1*
X2869752D1*
X2862942Y1051425D1*
X2856386Y1053555D1*
X2850243Y1056686D1*
X2844664Y1060739D1*
X2839790Y1065613D1*
X2835738Y1071192D1*
X2832606Y1077335D1*
X2830476Y1083891D1*
X2829398Y1090701D1*
X2829262Y1117770D1*
Y1570434D1*
X2825282Y1577029D1*
X2822052Y1584825D1*
X2820083Y1593031D1*
X2819420Y1601445D1*
X2820083Y1609858D1*
X2822052Y1618064D1*
X2825282Y1625861D1*
X2829690Y1633055D1*
X2835172Y1639472D1*
X2841589Y1644954D1*
X2848783Y1649362D1*
X2853440Y1651433D1*
X2848783Y1653528D1*
X2841589Y1657936D1*
X2835172Y1663417D1*
X2829690Y1669835D1*
X2828728Y1671274D1*
X2648743Y1671264D1*
X2645122Y1666495D1*
X2639155Y1660528D1*
X2632328Y1655567D1*
X2624808Y1651735D1*
X2623988Y1651433D1*
X2628644Y1649339D1*
X2635839Y1644930D1*
X2642256Y1639449D1*
X2647738Y1633031D1*
X2652146Y1625837D1*
X2655375Y1618041D1*
X2657345Y1609835D1*
X2658008Y1601421D1*
X2657345Y1593008D1*
X2655375Y1584802D1*
X2652146Y1577005D1*
X2647738Y1569811D1*
X2642256Y1563394D1*
X2635839Y1557912D1*
X2628644Y1553504D1*
X2623988Y1551433D1*
X2628644Y1549339D1*
X2635839Y1544930D1*
X2642256Y1539449D1*
X2647738Y1533031D1*
X2652146Y1525837D1*
X2655375Y1518041D1*
X2657345Y1509835D1*
X2658008Y1501421D1*
X2657345Y1493008D1*
X2655375Y1484802D1*
X2652146Y1477005D1*
X2647738Y1469811D1*
X2642256Y1463394D1*
X2635839Y1457912D1*
X2628644Y1453504D1*
X2623988Y1451433D1*
X2628644Y1449339D1*
X2635839Y1444930D1*
X2642256Y1439449D1*
X2647738Y1433031D1*
X2652146Y1425837D1*
X2655375Y1418041D1*
X2657345Y1409835D1*
X2658008Y1401421D1*
X2657345Y1393008D1*
X2655375Y1384802D1*
X2652146Y1377005D1*
X2647738Y1369811D1*
X2642256Y1363394D1*
X2635839Y1357912D1*
X2628644Y1353504D1*
X2623988Y1351433D1*
X2630008Y1348619D1*
X2635346Y1345283D1*
X2640259Y1341346D1*
X2644678Y1336862D1*
X2648542Y1331892D1*
X2651799Y1326505D1*
X2654406Y1320774D1*
X2656323Y1314777D1*
X2657526Y1308598D1*
X2658008Y1301421D1*
X2657639Y1295136D1*
X2656539Y1288938D1*
X2654722Y1282911D1*
X2652213Y1277136D1*
X2649046Y1271696D1*
X2645265Y1266661D1*
X2640921Y1262104D1*
X2636075Y1258085D1*
X2631710Y1255199D1*
X2658008Y1255201D1*
Y1147642D1*
X2550449D1*
Y1255201D1*
X2576692Y1255227D1*
X2571482Y1258761D1*
X2566720Y1262881D1*
X2562474Y1267528D1*
X2558799Y1272639D1*
X2555747Y1278146D1*
X2553358Y1283971D1*
X2551668Y1290035D1*
X2550697Y1296256D1*
X2550461Y1302546D1*
X2550961Y1308823D1*
X2552190Y1314996D1*
X2554134Y1320984D1*
X2556762Y1326705D1*
X2560043Y1332079D1*
X2563928Y1337033D1*
X2568366Y1341497D1*
X2573295Y1345415D1*
X2578648Y1348728D1*
X2584427Y1351421D1*
X2579812Y1353504D1*
X2572618Y1357912D1*
X2566201Y1363394D1*
X2560719Y1369811D1*
X2556311Y1377005D1*
X2553081Y1384802D1*
X2551112Y1393008D1*
X2550449Y1401421D1*
X2551112Y1409835D1*
X2553081Y1418041D1*
X2556311Y1425837D1*
X2560719Y1433031D1*
X2566201Y1439449D1*
X2572618Y1444930D1*
X2579812Y1449339D1*
X2584469Y1451409D1*
X2579812Y1453504D1*
X2572618Y1457912D1*
X2566201Y1463394D1*
X2560719Y1469811D1*
X2556311Y1477005D1*
X2553081Y1484802D1*
X2551112Y1493008D1*
X2550449Y1501421D1*
X2551112Y1509835D1*
X2553081Y1518041D1*
X2556311Y1525837D1*
X2560719Y1533031D1*
X2566201Y1539449D1*
X2572618Y1544930D1*
X2579812Y1549339D1*
X2584469Y1551409D1*
X2579812Y1553504D1*
X2572618Y1557912D1*
X2566201Y1563394D1*
X2560719Y1569811D1*
X2556311Y1577005D1*
X2553081Y1584802D1*
X2551112Y1593008D1*
X2550449Y1601421D1*
X2551112Y1609835D1*
X2553081Y1618041D1*
X2556311Y1625837D1*
X2560719Y1633031D1*
X2566201Y1639449D1*
X2572618Y1644930D1*
X2579812Y1649339D1*
X2584469Y1651409D1*
X2579812Y1653504D1*
X2572618Y1657912D1*
X2566201Y1663394D1*
X2560719Y1669811D1*
X2556311Y1677005D1*
X2553081Y1684802D1*
X2551112Y1693008D1*
X2550449Y1701421D1*
X2551112Y1709835D1*
X2553081Y1718041D1*
X2556311Y1725837D1*
X2560719Y1733031D1*
X2566201Y1739449D1*
X2572618Y1744930D1*
X2579812Y1749339D1*
X2584469Y1751409D1*
X2579812Y1753504D1*
X2572618Y1757912D1*
X2566201Y1763394D1*
X2560719Y1769811D1*
X2556311Y1777005D1*
X2553081Y1784802D1*
X2551112Y1793008D1*
X2550449Y1801421D1*
X2551112Y1809835D1*
X2553081Y1818041D1*
X2556311Y1825837D1*
X2560719Y1833031D1*
X2566201Y1839449D1*
X2572618Y1844930D1*
X2579812Y1849339D1*
X2584469Y1851409D1*
X2579812Y1853504D1*
X2572618Y1857912D1*
X2566201Y1863394D1*
X2560719Y1869811D1*
X2556311Y1877005D1*
X2553081Y1884802D1*
X2551112Y1893008D1*
X2550449Y1901421D1*
X2551112Y1909835D1*
X2553081Y1918041D1*
X2556311Y1925837D1*
X2560719Y1933031D1*
X2566201Y1939449D1*
X2572618Y1944930D1*
X2579812Y1949339D1*
X2584469Y1951409D1*
X2578056Y1954440D1*
X2572745Y1957820D1*
X2567865Y1961798D1*
X2563484Y1966319D1*
X2559661Y1971322D1*
X2556449Y1976736D1*
X2553891Y1982488D1*
X2552024Y1988501D1*
X2550871Y1994690D1*
X2550450Y2000972D1*
X2550766Y2007260D1*
X2551815Y2013467D1*
X2553583Y2019509D1*
X2556043Y2025304D1*
X2559164Y2030772D1*
X2562903Y2035837D1*
X2567209Y2040430D1*
X2572021Y2044490D1*
X2577274Y2047958D1*
X2582898Y2050790D1*
X2584427Y2051421D1*
X2579812Y2053504D1*
X2572618Y2057912D1*
X2566201Y2063394D1*
X2560719Y2069811D1*
X2556311Y2077005D1*
X2553081Y2084802D1*
X2551112Y2093008D1*
X2550449Y2101421D1*
X2550594Y2105130D1*
X2374068Y1928612D1*
X2374085Y1179218D1*
X2468633Y1084547D1*
X2471415Y1080719D1*
X2473563Y1076503D1*
X2475025Y1072003D1*
X2475765Y1067328D1*
X2475858Y1017718D1*
Y972227D1*
X2501449Y972251D1*
Y852881D1*
X2363070D1*
X2363063Y781076D1*
X2392591Y781052D1*
Y559320D1*
X2273220D1*
Y781052D1*
X2302718D1*
X2302748Y852857D1*
X2279717Y852881D1*
Y972251D1*
X2415513D1*
X2415543Y1052483D1*
X2320996Y1147150D1*
X2318214Y1150978D1*
X2316066Y1155194D1*
X2314604Y1159694D1*
X2313864Y1164369D1*
X2313770Y1213979D1*
X2313864Y1943487D1*
X2314604Y1948161D1*
X2316066Y1952661D1*
X2318214Y1956878D1*
X2320996Y1960706D1*
X2356010Y1995852D1*
X2551425Y2191268D1*
X2550614Y2197202D1*
X2550594Y2205130D1*
X2150879Y1805423D1*
X2150858Y972268D1*
X2176449Y972251D1*
Y852881D1*
X2039177D1*
X2039184Y780092D1*
X2068711Y780083D1*
Y558350D1*
X1949341D1*
Y780083D1*
X1978839D1*
X1978869Y852871D1*
X1954717Y852881D1*
Y972251D1*
X2090513D1*
X2090543Y1817894D1*
X2090915Y1822612D1*
X2092020Y1827213D1*
X2093831Y1831585D1*
X2096303Y1835619D1*
X2099383Y1839224D1*
X2551432Y2291273D1*
X2550614Y2297202D1*
X2550594Y2305130D1*
X1825861Y1580404D1*
X1825858Y972231D1*
X1851449Y972251D1*
Y852881D1*
X1717252D1*
X1717244Y781076D1*
X1746772Y781052D1*
Y559320D1*
X1627402D1*
Y781052D1*
X1656899D1*
X1656929Y852857D1*
X1629717Y852881D1*
Y920764D1*
X1626739Y916602D1*
X1601509Y891241D1*
X1597911Y888168D1*
X1593877Y885696D1*
X1589504Y883885D1*
X1584903Y882780D1*
X1580185Y882408D1*
X1526451D1*
X1526449Y852881D1*
X1388070D1*
X1388063Y774924D1*
X1417591Y774930D1*
Y553198D1*
X1298220D1*
Y774930D1*
X1327718D1*
X1327748Y852887D1*
X1304717Y852881D1*
Y972251D1*
X1526449D1*
Y942753D1*
X1567680Y942723D1*
X1573629Y948657D1*
X1573650Y2477797D1*
X1574021Y2482514D1*
X1575126Y2487115D1*
X1576937Y2491488D1*
X1579409Y2495522D1*
X1582490Y2499127D1*
X1607846Y2524353D1*
X1611675Y2527135D1*
X1615891Y2529283D1*
X1620391Y2530745D1*
X1625066Y2531486D1*
X1674676Y2531579D1*
X2559672D1*
X2563335Y2536348D1*
X2569302Y2542315D1*
X2576129Y2547276D1*
X2583648Y2551108D1*
X2584469Y2551409D1*
X2579812Y2553504D1*
X2572618Y2557912D1*
X2566201Y2563394D1*
X2560719Y2569811D1*
X2559757Y2571251D1*
X1558738Y2571264D1*
X1552807Y2565329D1*
X1552693Y1670499D1*
X1551953Y1665824D1*
X1550491Y1661324D1*
X1548343Y1657108D1*
X1545560Y1653280D1*
X1521703Y1629291D1*
X1525070Y1622577D1*
X1527677Y1614552D1*
X1528997Y1606217D1*
Y1597778D1*
X1527677Y1589442D1*
X1525070Y1581417D1*
X1521238Y1573898D1*
X1516277Y1567071D1*
X1510310Y1561104D1*
X1503483Y1556143D1*
X1495963Y1552311D1*
X1495143Y1552009D1*
X1499799Y1549915D1*
X1506993Y1545507D1*
X1513411Y1540025D1*
X1518892Y1533608D1*
X1523301Y1526413D1*
X1526530Y1518617D1*
X1528500Y1510411D1*
X1529163Y1501997D1*
X1528500Y1493584D1*
X1526530Y1485378D1*
X1523301Y1477581D1*
X1518892Y1470387D1*
X1513411Y1463970D1*
X1506993Y1458488D1*
X1499799Y1454080D1*
X1495143Y1452009D1*
X1499799Y1449915D1*
X1506993Y1445507D1*
X1513411Y1440025D1*
X1518892Y1433608D1*
X1523301Y1426413D1*
X1526530Y1418617D1*
X1528500Y1410411D1*
X1529163Y1401997D1*
X1528500Y1393584D1*
X1526530Y1385378D1*
X1523301Y1377581D1*
X1518892Y1370387D1*
X1513411Y1363970D1*
X1506993Y1358488D1*
X1499799Y1354080D1*
X1495143Y1352009D1*
X1501163Y1349196D1*
X1506501Y1345860D1*
X1511413Y1341923D1*
X1515833Y1337438D1*
X1519697Y1332469D1*
X1522954Y1327081D1*
X1525560Y1321350D1*
X1527478Y1315353D1*
X1528681Y1309175D1*
X1529163Y1301997D1*
X1528794Y1295713D1*
X1527694Y1289514D1*
X1525877Y1283487D1*
X1523367Y1277713D1*
X1520201Y1272272D1*
X1516420Y1267238D1*
X1512076Y1262680D1*
X1507230Y1258661D1*
X1501948Y1255236D1*
X1496301Y1252453D1*
X1495177Y1251997D1*
X1499799Y1249915D1*
X1506993Y1245507D1*
X1513411Y1240025D1*
X1518892Y1233608D1*
X1523301Y1226413D1*
X1526530Y1218617D1*
X1528500Y1210411D1*
X1529163Y1201997D1*
X1528500Y1193584D1*
X1526530Y1185378D1*
X1523301Y1177581D1*
X1518892Y1170387D1*
X1513411Y1163970D1*
X1506993Y1158488D1*
X1499799Y1154080D1*
X1492003Y1150850D1*
X1483797Y1148881D1*
X1475383Y1148218D1*
X1466970Y1148881D1*
X1458764Y1150850D1*
X1450967Y1154080D1*
X1443773Y1158488D1*
X1437356Y1163970D1*
X1431874Y1170387D1*
X1427466Y1177581D1*
X1424236Y1185378D1*
X1422266Y1193584D1*
X1421604Y1201997D1*
X1422266Y1210411D1*
X1424236Y1218617D1*
X1427466Y1226413D1*
X1431874Y1233608D1*
X1437356Y1240025D1*
X1443773Y1245507D1*
X1450967Y1249915D1*
X1455623Y1251986D1*
X1449211Y1255016D1*
X1443900Y1258396D1*
X1439020Y1262374D1*
X1434639Y1266895D1*
X1430816Y1271898D1*
X1427604Y1277312D1*
X1425046Y1283064D1*
X1423178Y1289077D1*
X1422026Y1295266D1*
X1421605Y1301549D1*
X1421921Y1307836D1*
X1422970Y1314043D1*
X1424738Y1320085D1*
X1427198Y1325881D1*
X1430319Y1331348D1*
X1434058Y1336413D1*
X1438364Y1341007D1*
X1443176Y1345066D1*
X1448429Y1348534D1*
X1454052Y1351366D1*
X1455581Y1351997D1*
X1450967Y1354080D1*
X1443773Y1358488D1*
X1437356Y1363970D1*
X1431874Y1370387D1*
X1427466Y1377581D1*
X1424236Y1385378D1*
X1422266Y1393584D1*
X1421604Y1401997D1*
X1422266Y1410411D1*
X1424236Y1418617D1*
X1427466Y1426413D1*
X1431874Y1433608D1*
X1437356Y1440025D1*
X1443773Y1445507D1*
X1450967Y1449915D1*
X1455623Y1451986D1*
X1450967Y1454080D1*
X1443773Y1458488D1*
X1437356Y1463970D1*
X1431874Y1470387D1*
X1427466Y1477581D1*
X1424236Y1485378D1*
X1422266Y1493584D1*
X1421604Y1501997D1*
X1422266Y1510411D1*
X1424236Y1518617D1*
X1427466Y1526413D1*
X1431874Y1533608D1*
X1437356Y1540025D1*
X1443773Y1545507D1*
X1450967Y1549915D1*
X1455623Y1551986D1*
X1450967Y1554080D1*
X1443773Y1558488D1*
X1437356Y1563970D1*
X1431874Y1570387D1*
X1427466Y1577581D1*
X1424236Y1585378D1*
X1422266Y1593584D1*
X1421604Y1601997D1*
X1422266Y1610411D1*
X1424236Y1618617D1*
X1424413Y1619096D1*
X1181801Y1619085D1*
X1175839Y1613108D1*
X1175858Y972228D1*
X1201449Y972251D1*
Y852881D1*
X1063070D1*
X1063063Y774924D1*
X1092591Y774930D1*
X1092560Y663434D1*
X2717591Y669555D2*
Y559320D1*
X2598220D1*
Y781052D1*
X2627718D1*
X2627748Y852857D1*
X2604717Y852881D1*
Y972251D1*
X2740575D1*
X2740546Y1550699D1*
X2738571Y1554098D1*
X2736406Y1559327D1*
X2735084Y1564829D1*
X2734640Y1570471D1*
X2735084Y1576113D1*
X2736406Y1581615D1*
X2738571Y1586844D1*
X2741528Y1591668D1*
X2745203Y1595971D1*
X2749507Y1599647D1*
X2754331Y1602604D1*
X2759559Y1604769D1*
X2765062Y1606091D1*
X2770703Y1606534D1*
X2776345Y1606091D1*
X2781848Y1604769D1*
X2787076Y1602604D1*
X2791900Y1599647D1*
X2796203Y1595971D1*
X2799879Y1591668D1*
X2802836Y1586844D1*
X2805001Y1581615D1*
X2806323Y1576113D1*
X2806766Y1570471D1*
X2806323Y1564829D1*
X2805001Y1559327D1*
X2802836Y1554098D1*
X2800856Y1550736D1*
X2800858Y972261D1*
X2826449Y972251D1*
Y852881D1*
X2688070D1*
X2688063Y781076D1*
X2717591Y781052D1*
X2717560Y669556D1*
X752419Y2358016D2*
X972576D1*
Y2238646D1*
X960735D1*
X960765Y2141804D1*
X986545Y2116007D1*
X1083156Y2115999D1*
Y1957259D1*
X924416D1*
Y2053869D1*
X883419Y2095051D1*
X879366Y2100630D1*
X876235Y2106773D1*
X874105Y2113329D1*
X873026Y2120139D1*
X872891Y2147209D1*
Y2238652D1*
X750844Y2238646D1*
Y2358016D1*
X752419D1*
X1484281Y3207999D2*
X1483748Y3201726D1*
X1482510Y3195552D1*
X1480587Y3189558D1*
X1477997Y3183819D1*
X1474778Y3178408D1*
X1470970Y3173395D1*
X1466619Y3168844D1*
X1461785Y3164811D1*
X1456526Y3161350D1*
X1450909Y3158504D1*
X1445009Y3156308D1*
X1438898Y3154794D1*
X1432656Y3153976D1*
X1426361Y3153869D1*
X1420093Y3154471D1*
X1413934Y3155777D1*
X1407962Y3157768D1*
X1402252Y3160421D1*
X1396878Y3163699D1*
X1391907Y3167564D1*
X1387404Y3171965D1*
X1383427Y3176844D1*
X1380024Y3182142D1*
X1377240Y3187789D1*
X1375110Y3193713D1*
X1373663Y3199840D1*
X1372916Y3206092D1*
X1372878Y3212387D1*
X1373550Y3218647D1*
X1374924Y3224791D1*
X1376982Y3230741D1*
X1379698Y3236421D1*
X1383037Y3241759D1*
X1386957Y3246686D1*
X1391406Y3251140D1*
X1396329Y3255064D1*
X1401664Y3258407D1*
X1407343Y3261127D1*
X1413290Y3263190D1*
X1419433Y3264570D1*
X1425693Y3265248D1*
X1431988Y3265215D1*
X1438240Y3264474D1*
X1444369Y3263031D1*
X1450295Y3260908D1*
X1455945Y3258129D1*
X1461245Y3254731D1*
X1466129Y3250757D1*
X1470533Y3246259D1*
X1474402Y3241291D1*
X1477685Y3235920D1*
X1480343Y3230211D1*
X1482339Y3224241D1*
X1483650Y3218083D1*
X1484259Y3211816D1*
X1484281Y3207999D1*
X1380681Y3065322D2*
X1484303D1*
Y2953825D1*
X1372807D1*
Y3065322D1*
X1380681D1*
X2718238Y3196268D2*
X2717705Y3189995D1*
X2716467Y3183822D1*
X2714543Y3177827D1*
X2711954Y3172088D1*
X2708735Y3166677D1*
X2704927Y3161664D1*
X2700576Y3157113D1*
X2695741Y3153080D1*
X2690483Y3149619D1*
X2684866Y3146773D1*
X2678966Y3144577D1*
X2672854Y3143063D1*
X2666613Y3142245D1*
X2660318Y3142138D1*
X2654050Y3142740D1*
X2647891Y3144046D1*
X2641919Y3146037D1*
X2636209Y3148690D1*
X2630835Y3151969D1*
X2625864Y3155833D1*
X2621361Y3160234D1*
X2617383Y3165113D1*
X2613980Y3170411D1*
X2611197Y3176058D1*
X2609067Y3181982D1*
X2607619Y3188109D1*
X2606873Y3194361D1*
X2606835Y3200656D1*
X2607507Y3206916D1*
X2608881Y3213060D1*
X2610938Y3219010D1*
X2613655Y3224690D1*
X2616993Y3230028D1*
X2620913Y3234955D1*
X2625362Y3239409D1*
X2630286Y3243333D1*
X2635621Y3246676D1*
X2641299Y3249396D1*
X2647247Y3251459D1*
X2653390Y3252839D1*
X2659650Y3253517D1*
X2665945Y3253484D1*
X2672197Y3252743D1*
X2678325Y3251301D1*
X2684252Y3249177D1*
X2689902Y3246398D1*
X2695202Y3243000D1*
X2700085Y3239026D1*
X2704490Y3234528D1*
X2708358Y3229560D1*
X2711642Y3224189D1*
X2714299Y3218480D1*
X2716295Y3212510D1*
X2717606Y3206352D1*
X2718215Y3200085D1*
X2718238Y3196268D1*
X2614638Y3053591D2*
X2718260D1*
Y2942094D1*
X2606764D1*
Y2967715D1*
X2580715Y2967685D1*
X2576264Y2967354D1*
X2486789D1*
X2486782Y2941764D1*
X2367412D1*
Y2967324D1*
X2359672Y2966850D1*
X2330298D1*
X2330324Y2941260D1*
X2210954D1*
Y3162992D1*
X2330324D1*
Y3027196D1*
X2354954Y3027298D1*
X2367412Y3028378D1*
Y3163496D1*
X2486782D1*
Y3027699D1*
X2572169Y3027669D1*
X2576604Y3028000D1*
X2606768D1*
X2606764Y3053591D1*
X2614638D1*
X1082912Y1288669D2*
X1082178Y1282480D1*
X1080963Y1276367D1*
X1079272Y1270370D1*
X1077114Y1264522D1*
X1074505Y1258864D1*
X1071461Y1253425D1*
X1067997Y1248244D1*
X1064139Y1243349D1*
X1059909Y1238773D1*
X1055333Y1234543D1*
X1050438Y1230685D1*
X1045257Y1227222D1*
X1039819Y1224177D1*
X1034160Y1221568D1*
X1028312Y1219411D1*
X1022315Y1217719D1*
X1016202Y1216504D1*
X1010013Y1215770D1*
X1003786Y1215526D1*
X997559Y1215770D1*
X991370Y1216504D1*
X985257Y1217719D1*
X979260Y1219411D1*
X973412Y1221568D1*
X967753Y1224177D1*
X962315Y1227222D1*
X957134Y1230685D1*
X952239Y1234543D1*
X947663Y1238773D1*
X943433Y1243349D1*
X939575Y1248244D1*
X936112Y1253425D1*
X933067Y1258864D1*
X930458Y1264522D1*
X928301Y1270370D1*
X926609Y1276367D1*
X925394Y1282480D1*
X924660Y1288669D1*
X924416Y1294896D1*
X924660Y1301123D1*
X926034Y1310535D1*
X699487Y1537251D1*
X695434Y1542829D1*
X692304Y1548972D1*
X690173Y1555529D1*
X689094Y1562339D1*
X688959Y1589408D1*
Y1786720D1*
X683862Y1779409D1*
X678739Y1773434D1*
X673073Y1767970D1*
X666919Y1763064D1*
X660327Y1758761D1*
X653360Y1755100D1*
X646077Y1752113D1*
X638546Y1749825D1*
X630832Y1748260D1*
X623005Y1747429D1*
X615135Y1747340D1*
X607291Y1747995D1*
X599543Y1749387D1*
X591963Y1751504D1*
X584615Y1754327D1*
X577567Y1757831D1*
X570881Y1761984D1*
X564617Y1766749D1*
X558831Y1772085D1*
X553573Y1777944D1*
X548892Y1784272D1*
X544829Y1791013D1*
X541421Y1798108D1*
X538698Y1805493D1*
X536684Y1813102D1*
X535396Y1820867D1*
X534848Y1828719D1*
X535043Y1836588D1*
X535979Y1844403D1*
X537650Y1852094D1*
X540038Y1859594D1*
X543123Y1866836D1*
X546879Y1873753D1*
X551270Y1880285D1*
X556259Y1886374D1*
X561799Y1891965D1*
X567843Y1897008D1*
X574335Y1901457D1*
X581218Y1905274D1*
X588432Y1908425D1*
X595909Y1910881D1*
X603587Y1912621D1*
X611392Y1913627D1*
X619260Y1913892D1*
X627115Y1913415D1*
X634892Y1912197D1*
X642518Y1910252D1*
X649928Y1907594D1*
X657054Y1904251D1*
X663831Y1900248D1*
X670201Y1895625D1*
X676106Y1890420D1*
X681493Y1884682D1*
X686315Y1878461D1*
X688961Y1874451D1*
X688959Y1944139D1*
X534827Y1944136D1*
Y2110751D1*
X701441D1*
Y2071104D1*
X706507Y2070167D1*
X713063Y2068037D1*
X719206Y2064906D1*
X724785Y2060853D1*
X744021Y2041808D1*
X766306Y2019332D1*
X770358Y2013753D1*
X773490Y2007610D1*
X775619Y2001054D1*
X776698Y1994244D1*
X776833Y1967175D1*
Y1583962D1*
X988133Y1372686D1*
X997559Y1374022D1*
X1003786Y1374266D1*
X1010013Y1374022D1*
X1016202Y1373289D1*
X1022315Y1372073D1*
X1028312Y1370382D1*
X1034160Y1368224D1*
X1039819Y1365615D1*
X1045257Y1362571D1*
X1050438Y1359108D1*
X1055333Y1355249D1*
X1059909Y1351020D1*
X1064139Y1346444D1*
X1067997Y1341549D1*
X1071461Y1336367D1*
X1074505Y1330929D1*
X1077114Y1325270D1*
X1079272Y1319423D1*
X1080963Y1313425D1*
X1082178Y1307312D1*
X1082912Y1301123D1*
X1083156Y1294896D1*
X1082912Y1288669D1*
X1613993Y3378252D2*
X1764860D1*
Y3219512D1*
X1606119D1*
Y3268755D1*
X1181030Y3268724D1*
X1123318Y3211026D1*
X1123319Y3142181D1*
X1011823D1*
Y3253677D1*
X1080690D1*
X1148938Y3321814D1*
X1152766Y3324596D1*
X1156983Y3326744D1*
X1161483Y3328206D1*
X1166157Y3328946D1*
X1215768Y3329039D1*
X1606115D1*
X1606119Y3378252D1*
X1613993D1*
X2506576Y3297307D2*
X2506030Y3289455D1*
X2504709Y3281697D1*
X2502626Y3274106D1*
X2499802Y3266760D1*
X2496262Y3259730D1*
X2492046Y3253084D1*
X2487190Y3246888D1*
X2481747Y3241205D1*
X2475765Y3236088D1*
X2469307Y3231588D1*
X2462436Y3227751D1*
X2455218Y3224613D1*
X2447724Y3222206D1*
X2440029Y3220552D1*
X2432207Y3219668D1*
X2424337Y3219564D1*
X2416496Y3220240D1*
X2408760Y3221689D1*
X2401205Y3223898D1*
X2393906Y3226843D1*
X2386934Y3230496D1*
X2380360Y3234823D1*
X2374245Y3239780D1*
X2368652Y3245316D1*
X2363635Y3251381D1*
X2359243Y3257912D1*
X2355520Y3264846D1*
X2352501Y3272115D1*
X2350218Y3279648D1*
X2348692Y3287370D1*
X2347937Y3295203D1*
X2347962Y3303075D1*
X2348768Y3310904D1*
X2350344Y3318615D1*
X2352677Y3326133D1*
X2355741Y3333382D1*
X2359510Y3340293D1*
X2363945Y3346795D1*
X2369001Y3352827D1*
X2374631Y3358328D1*
X2380777Y3363244D1*
X2387381Y3367528D1*
X2394375Y3371136D1*
X2401693Y3374034D1*
X2409261Y3376193D1*
X2417007Y3377592D1*
X2424853Y3378217D1*
X2432722Y3378062D1*
X2440538Y3377127D1*
X2448222Y3375424D1*
X2455699Y3372967D1*
X2462898Y3369782D1*
X2469744Y3365900D1*
X2476172Y3361360D1*
X2482119Y3356203D1*
X2487528Y3350484D1*
X2492341Y3344259D1*
X2496516Y3337585D1*
X2500008Y3330531D1*
X2502785Y3323167D1*
X2504819Y3315564D1*
X2506089Y3307797D1*
X2506585Y3299941D1*
X2506576Y3297307D1*
X2623988Y1951409D2*
X2628644Y1949339D1*
X2635839Y1944930D1*
X2642256Y1939449D1*
X2647738Y1933031D1*
X2648699Y1931592D1*
X2828696Y1931602D1*
X2832306Y1936371D1*
X2838273Y1942339D1*
X2845100Y1947299D1*
X2852619Y1951131D1*
X2853440Y1951433D1*
X2848783Y1953528D1*
X2841589Y1957936D1*
X2835172Y1963417D1*
X2829690Y1969835D1*
X2825282Y1977029D1*
X2822052Y1984825D1*
X2820083Y1993031D1*
X2819420Y2001445D1*
X2820083Y2009858D1*
X2822052Y2018064D1*
X2825282Y2025861D1*
X2829690Y2033055D1*
X2835172Y2039472D1*
X2841589Y2044954D1*
X2848783Y2049362D1*
X2853440Y2051433D1*
X2848783Y2053528D1*
X2841589Y2057936D1*
X2835172Y2063417D1*
X2829690Y2069835D1*
X2825282Y2077029D1*
X2822052Y2084825D1*
X2820083Y2093031D1*
X2819420Y2101445D1*
X2820083Y2109858D1*
X2822052Y2118064D1*
X2825282Y2125861D1*
X2829690Y2133055D1*
X2835172Y2139472D1*
X2841589Y2144954D1*
X2848783Y2149362D1*
X2853440Y2151433D1*
X2848783Y2153528D1*
X2841589Y2157936D1*
X2835172Y2163417D1*
X2829690Y2169835D1*
X2825282Y2177029D1*
X2822052Y2184825D1*
X2820083Y2193031D1*
X2819420Y2201445D1*
X2820083Y2209858D1*
X2820420Y2211556D1*
X2660722Y2371273D1*
X2648770Y2371264D1*
X2645122Y2366495D1*
X2639155Y2360528D1*
X2632328Y2355567D1*
X2624808Y2351735D1*
X2623988Y2351433D1*
X2628644Y2349339D1*
X2635839Y2344930D1*
X2642256Y2339449D1*
X2647738Y2333031D1*
X2652146Y2325837D1*
X2655375Y2318041D1*
X2657345Y2309835D1*
X2658008Y2301421D1*
X2657345Y2293008D1*
X2655375Y2284802D1*
X2652146Y2277005D1*
X2647738Y2269811D1*
X2642256Y2263394D1*
X2635839Y2257912D1*
X2628644Y2253504D1*
X2623988Y2251433D1*
X2628644Y2249339D1*
X2635839Y2244930D1*
X2642256Y2239449D1*
X2647738Y2233031D1*
X2652146Y2225837D1*
X2655375Y2218041D1*
X2657345Y2209835D1*
X2658008Y2201421D1*
X2657345Y2193008D1*
X2655375Y2184802D1*
X2652146Y2177005D1*
X2647738Y2169811D1*
X2642256Y2163394D1*
X2635839Y2157912D1*
X2628644Y2153504D1*
X2623988Y2151433D1*
X2628644Y2149339D1*
X2635839Y2144930D1*
X2642256Y2139449D1*
X2647738Y2133031D1*
X2652146Y2125837D1*
X2655375Y2118041D1*
X2657345Y2109835D1*
X2658008Y2101421D1*
X2657345Y2093008D1*
X2655375Y2084802D1*
X2652146Y2077005D1*
X2647738Y2069811D1*
X2642256Y2063394D1*
X2635839Y2057912D1*
X2628644Y2053504D1*
X2623988Y2051433D1*
X2630008Y2048619D1*
X2635346Y2045283D1*
X2640259Y2041346D1*
X2644678Y2036862D1*
X2648542Y2031892D1*
X2651799Y2026505D1*
X2654406Y2020774D1*
X2656323Y2014777D1*
X2657526Y2008598D1*
X2658008Y2001421D1*
X2657639Y1995136D1*
X2656539Y1988938D1*
X2654722Y1982911D1*
X2652213Y1977136D1*
X2649046Y1971696D1*
X2645265Y1966661D1*
X2640921Y1962104D1*
X2636075Y1958085D1*
X2630793Y1954660D1*
X2625146Y1951877D1*
X2624022Y1951421D1*
X1123147Y2993555D2*
X1121778Y2984915D1*
X1119075Y2976596D1*
X1115104Y2968801D1*
X1109962Y2961723D1*
X1103777Y2955538D1*
X1096699Y2950396D1*
X1088904Y2946425D1*
X1080585Y2943722D1*
X1071945Y2942353D1*
X1063197D1*
X1054556Y2943722D1*
X1046238Y2946425D1*
X1038442Y2950396D1*
X1031365Y2955538D1*
X1025180Y2961723D1*
X1020038Y2968801D1*
X1016067Y2976596D1*
X1013364Y2984915D1*
X1011995Y2993555D1*
Y3002303D1*
X1013364Y3010944D1*
X1016067Y3019262D1*
X1020038Y3027058D1*
X1025180Y3034135D1*
X1031365Y3040320D1*
X1038442Y3045462D1*
X1046238Y3049433D1*
X1054556Y3052136D1*
X1063197Y3053505D1*
X1071945D1*
X1080585Y3052136D1*
X1088904Y3049433D1*
X1096699Y3045462D1*
X1103777Y3040320D1*
X1109962Y3034135D1*
X1115104Y3027058D1*
X1119075Y3019262D1*
X1121778Y3010944D1*
X1123147Y3002303D1*
Y2993555D1*
X3444971Y2804210D2*
X3603711D1*
Y2637596D1*
X3437097D1*
Y2676996D1*
X3373228Y2676966D1*
X3217130Y2520866D1*
X3217136Y2432434D1*
X3221117Y2425861D1*
X3224346Y2418064D1*
X3225076Y2415476D1*
X3367272Y2557462D1*
X3372850Y2561514D1*
X3378993Y2564646D1*
X3385550Y2566776D1*
X3392360Y2567854D1*
X3419429Y2567990D1*
X3449602D1*
X3453008Y2573020D1*
X3457056Y2578156D1*
X3461497Y2582959D1*
X3466301Y2587400D1*
X3471437Y2591449D1*
X3476877Y2595084D1*
X3482584Y2598280D1*
X3488524Y2601018D1*
X3494661Y2603282D1*
X3500957Y2605058D1*
X3507373Y2606333D1*
X3513867Y2607102D1*
X3520404Y2607360D1*
X3526941Y2607102D1*
X3533436Y2606333D1*
X3539852Y2605058D1*
X3546147Y2603282D1*
X3552285Y2601018D1*
X3558224Y2598280D1*
X3563932Y2595084D1*
X3569371Y2591449D1*
X3574508Y2587400D1*
X3579311Y2582959D1*
X3583752Y2578156D1*
X3587801Y2573020D1*
X3591436Y2567580D1*
X3594631Y2561873D1*
X3597370Y2555933D1*
X3599634Y2549795D1*
X3601409Y2543500D1*
X3602685Y2537084D1*
X3603454Y2530589D1*
X3603711Y2524052D1*
X3603454Y2517516D1*
X3602685Y2511021D1*
X3601409Y2504605D1*
X3599634Y2498310D1*
X3597370Y2492172D1*
X3594631Y2486232D1*
X3591436Y2480525D1*
X3587801Y2475085D1*
X3583752Y2469949D1*
X3579311Y2465146D1*
X3574508Y2460705D1*
X3569371Y2456656D1*
X3563932Y2453021D1*
X3558224Y2449825D1*
X3552285Y2447087D1*
X3546147Y2444823D1*
X3539852Y2443047D1*
X3533436Y2441772D1*
X3526941Y2441003D1*
X3520404Y2440745D1*
X3513867Y2441003D1*
X3507373Y2441772D1*
X3500957Y2443047D1*
X3494661Y2444823D1*
X3488524Y2447087D1*
X3482584Y2449825D1*
X3476877Y2453021D1*
X3471437Y2456656D1*
X3466301Y2460705D1*
X3461497Y2465146D1*
X3457056Y2469949D1*
X3453008Y2475085D1*
X3449538Y2480115D1*
X3414013D1*
X3226197Y2292306D1*
X3224346Y2284825D1*
X3221117Y2277029D1*
X3216709Y2269835D1*
X3211227Y2263417D1*
X3204810Y2257936D1*
X3197615Y2253528D1*
X3192959Y2251457D1*
X3197615Y2249362D1*
X3204165Y2245385D1*
X3376478Y2245382D1*
X3439287Y2308222D1*
X3438123Y2314171D1*
X3437354Y2320665D1*
X3437097Y2327202D1*
X3437354Y2333739D1*
X3438123Y2340234D1*
X3439399Y2346650D1*
X3441175Y2352945D1*
X3443438Y2359083D1*
X3446177Y2365022D1*
X3449373Y2370730D1*
X3453008Y2376169D1*
X3457056Y2381306D1*
X3461497Y2386109D1*
X3466301Y2390550D1*
X3471437Y2394598D1*
X3476877Y2398234D1*
X3482584Y2401429D1*
X3488524Y2404168D1*
X3494661Y2406432D1*
X3500957Y2408207D1*
X3507373Y2409483D1*
X3513867Y2410252D1*
X3520404Y2410509D1*
X3526941Y2410252D1*
X3533436Y2409483D1*
X3539852Y2408207D1*
X3546147Y2406432D1*
X3552285Y2404168D1*
X3558224Y2401429D1*
X3563932Y2398234D1*
X3569371Y2394598D1*
X3574508Y2390550D1*
X3579311Y2386109D1*
X3583752Y2381306D1*
X3587801Y2376169D1*
X3591436Y2370730D1*
X3594631Y2365022D1*
X3597370Y2359083D1*
X3599634Y2352945D1*
X3601409Y2346650D1*
X3602685Y2340234D1*
X3603454Y2333739D1*
X3603711Y2327202D1*
X3603454Y2320665D1*
X3602685Y2314171D1*
X3601409Y2307755D1*
X3599634Y2301459D1*
X3597370Y2295322D1*
X3594631Y2289382D1*
X3591436Y2283675D1*
X3587801Y2278235D1*
X3583752Y2273098D1*
X3579311Y2268295D1*
X3574508Y2263854D1*
X3569371Y2259806D1*
X3563932Y2256171D1*
X3558224Y2252975D1*
X3552285Y2250236D1*
X3546147Y2247972D1*
X3539852Y2246197D1*
X3533436Y2244921D1*
X3526941Y2244152D1*
X3520404Y2243895D1*
X3513867Y2244152D1*
X3507373Y2244921D1*
X3501362Y2246024D1*
X3429613Y2174274D1*
X3449643Y2174289D1*
X3453008Y2179319D1*
X3457056Y2184455D1*
X3461497Y2189259D1*
X3466301Y2193699D1*
X3471437Y2197748D1*
X3476877Y2201383D1*
X3482584Y2204579D1*
X3488524Y2207318D1*
X3494661Y2209581D1*
X3500957Y2211357D1*
X3507373Y2212633D1*
X3513867Y2213402D1*
X3520404Y2213659D1*
X3526941Y2213402D1*
X3533436Y2212633D1*
X3539852Y2211357D1*
X3546147Y2209581D1*
X3552285Y2207318D1*
X3558224Y2204579D1*
X3563932Y2201383D1*
X3569371Y2197748D1*
X3574508Y2193699D1*
X3579311Y2189259D1*
X3583752Y2184455D1*
X3587801Y2179319D1*
X3591436Y2173879D1*
X3594631Y2168172D1*
X3597370Y2162232D1*
X3599634Y2156094D1*
X3601409Y2149799D1*
X3602685Y2143383D1*
X3603454Y2136888D1*
X3603711Y2130352D1*
X3603454Y2123815D1*
X3602685Y2117320D1*
X3601409Y2110904D1*
X3599634Y2104609D1*
X3597370Y2098471D1*
X3594631Y2092531D1*
X3591436Y2086824D1*
X3587801Y2081385D1*
X3583752Y2076248D1*
X3579311Y2071445D1*
X3574508Y2067004D1*
X3569371Y2062955D1*
X3563932Y2059320D1*
X3558224Y2056125D1*
X3552285Y2053386D1*
X3546147Y2051122D1*
X3539852Y2049346D1*
X3533436Y2048071D1*
X3526941Y2047302D1*
X3520404Y2047045D1*
X3513867Y2047302D1*
X3507373Y2048071D1*
X3500957Y2049346D1*
X3494661Y2051122D1*
X3488524Y2053386D1*
X3482584Y2056125D1*
X3476877Y2059320D1*
X3471437Y2062955D1*
X3466301Y2067004D1*
X3461497Y2071445D1*
X3457056Y2076248D1*
X3453008Y2081385D1*
X3449538Y2086415D1*
X3429823D1*
X3411224Y2068035D1*
X3405646Y2063983D1*
X3399503Y2060852D1*
X3392946Y2058722D1*
X3386136Y2057643D1*
X3359067Y2057508D1*
X3204201D1*
X3197615Y2053528D1*
X3192959Y2051457D1*
X3197615Y2049362D1*
X3204165Y2045385D1*
X3455908Y2045247D1*
X3462718Y2044168D1*
X3469274Y2042038D1*
X3475417Y2038907D1*
X3480996Y2034854D1*
X3500232Y2015810D1*
X3501428Y2014614D1*
X3507373Y2015782D1*
X3513867Y2016551D1*
X3520404Y2016808D1*
X3526941Y2016551D1*
X3533436Y2015782D1*
X3539852Y2014507D1*
X3546147Y2012731D1*
X3552285Y2010467D1*
X3558224Y2007728D1*
X3563932Y2004533D1*
X3569371Y2000898D1*
X3574508Y1996849D1*
X3579311Y1992408D1*
X3583752Y1987605D1*
X3587801Y1982469D1*
X3591436Y1977029D1*
X3594631Y1971322D1*
X3597370Y1965382D1*
X3599634Y1959244D1*
X3601409Y1952949D1*
X3602685Y1946533D1*
X3603454Y1940038D1*
X3603711Y1933501D1*
X3603454Y1926965D1*
X3602685Y1920470D1*
X3601409Y1914054D1*
X3599634Y1907759D1*
X3597370Y1901621D1*
X3594631Y1895681D1*
X3591436Y1889974D1*
X3587801Y1884534D1*
X3583752Y1879398D1*
X3579311Y1874594D1*
X3574508Y1870154D1*
X3569371Y1866105D1*
X3563932Y1862470D1*
X3558224Y1859274D1*
X3552285Y1856535D1*
X3546147Y1854272D1*
X3539852Y1852496D1*
X3533436Y1851220D1*
X3526941Y1850451D1*
X3520404Y1850194D1*
X3513867Y1850451D1*
X3507373Y1851220D1*
X3500957Y1852496D1*
X3494661Y1854272D1*
X3488524Y1856535D1*
X3482584Y1859274D1*
X3476877Y1862470D1*
X3471437Y1866105D1*
X3466301Y1870154D1*
X3461497Y1874594D1*
X3457056Y1879398D1*
X3453008Y1884534D1*
X3449373Y1889974D1*
X3446177Y1895681D1*
X3443438Y1901621D1*
X3441175Y1907759D1*
X3439399Y1914054D1*
X3438123Y1920470D1*
X3437354Y1926965D1*
X3437097Y1933501D1*
X3437354Y1940038D1*
X3438123Y1946533D1*
X3439226Y1952543D1*
X3434245Y1957524D1*
X3204214Y1957508D1*
X3197615Y1953528D1*
X3192959Y1951457D1*
X3197615Y1949362D1*
X3204810Y1944954D1*
X3211227Y1939472D1*
X3216709Y1933055D1*
X3221117Y1925861D1*
X3224346Y1918064D1*
X3226316Y1909858D1*
X3226979Y1901445D1*
X3226316Y1893031D1*
X3224346Y1884825D1*
X3221117Y1877029D1*
X3216709Y1869835D1*
X3211227Y1863417D1*
X3204810Y1857936D1*
X3197615Y1853528D1*
X3192959Y1851457D1*
X3197615Y1849362D1*
X3204810Y1844954D1*
X3211227Y1839472D1*
X3216709Y1833055D1*
X3221117Y1825861D1*
X3224346Y1818064D1*
X3226316Y1809858D1*
X3226979Y1801445D1*
X3226316Y1793031D1*
X3224346Y1784825D1*
X3221117Y1777029D1*
X3216709Y1769835D1*
X3211227Y1763417D1*
X3204810Y1757936D1*
X3197615Y1753528D1*
X3192959Y1751457D1*
X3197615Y1749362D1*
X3204810Y1744954D1*
X3211227Y1739472D1*
X3216709Y1733055D1*
X3221117Y1725861D1*
X3224346Y1718064D1*
X3226316Y1709858D1*
X3226979Y1701445D1*
X3226316Y1693031D1*
X3224346Y1684825D1*
X3221117Y1677029D1*
X3216709Y1669835D1*
X3211227Y1663417D1*
X3204810Y1657936D1*
X3197615Y1653528D1*
X3192959Y1651457D1*
X3198979Y1648643D1*
X3204318Y1645307D1*
X3209230Y1641370D1*
X3213650Y1636886D1*
X3217513Y1631916D1*
X3220770Y1626529D1*
X3223377Y1620798D1*
X3225294Y1614801D1*
X3226497Y1608622D1*
X3226979Y1601445D1*
X3226610Y1595160D1*
X3225510Y1588962D1*
X3223693Y1582934D1*
X3221184Y1577160D1*
X3218017Y1571719D1*
X3214236Y1566685D1*
X3209892Y1562127D1*
X3205046Y1558109D1*
X3199764Y1554684D1*
X3194117Y1551900D1*
X3188184Y1549795D1*
X3182045Y1548398D1*
X3175785Y1547727D1*
X3169490Y1547794D1*
X3163245Y1548594D1*
X3157138Y1550119D1*
X3151249Y1552349D1*
X3145663Y1555251D1*
X3140453Y1558785D1*
X3135692Y1562904D1*
X3131445Y1567551D1*
X3127770Y1572663D1*
X3124718Y1578169D1*
X3122329Y1583995D1*
X3120639Y1590059D1*
X3119668Y1596280D1*
X3119432Y1602570D1*
X3119932Y1608846D1*
X3121161Y1615020D1*
X3123105Y1621008D1*
X3125734Y1626728D1*
X3129014Y1632102D1*
X3132899Y1637056D1*
X3137337Y1641521D1*
X3142266Y1645438D1*
X3147619Y1648752D1*
X3153398Y1651445D1*
X3148783Y1653528D1*
X3141589Y1657936D1*
X3135172Y1663417D1*
X3129690Y1669835D1*
X3125282Y1677029D1*
X3122052Y1684825D1*
X3120083Y1693031D1*
X3119420Y1701445D1*
X3120083Y1709858D1*
X3122052Y1718064D1*
X3125282Y1725861D1*
X3129690Y1733055D1*
X3135172Y1739472D1*
X3141589Y1744954D1*
X3148783Y1749362D1*
X3153440Y1751433D1*
X3148783Y1753528D1*
X3141589Y1757936D1*
X3135172Y1763417D1*
X3129690Y1769835D1*
X3125282Y1777029D1*
X3122052Y1784825D1*
X3120083Y1793031D1*
X3119420Y1801445D1*
X3120083Y1809858D1*
X3122052Y1818064D1*
X3125282Y1825861D1*
X3129690Y1833055D1*
X3135172Y1839472D1*
X3141589Y1844954D1*
X3148783Y1849362D1*
X3153440Y1851433D1*
X3148783Y1853528D1*
X3141589Y1857936D1*
X3135172Y1863417D1*
X3129690Y1869835D1*
X3125282Y1877029D1*
X3122052Y1884825D1*
X3120083Y1893031D1*
X3119420Y1901445D1*
X3120083Y1909858D1*
X3122052Y1918064D1*
X3125282Y1925861D1*
X3129690Y1933055D1*
X3135172Y1939472D1*
X3141589Y1944954D1*
X3148783Y1949362D1*
X3153440Y1951433D1*
X3148783Y1953528D1*
X3141589Y1957936D1*
X3135172Y1963417D1*
X3129690Y1969835D1*
X3125282Y1977029D1*
X3122052Y1984825D1*
X3120083Y1993031D1*
X3119420Y2001445D1*
X3120083Y2009858D1*
X3122052Y2018064D1*
X3125282Y2025861D1*
X3129690Y2033055D1*
X3135172Y2039472D1*
X3141589Y2044954D1*
X3148783Y2049362D1*
X3153440Y2051433D1*
X3148783Y2053528D1*
X3141589Y2057936D1*
X3135172Y2063417D1*
X3129690Y2069835D1*
X3125282Y2077029D1*
X3122052Y2084825D1*
X3120083Y2093031D1*
X3119420Y2101445D1*
X3120083Y2109858D1*
X3122052Y2118064D1*
X3125282Y2125861D1*
X3129690Y2133055D1*
X3135172Y2139472D1*
X3141589Y2144954D1*
X3148783Y2149362D1*
X3153440Y2151433D1*
X3148783Y2153528D1*
X3141589Y2157936D1*
X3135172Y2163417D1*
X3129690Y2169835D1*
X3125282Y2177029D1*
X3122052Y2184825D1*
X3120083Y2193031D1*
X3119420Y2201445D1*
X3120083Y2209858D1*
X3122052Y2218064D1*
X3125282Y2225861D1*
X3129690Y2233055D1*
X3135172Y2239472D1*
X3141589Y2244954D1*
X3148783Y2249362D1*
X3153440Y2251433D1*
X3148783Y2253528D1*
X3141589Y2257936D1*
X3135172Y2263417D1*
X3129690Y2269835D1*
X3125282Y2277029D1*
X3122052Y2284825D1*
X3120083Y2293031D1*
X3119420Y2301445D1*
X3120083Y2309858D1*
X3122052Y2318064D1*
X3125282Y2325861D1*
X3129690Y2333055D1*
X3135172Y2339472D1*
X3141589Y2344954D1*
X3148783Y2349362D1*
X3153440Y2351433D1*
X3148783Y2353528D1*
X3141589Y2357936D1*
X3135172Y2363417D1*
X3129690Y2369835D1*
X3125282Y2377029D1*
X3122052Y2384825D1*
X3120083Y2393031D1*
X3119420Y2401445D1*
X3120083Y2409858D1*
X3122052Y2418064D1*
X3125282Y2425861D1*
X3129260Y2432411D1*
X3129398Y2542520D1*
X3130476Y2549329D1*
X3132606Y2555886D1*
X3135738Y2562029D1*
X3139790Y2567608D1*
X3158835Y2586844D1*
X3326495Y2754312D1*
X3332073Y2758365D1*
X3338217Y2761496D1*
X3344773Y2763626D1*
X3351583Y2764705D1*
X3378652Y2764840D1*
X3437123D1*
X3437097Y2804210D1*
X3444971D1*
X3603454Y1730114D2*
X3602685Y1723619D1*
X3601409Y1717203D1*
X3599634Y1710908D1*
X3597370Y1704770D1*
X3594631Y1698831D1*
X3591436Y1693123D1*
X3587801Y1687684D1*
X3583752Y1682547D1*
X3579311Y1677744D1*
X3574508Y1673303D1*
X3569371Y1669255D1*
X3563932Y1665619D1*
X3558224Y1662424D1*
X3552285Y1659685D1*
X3546147Y1657421D1*
X3539852Y1655646D1*
X3533436Y1654370D1*
X3526941Y1653601D1*
X3520404Y1653344D1*
X3513867Y1653601D1*
X3507373Y1654370D1*
X3500957Y1655646D1*
X3494661Y1657421D1*
X3488524Y1659685D1*
X3482584Y1662424D1*
X3476877Y1665619D1*
X3471437Y1669255D1*
X3466301Y1673303D1*
X3461497Y1677744D1*
X3457056Y1682547D1*
X3453008Y1687684D1*
X3449373Y1693123D1*
X3446177Y1698831D1*
X3443438Y1704770D1*
X3441175Y1710908D1*
X3439399Y1717203D1*
X3438123Y1723619D1*
X3437354Y1730114D1*
X3437097Y1736651D1*
X3437354Y1743188D1*
X3438123Y1749682D1*
X3439399Y1756098D1*
X3441175Y1762394D1*
X3443438Y1768531D1*
X3446177Y1774471D1*
X3449373Y1780178D1*
X3453008Y1785618D1*
X3457056Y1790755D1*
X3461497Y1795558D1*
X3466301Y1799999D1*
X3471437Y1804047D1*
X3476877Y1807682D1*
X3482584Y1810878D1*
X3488524Y1813617D1*
X3494661Y1815881D1*
X3500957Y1817656D1*
X3507373Y1818932D1*
X3513867Y1819701D1*
X3520404Y1819958D1*
X3526941Y1819701D1*
X3533436Y1818932D1*
X3539852Y1817656D1*
X3546147Y1815881D1*
X3552285Y1813617D1*
X3558224Y1810878D1*
X3563932Y1807682D1*
X3569371Y1804047D1*
X3574508Y1799999D1*
X3579311Y1795558D1*
X3583752Y1790755D1*
X3587801Y1785618D1*
X3591436Y1780178D1*
X3594631Y1774471D1*
X3597370Y1768531D1*
X3599634Y1762394D1*
X3601409Y1756098D1*
X3602685Y1749682D1*
X3603454Y1743188D1*
X3603711Y1736651D1*
X3603454Y1730114D1*
Y1533264D2*
X3602685Y1526769D1*
X3601409Y1520353D1*
X3599634Y1514058D1*
X3597370Y1507920D1*
X3594631Y1501980D1*
X3591436Y1496273D1*
X3587801Y1490833D1*
X3583752Y1485697D1*
X3579311Y1480894D1*
X3574508Y1476453D1*
X3569371Y1472404D1*
X3563932Y1468769D1*
X3558224Y1465573D1*
X3552285Y1462835D1*
X3546147Y1460571D1*
X3539852Y1458795D1*
X3533436Y1457520D1*
X3526941Y1456751D1*
X3520404Y1456493D1*
X3513867Y1456751D1*
X3507373Y1457520D1*
X3500957Y1458795D1*
X3494661Y1460571D1*
X3488524Y1462835D1*
X3482584Y1465573D1*
X3476877Y1468769D1*
X3471437Y1472404D1*
X3466301Y1476453D1*
X3461497Y1480894D1*
X3457056Y1485697D1*
X3453008Y1490833D1*
X3449373Y1496273D1*
X3446177Y1501980D1*
X3443438Y1507920D1*
X3441175Y1514058D1*
X3439399Y1520353D1*
X3438123Y1526769D1*
X3437354Y1533264D1*
X3437097Y1539801D1*
X3437354Y1546337D1*
X3438123Y1552832D1*
X3439399Y1559248D1*
X3441175Y1565543D1*
X3443438Y1571681D1*
X3446177Y1577621D1*
X3449373Y1583328D1*
X3453008Y1588768D1*
X3457056Y1593904D1*
X3461497Y1598707D1*
X3466301Y1603148D1*
X3471437Y1607197D1*
X3476877Y1610832D1*
X3482584Y1614028D1*
X3488524Y1616766D1*
X3494661Y1619030D1*
X3500957Y1620806D1*
X3507373Y1622081D1*
X3513867Y1622850D1*
X3520404Y1623108D1*
X3526941Y1622850D1*
X3533436Y1622081D1*
X3539852Y1620806D1*
X3546147Y1619030D1*
X3552285Y1616766D1*
X3558224Y1614028D1*
X3563932Y1610832D1*
X3569371Y1607197D1*
X3574508Y1603148D1*
X3579311Y1598707D1*
X3583752Y1593904D1*
X3587801Y1588768D1*
X3591436Y1583328D1*
X3594631Y1577621D1*
X3597370Y1571681D1*
X3599634Y1565543D1*
X3601409Y1559248D1*
X3602685Y1552832D1*
X3603454Y1546337D1*
X3603711Y1539801D1*
X3603454Y1533264D1*
Y1336413D2*
X3602685Y1329919D1*
X3601409Y1323503D1*
X3599634Y1317207D1*
X3597370Y1311070D1*
X3594631Y1305130D1*
X3591436Y1299423D1*
X3587801Y1293983D1*
X3583752Y1288846D1*
X3579311Y1284043D1*
X3574508Y1279602D1*
X3569371Y1275554D1*
X3563932Y1271919D1*
X3558224Y1268723D1*
X3552285Y1265984D1*
X3546147Y1263720D1*
X3539852Y1261945D1*
X3533436Y1260669D1*
X3526941Y1259900D1*
X3520404Y1259643D1*
X3513867Y1259900D1*
X3507373Y1260669D1*
X3500957Y1261945D1*
X3494661Y1263720D1*
X3488524Y1265984D1*
X3482584Y1268723D1*
X3476877Y1271919D1*
X3471437Y1275554D1*
X3466301Y1279602D1*
X3461497Y1284043D1*
X3457056Y1288846D1*
X3453008Y1293983D1*
X3449373Y1299423D1*
X3446177Y1305130D1*
X3443438Y1311070D1*
X3441175Y1317207D1*
X3439399Y1323503D1*
X3438123Y1329919D1*
X3437354Y1336413D1*
X3437097Y1342950D1*
X3437354Y1349487D1*
X3438123Y1355982D1*
X3439399Y1362398D1*
X3441175Y1368693D1*
X3443438Y1374831D1*
X3446177Y1380770D1*
X3449373Y1386478D1*
X3453008Y1391917D1*
X3457056Y1397054D1*
X3461497Y1401857D1*
X3466301Y1406298D1*
X3471437Y1410346D1*
X3476877Y1413982D1*
X3482584Y1417177D1*
X3488524Y1419916D1*
X3494661Y1422180D1*
X3500957Y1423955D1*
X3507373Y1425231D1*
X3513867Y1426000D1*
X3520404Y1426257D1*
X3526941Y1426000D1*
X3533436Y1425231D1*
X3539852Y1423955D1*
X3546147Y1422180D1*
X3552285Y1419916D1*
X3558224Y1417177D1*
X3563932Y1413982D1*
X3569371Y1410346D1*
X3574508Y1406298D1*
X3579311Y1401857D1*
X3583752Y1397054D1*
X3587801Y1391917D1*
X3591436Y1386478D1*
X3594631Y1380770D1*
X3597370Y1374831D1*
X3599634Y1368693D1*
X3601409Y1362398D1*
X3602685Y1355982D1*
X3603454Y1349487D1*
X3603711Y1342950D1*
X3603454Y1336413D1*
X731936Y585802D2*
X731451Y576367D1*
X730241Y566999D1*
X728315Y557751D1*
X725682Y548678D1*
X722360Y539836D1*
X718366Y531276D1*
X713727Y523047D1*
X708467Y515199D1*
X702619Y507781D1*
X696218Y500835D1*
X689301Y494400D1*
X681909Y488518D1*
X674088Y483222D1*
X665881Y478543D1*
X657339Y474509D1*
X648512Y471146D1*
X639451Y468471D1*
X630213Y466500D1*
X620850Y465247D1*
X611419Y464718D1*
X601974Y464916D1*
X592573Y465841D1*
X583270Y467486D1*
X574123Y469841D1*
X565184Y472895D1*
X556505Y476626D1*
X548139Y481014D1*
X540136Y486034D1*
X532543Y491654D1*
X525406Y497841D1*
X518765Y504559D1*
X512661Y511769D1*
X507130Y519427D1*
X502203Y527487D1*
X497913Y535903D1*
X494282Y544623D1*
X491333Y553598D1*
X489084Y562773D1*
X487547Y572093D1*
X486732Y581505D1*
X486644Y590951D1*
X487282Y600375D1*
X488644Y609723D1*
X490722Y618938D1*
X493501Y627967D1*
X496969Y636755D1*
X501100Y645249D1*
X505874Y653400D1*
X511261Y661160D1*
X517228Y668483D1*
X523743Y675325D1*
X530764Y681646D1*
X538249Y687407D1*
X546157Y692575D1*
X554438Y697118D1*
X563046Y701012D1*
X571927Y704232D1*
X581029Y706759D1*
X590298Y708577D1*
X599680Y709678D1*
X609119Y710054D1*
X618559Y709702D1*
X627944Y708625D1*
X637218Y706828D1*
X646327Y704323D1*
X655215Y701125D1*
X663831Y697252D1*
X672125Y692728D1*
X680045Y687579D1*
X687545Y681836D1*
X694580Y675533D1*
X701112Y668707D1*
X707097Y661400D1*
X712503Y653654D1*
X717297Y645513D1*
X721449Y637029D1*
X724937Y628249D1*
X727739Y619228D1*
X729839Y610018D1*
X731223Y600673D1*
X731885Y591251D1*
X731936Y585802D1*
X3763432Y3262967D2*
X3762948Y3253533D1*
X3761738Y3244164D1*
X3759811Y3234916D1*
X3757178Y3225844D1*
X3753856Y3217001D1*
X3749862Y3208441D1*
X3745223Y3200213D1*
X3739963Y3192365D1*
X3734115Y3184946D1*
X3727714Y3178000D1*
X3720797Y3171566D1*
X3713406Y3165684D1*
X3705584Y3160387D1*
X3697377Y3155709D1*
X3688835Y3151675D1*
X3680008Y3148311D1*
X3670948Y3145636D1*
X3661709Y3143665D1*
X3652346Y3142412D1*
X3642915Y3141883D1*
X3633470Y3142081D1*
X3624070Y3143007D1*
X3614766Y3144651D1*
X3605619Y3147007D1*
X3596680Y3150060D1*
X3588001Y3153791D1*
X3579635Y3158180D1*
X3571633Y3163199D1*
X3564039Y3168819D1*
X3556902Y3175007D1*
X3550261Y3181724D1*
X3544157Y3188934D1*
X3538626Y3196592D1*
X3533699Y3204652D1*
X3529409Y3213068D1*
X3525778Y3221789D1*
X3522829Y3230764D1*
X3520580Y3239938D1*
X3519043Y3249259D1*
X3518228Y3258671D1*
X3518140Y3268117D1*
X3518778Y3277541D1*
X3520140Y3286888D1*
X3522218Y3296104D1*
X3524997Y3305133D1*
X3528465Y3313920D1*
X3532596Y3322415D1*
X3537370Y3330566D1*
X3542757Y3338325D1*
X3548724Y3345648D1*
X3555239Y3352491D1*
X3562260Y3358811D1*
X3569745Y3364572D1*
X3577654Y3369740D1*
X3585934Y3374283D1*
X3594542Y3378177D1*
X3603423Y3381398D1*
X3612525Y3383924D1*
X3621794Y3385743D1*
X3631176Y3386844D1*
X3640615Y3387219D1*
X3650055Y3386867D1*
X3659440Y3385790D1*
X3668714Y3383993D1*
X3677823Y3381488D1*
X3686711Y3378290D1*
X3695327Y3374417D1*
X3703621Y3369894D1*
X3711541Y3364744D1*
X3719041Y3359001D1*
X3726076Y3352698D1*
X3732608Y3345873D1*
X3738593Y3338566D1*
X3743999Y3330819D1*
X3748793Y3322678D1*
X3752945Y3314194D1*
X3756433Y3305415D1*
X3759235Y3296394D1*
X3761335Y3287184D1*
X3762719Y3277839D1*
X3763381Y3268416D1*
X3763432Y3262967D1*
X731936D2*
X731451Y3253533D1*
X730241Y3244164D1*
X728315Y3234916D1*
X725682Y3225844D1*
X722360Y3217001D1*
X718366Y3208441D1*
X713727Y3200213D1*
X708467Y3192365D1*
X702619Y3184946D1*
X696218Y3178000D1*
X689301Y3171566D1*
X681909Y3165684D1*
X674088Y3160387D1*
X665881Y3155709D1*
X657339Y3151675D1*
X648512Y3148311D1*
X639451Y3145636D1*
X630213Y3143665D1*
X620850Y3142412D1*
X611419Y3141883D1*
X601974Y3142081D1*
X592573Y3143007D1*
X583270Y3144651D1*
X574123Y3147007D1*
X565184Y3150060D1*
X556505Y3153791D1*
X548139Y3158180D1*
X540136Y3163199D1*
X532543Y3168819D1*
X525406Y3175007D1*
X518765Y3181724D1*
X512661Y3188934D1*
X507130Y3196592D1*
X502203Y3204652D1*
X497913Y3213068D1*
X494282Y3221789D1*
X491333Y3230764D1*
X489084Y3239938D1*
X487547Y3249259D1*
X486732Y3258671D1*
X486644Y3268117D1*
X487282Y3277541D1*
X488644Y3286888D1*
X490722Y3296104D1*
X493501Y3305133D1*
X496969Y3313920D1*
X501100Y3322415D1*
X505874Y3330566D1*
X511261Y3338325D1*
X517228Y3345648D1*
X523743Y3352491D1*
X530764Y3358811D1*
X538249Y3364572D1*
X546157Y3369740D1*
X554438Y3374283D1*
X563046Y3378177D1*
X571927Y3381398D1*
X581029Y3383924D1*
X590298Y3385743D1*
X599680Y3386844D1*
X609119Y3387219D1*
X618559Y3386867D1*
X627944Y3385790D1*
X637218Y3383993D1*
X646327Y3381488D1*
X655215Y3378290D1*
X663831Y3374417D1*
X672125Y3369894D1*
X680045Y3364744D1*
X687545Y3359001D1*
X694580Y3352698D1*
X701112Y3345873D1*
X707097Y3338566D1*
X712503Y3330819D1*
X717297Y3322678D1*
X721449Y3314194D1*
X724937Y3305415D1*
X727739Y3296394D1*
X729839Y3287184D1*
X731223Y3277839D1*
X731885Y3268416D1*
X731936Y3262967D1*
X3763432Y585802D2*
X3762948Y576367D1*
X3761738Y566999D1*
X3759811Y557751D1*
X3757178Y548678D1*
X3753856Y539836D1*
X3749862Y531276D1*
X3745223Y523047D1*
X3739963Y515199D1*
X3734115Y507781D1*
X3727714Y500835D1*
X3720797Y494400D1*
X3713406Y488518D1*
X3705584Y483222D1*
X3697377Y478543D1*
X3688835Y474509D1*
X3680008Y471146D1*
X3670948Y468471D1*
X3661709Y466500D1*
X3652346Y465247D1*
X3642915Y464718D1*
X3633470Y464916D1*
X3624070Y465841D1*
X3614766Y467486D1*
X3605619Y469841D1*
X3596680Y472895D1*
X3588001Y476626D1*
X3579635Y481014D1*
X3571633Y486034D1*
X3564039Y491654D1*
X3556902Y497841D1*
X3550261Y504559D1*
X3544157Y511769D1*
X3538626Y519427D1*
X3533699Y527487D1*
X3529409Y535903D1*
X3525778Y544623D1*
X3522829Y553598D1*
X3520580Y562773D1*
X3519043Y572093D1*
X3518228Y581505D1*
X3518140Y590951D1*
X3518778Y600375D1*
X3520140Y609723D1*
X3522218Y618938D1*
X3524997Y627967D1*
X3528465Y636755D1*
X3532596Y645249D1*
X3537370Y653400D1*
X3542757Y661160D1*
X3548724Y668483D1*
X3555239Y675325D1*
X3562260Y681646D1*
X3569745Y687407D1*
X3577654Y692575D1*
X3585934Y697118D1*
X3594542Y701012D1*
X3603423Y704232D1*
X3612525Y706759D1*
X3621794Y708577D1*
X3631176Y709678D1*
X3640615Y710054D1*
X3650055Y709702D1*
X3659440Y708625D1*
X3668714Y706828D1*
X3677823Y704323D1*
X3686711Y701125D1*
X3695327Y697252D1*
X3703621Y692728D1*
X3711541Y687579D1*
X3719041Y681836D1*
X3726076Y675533D1*
X3732608Y668707D1*
X3738593Y661400D1*
X3743999Y653654D1*
X3748793Y645513D1*
X3752945Y637029D1*
X3756433Y628249D1*
X3759235Y619228D1*
X3761335Y610018D1*
X3762719Y600673D1*
X3763381Y591251D1*
X3763432Y585802D1*
X401605Y401575D2*
X3850364D1*
X3850394Y3456723D1*
X401605Y3456694D1*
X401575Y401546D1*
X1032906Y608946D2*
D17*
Y553228D1*
X973251Y608946D2*
X1092560D1*
X1357906D2*
Y553228D1*
X1298251Y608946D2*
X1417560D1*
X1687087Y615068D2*
Y559350D1*
X1627432Y615068D2*
X1746741D1*
X2009026Y614098D2*
Y558381D1*
X1949373Y614098D2*
X2068681D1*
X2332906Y615068D2*
Y559350D1*
X2273252Y615068D2*
X2392560D1*
X2657906D2*
Y559350D1*
X2598252Y615068D2*
X2717560D1*
X2992089D2*
Y559350D1*
X2932436Y615068D2*
X3051744D1*
X3304844D2*
Y559350D1*
X3245190Y615068D2*
X3364499D1*
X806592Y2357984D2*
Y2238676D1*
X750875Y2298331D2*
X806592D1*
X1428555Y3265291D2*
D13*
Y3153856D1*
X1372837Y3209573D2*
X1484273D1*
X2662512Y3253560D2*
Y3142125D1*
X2606794Y3197843D2*
X2718230D1*
X2427097Y3163466D2*
D17*
Y3107748D1*
X2367442D2*
X2486752D1*
X2270639Y3162962D2*
Y3107244D1*
X2210984D2*
X2330294D1*
X2427222Y3378222D2*
D13*
Y3219542D1*
X2347882Y3298882D2*
X2506562D1*
X1421634Y1701997D2*
X1475383D1*
X1421634Y1301997D2*
X1529133D1*
X2550479Y1301421D2*
X2657978D1*
X2550479Y2001421D2*
X2657978D1*
X618134Y1913870D2*
Y1747316D1*
X534857Y1830593D2*
X618134D1*
X737972Y2814164D2*
Y2694854D1*
X872618Y2814164D2*
Y2694854D1*
Y2754509D2*
X924399D1*
X3520404Y1229377D2*
Y1062823D1*
Y1146100D2*
X3603681D1*
X609269Y710024D2*
Y464730D1*
X486622Y587377D2*
X731916D1*
X3640765Y3387189D2*
Y3141895D1*
X3518118Y3264542D2*
X3763412D1*
X609269Y3387189D2*
Y3141895D1*
X486622Y3264542D2*
X731916D1*
X3640765Y710024D2*
Y464730D1*
X3518118Y587377D2*
X3763412D1*
X666364Y2300066D2*
D17*
Y2244348D1*
X606710Y2300066D2*
X726018D1*
X3173199Y1601445D2*
D13*
Y1547696D1*
X3119450Y1601445D2*
X3226949D1*
X3196761Y2836003D2*
D17*
Y2716694D1*
Y2776349D2*
X3252479D1*
D18*
X1032906Y608946D3*
Y719182D3*
X1357906Y608946D3*
Y719182D3*
X1687087Y615068D3*
Y725304D3*
X2009026Y614098D3*
Y724335D3*
X2332906Y615068D3*
Y725304D3*
X2657906Y615068D3*
Y725304D3*
X2992089Y615068D3*
Y725304D3*
X3304844Y615068D3*
Y725304D3*
D19*
X806592Y2298331D3*
X916828D3*
D20*
X1428555Y3209573D3*
D21*
Y3009573D3*
D20*
X2662512Y3197843D3*
D21*
Y2997843D3*
D18*
X2427097Y3107748D3*
Y2997512D3*
X2270639Y3107244D3*
Y2997008D3*
D22*
X1003786Y2036629D3*
D23*
Y1294896D3*
D22*
X1685490Y3298882D3*
D23*
X2427222D3*
D24*
X1475383Y2601997D3*
D25*
Y2501997D3*
Y2401997D3*
Y2301997D3*
Y2201997D3*
Y2101997D3*
Y2001997D3*
Y1901997D3*
Y1801997D3*
Y1701997D3*
Y1601997D3*
Y1501997D3*
Y1401997D3*
Y1301997D3*
Y1201997D3*
D24*
X2604228Y1201421D3*
D25*
Y1301421D3*
Y1401421D3*
Y1501421D3*
Y1601421D3*
Y1701421D3*
Y1801421D3*
Y1901421D3*
Y2001421D3*
Y2101421D3*
Y2201421D3*
Y2301421D3*
Y2401421D3*
Y2501421D3*
Y2601421D3*
D26*
X618134Y2027444D3*
D27*
Y1830593D3*
D20*
X1067571Y2997929D3*
D21*
Y3197929D3*
D28*
X603327Y2754509D3*
D29*
X670650D3*
X737972D3*
X805295D3*
X872618D3*
D26*
X3520404Y2720903D3*
D27*
Y2524052D3*
Y2327202D3*
Y2130352D3*
Y1933501D3*
Y1736651D3*
Y1539801D3*
Y1342950D3*
Y1146100D3*
D30*
X609269Y587377D3*
X3640765Y3264542D3*
X609269D3*
X3640765Y587377D3*
D18*
X666364Y2300066D3*
Y2410302D3*
D19*
X2958290Y2776944D3*
X2848054D3*
X807535Y2431020D3*
X917772D3*
X1035465Y912566D3*
X1145701D3*
X1360465D3*
X1470701D3*
X1685465D3*
X1795701D3*
X2010465D3*
X2120701D3*
X2335465D3*
X2445701D3*
X2660465D3*
X2770701D3*
X2985465D3*
X3095701D3*
X3310465D3*
X3420701D3*
D24*
X2873199Y2401445D3*
D25*
Y2301445D3*
Y2201445D3*
Y2101445D3*
Y2001445D3*
Y1901445D3*
Y1801445D3*
Y1701445D3*
Y1601445D3*
X3173199D3*
Y1701445D3*
Y1801445D3*
Y1901445D3*
Y2001445D3*
Y2101445D3*
Y2201445D3*
Y2301445D3*
Y2401445D3*
D19*
X3196761Y2776349D3*
X3086525D3*
M02*
